<svg xmlns="http://www.w3.org/2000/svg" xmlns:xlink="http://www.w3.org/1999/xlink" version="1.1" x="0px" y="0px" viewBox="0 0 205 400" enable-background="new 0 0 205 400" xml:space="preserve"><g id="only_logo"><g><linearGradient id="SVGID_1_" gradientUnits="userSpaceOnUse" x1="32" y1="-8.8" x2="32" y2="47.7" gradientTransform="matrix(1 0 0 -1 0 134)"><stop offset="0" style="stop-color:#2075BC"/><stop offset="1" style="stop-color:#29AAE1"/></linearGradient><polygon fill="url(#SVGID_1_)" points="48,86.4 48,86.3 48,86.4 47.9,86.3 47.9,86.4 32,92.7 16.1,86.4 16.1,86.3 16,86.4 16,86.3 16,86.4 0,92.8 0,142.8 16,136.7 32,142.8 32,142.8 32,142.8 32,142.8 32,142.8 48,136.7 64,142.8 64,92.8"/><g><linearGradient id="SVGID_2_" gradientUnits="userSpaceOnUse" x1="8" y1="-8.8" x2="8" y2="47.7" gradientTransform="matrix(1 0 0 -1 0 134)"><stop offset="0" style="stop-color:#0A6AA8"/><stop offset="1" style="stop-color:#1699C8"/></linearGradient><polygon fill="url(#SVGID_2_)" points="0,92.8 0,142.8 16.1,136.7 16.1,86.3"/><linearGradient id="SVGID_3_" gradientUnits="userSpaceOnUse" x1="24" y1="-8.8" x2="24" y2="47.7" gradientTransform="matrix(1 0 0 -1 0 134)"><stop offset="0" style="stop-color:#2075BC"/><stop offset="1" style="stop-color:#29AAE1"/></linearGradient><polygon fill="url(#SVGID_3_)" points="32,92.8 32,142.8 16,136.7 16,86.3"/><linearGradient id="SVGID_4_" gradientUnits="userSpaceOnUse" x1="40" y1="-8.8" x2="40" y2="47.7" gradientTransform="matrix(1 0 0 -1 0 134)"><stop offset="0" style="stop-color:#0A6AA8"/><stop offset="1" style="stop-color:#1699C8"/></linearGradient><polygon fill="url(#SVGID_4_)" points="32,92.8 32,142.8 48,136.7 48,86.3"/><linearGradient id="SVGID_5_" gradientUnits="userSpaceOnUse" x1="56" y1="-8.8" x2="56" y2="47.7" gradientTransform="matrix(1 0 0 -1 0 134)"><stop offset="0" style="stop-color:#2075BC"/><stop offset="1" style="stop-color:#29AAE1"/></linearGradient><polygon fill="url(#SVGID_5_)" points="64,92.8 64,142.8 47.9,136.7 47.9,86.3"/></g><g><g><defs><path id="SVGID_36_" d="M54.9 115.6c-0.6-1.7-0.4-4.6-0.7-5c-1.9-2.6-8.7-3-11.8-6.4c0.5-1.7-0.6-3-1.7-4.1 c-1.7-1.2-4-0.7-5.8-0.2c-2-0.4-3.9-1.2-5.9-1.7c-4.4-0.5-8.8 2.6-8.8 2.6c-3.2 2-8.1 6.2-10.5 8.6c0.6 0.1 1.2-0.4 1.9-0.4 l4.6-1.2c-1.9 1.6-5.9 4.3-7.1 6.5c1.4-0.5 4.4-2.1 5.9-2.3c-1.3 1.1-4 3.3-4.9 4.7c0.1 0.1 0 0.2 0 0.3 c1.1-0.6 3.8-2.2 5.1-2.3c-1.3 1.3-3.6 3.9-4.1 5.6c1.1-0.7 3.9-2.2 5.1-2.6c-0.3 0.7-0.9 1.2-1.3 1.8c-0.6 0.9-1.9 2-1.9 3.1 c1-0.9 2.2-1.7 3.4-2.3c-0.5 1.1-1.5 2-1.8 3.4c0.8-0.8 2.3-1.2 3.3-1.5l-0.1 0.1c-0.1 0.1-1.2 0.9-2 1.8 c0.7 0 0.2-0.1 1.1 0.1l0.5 0c-0.2 0.1-0.5 0.3-0.8 0.4l0 0c-0.4 0.2-0.9 0.5-1.3 0.7c1.9 2.4 4.2 4.4 6.9 5.7 c3.5 1.7 7.3 2.3 11.2 1.8c0-0.2-0.1-0.4-0.2-0.7l0 0c0 0 0 0 0 0c-0.1-0.3-0.2-0.5-0.2-0.8l0 0c0 0 0 0 0 0 c1.3-2.4 0.6-6.6 4-8.3c2.3-1.2 2.5-1.8 5.1-1.3c1.4 0.3 4.5 1.3 5.9 1c1.3-0.7 2-1.1 3.2-1.9c1.4 0.3 1.9 0.1 2.4-0.6 c-0.5 0.7 0.9-2.6 1.5-3.8L54.9 115.6z"/></defs><clipPath id="SVGID_6_"><use xlink:href="#SVGID_36_" overflow="visible"/></clipPath><ellipse clip-path="url(#SVGID_6_)" fill="#FFFFFF" cx="32" cy="115.8" rx="29.7" ry="20.2"/></g><g><defs><path id="SVGID_38_" d="M54.9 115.6c-0.6-1.7-0.4-4.6-0.7-5c-1.9-2.6-8.7-3-11.8-6.4c0.5-1.7-0.6-3-1.7-4.1 c-1.7-1.2-4-0.7-5.8-0.2c-2-0.4-3.9-1.2-5.9-1.7c-4.4-0.5-8.8 2.6-8.8 2.6c-3.2 2-8.1 6.2-10.5 8.6c0.6 0.1 1.2-0.4 1.9-0.4 l4.6-1.2c-1.9 1.6-5.9 4.3-7.1 6.5c1.4-0.5 4.4-2.1 5.9-2.3c-1.3 1.1-4 3.3-4.9 4.7c0.1 0.1 0 0.2 0 0.3 c1.1-0.6 3.8-2.2 5.1-2.3c-1.3 1.3-3.6 3.9-4.1 5.6c1.1-0.7 3.9-2.2 5.1-2.6c-0.3 0.7-0.9 1.2-1.3 1.8c-0.6 0.9-1.9 2-1.9 3.1 c1-0.9 2.2-1.7 3.4-2.3c-0.5 1.1-1.5 2-1.8 3.4c0.8-0.8 2.3-1.2 3.3-1.5l-0.1 0.1c-0.1 0.1-1.2 0.9-2 1.8 c0.7 0 0.2-0.1 1.1 0.1l0.5 0c-0.2 0.1-0.5 0.3-0.8 0.4l0 0c-0.4 0.2-0.9 0.5-1.3 0.7c1.9 2.4 4.2 4.4 6.9 5.7 c3.5 1.7 7.3 2.3 11.2 1.8c0-0.2-0.1-0.4-0.2-0.7l0 0c0 0 0 0 0 0c-0.1-0.3-0.2-0.5-0.2-0.8l0 0c0 0 0 0 0 0 c1.3-2.4 0.6-6.6 4-8.3c2.3-1.2 2.5-1.8 5.1-1.3c1.4 0.3 4.5 1.3 5.9 1c1.3-0.7 2-1.1 3.2-1.9c1.4 0.3 1.9 0.1 2.4-0.6 c-0.5 0.7 0.9-2.6 1.5-3.8L54.9 115.6z"/></defs><clipPath id="SVGID_7_"><use xlink:href="#SVGID_38_" overflow="visible"/></clipPath><polygon clip-path="url(#SVGID_7_)" fill="#F2F2F2" points="0.4,93.7 0.4,144.2 16.3,138 16.3,87.3"/></g><g><defs><path id="SVGID_40_" d="M54.9 115.6c-0.6-1.7-0.4-4.6-0.7-5c-1.9-2.6-8.7-3-11.8-6.4c0.5-1.7-0.6-3-1.7-4.1 c-1.7-1.2-4-0.7-5.8-0.2c-2-0.4-3.9-1.2-5.9-1.7c-4.4-0.5-8.8 2.6-8.8 2.6c-3.2 2-8.1 6.2-10.5 8.6c0.6 0.1 1.2-0.4 1.9-0.4 l4.6-1.2c-1.9 1.6-5.9 4.3-7.1 6.5c1.4-0.5 4.4-2.1 5.9-2.3c-1.3 1.1-4 3.3-4.9 4.7c0.1 0.1 0 0.2 0 0.3 c1.1-0.6 3.8-2.2 5.1-2.3c-1.3 1.3-3.6 3.9-4.1 5.6c1.1-0.7 3.9-2.2 5.1-2.6c-0.3 0.7-0.9 1.2-1.3 1.8c-0.6 0.9-1.9 2-1.9 3.1 c1-0.9 2.2-1.7 3.4-2.3c-0.5 1.1-1.5 2-1.8 3.4c0.8-0.8 2.3-1.2 3.3-1.5l-0.1 0.1c-0.1 0.1-1.2 0.9-2 1.8 c0.7 0 0.2-0.1 1.1 0.1l0.5 0c-0.2 0.1-0.5 0.3-0.8 0.4l0 0c-0.4 0.2-0.9 0.5-1.3 0.7c1.9 2.4 4.2 4.4 6.9 5.7 c3.5 1.7 7.3 2.3 11.2 1.8c0-0.2-0.1-0.4-0.2-0.7l0 0c0 0 0 0 0 0c-0.1-0.3-0.2-0.5-0.2-0.8l0 0c0 0 0 0 0 0 c1.3-2.4 0.6-6.6 4-8.3c2.3-1.2 2.5-1.8 5.1-1.3c1.4 0.3 4.5 1.3 5.9 1c1.3-0.7 2-1.1 3.2-1.9c1.4 0.3 1.9 0.1 2.4-0.6 c-0.5 0.7 0.9-2.6 1.5-3.8L54.9 115.6z"/></defs><clipPath id="SVGID_8_"><use xlink:href="#SVGID_40_" overflow="visible"/></clipPath><polygon clip-path="url(#SVGID_8_)" fill="#FFFFFF" points="32.1,93.7 32.1,144.2 16.2,138 16.2,87.3"/></g><g><defs><path id="SVGID_42_" d="M54.9 115.6c-0.6-1.7-0.4-4.6-0.7-5c-1.9-2.6-8.7-3-11.8-6.4c0.5-1.7-0.6-3-1.7-4.1 c-1.7-1.2-4-0.7-5.8-0.2c-2-0.4-3.9-1.2-5.9-1.7c-4.4-0.5-8.8 2.6-8.8 2.6c-3.2 2-8.1 6.2-10.5 8.6c0.6 0.1 1.2-0.4 1.9-0.4 l4.6-1.2c-1.9 1.6-5.9 4.3-7.1 6.5c1.4-0.5 4.4-2.1 5.9-2.3c-1.3 1.1-4 3.3-4.9 4.7c0.1 0.1 0 0.2 0 0.3 c1.1-0.6 3.8-2.2 5.1-2.3c-1.3 1.3-3.6 3.9-4.1 5.6c1.1-0.7 3.9-2.2 5.1-2.6c-0.3 0.7-0.9 1.2-1.3 1.8c-0.6 0.9-1.9 2-1.9 3.1 c1-0.9 2.2-1.7 3.4-2.3c-0.5 1.1-1.5 2-1.8 3.4c0.8-0.8 2.3-1.2 3.3-1.5l-0.1 0.1c-0.1 0.1-1.2 0.9-2 1.8 c0.7 0 0.2-0.1 1.1 0.1l0.5 0c-0.2 0.1-0.5 0.3-0.8 0.4l0 0c-0.4 0.2-0.9 0.5-1.3 0.7c1.9 2.4 4.2 4.4 6.9 5.7 c3.5 1.7 7.3 2.3 11.2 1.8c0-0.2-0.1-0.4-0.2-0.7l0 0c0 0 0 0 0 0c-0.1-0.3-0.2-0.5-0.2-0.8l0 0c0 0 0 0 0 0 c1.3-2.4 0.6-6.6 4-8.3c2.3-1.2 2.5-1.8 5.1-1.3c1.4 0.3 4.5 1.3 5.9 1c1.3-0.7 2-1.1 3.2-1.9c1.4 0.3 1.9 0.1 2.4-0.6 c-0.5 0.7 0.9-2.6 1.5-3.8L54.9 115.6z"/></defs><clipPath id="SVGID_9_"><use xlink:href="#SVGID_42_" overflow="visible"/></clipPath><polygon clip-path="url(#SVGID_9_)" fill="#F2F2F2" points="32.1,93.7 32.1,144.2 47.9,138 47.9,87.3"/></g><g><defs><path id="SVGID_44_" d="M54.9 115.6c-0.6-1.7-0.4-4.6-0.7-5c-1.9-2.6-8.7-3-11.8-6.4c0.5-1.7-0.6-3-1.7-4.1 c-1.7-1.2-4-0.7-5.8-0.2c-2-0.4-3.9-1.2-5.9-1.7c-4.4-0.5-8.8 2.6-8.8 2.6c-3.2 2-8.1 6.2-10.5 8.6c0.6 0.1 1.2-0.4 1.9-0.4 l4.6-1.2c-1.9 1.6-5.9 4.3-7.1 6.5c1.4-0.5 4.4-2.1 5.9-2.3c-1.3 1.1-4 3.3-4.9 4.7c0.1 0.1 0 0.2 0 0.3 c1.1-0.6 3.8-2.2 5.1-2.3c-1.3 1.3-3.6 3.9-4.1 5.6c1.1-0.7 3.9-2.2 5.1-2.6c-0.3 0.7-0.9 1.2-1.3 1.8c-0.6 0.9-1.9 2-1.9 3.1 c1-0.9 2.2-1.7 3.4-2.3c-0.5 1.1-1.5 2-1.8 3.4c0.8-0.8 2.3-1.2 3.3-1.5l-0.1 0.1c-0.1 0.1-1.2 0.9-2 1.8 c0.7 0 0.2-0.1 1.1 0.1l0.5 0c-0.2 0.1-0.5 0.3-0.8 0.4l0 0c-0.4 0.2-0.9 0.5-1.3 0.7c1.9 2.4 4.2 4.4 6.9 5.7 c3.5 1.7 7.3 2.3 11.2 1.8c0-0.2-0.1-0.4-0.2-0.7l0 0c0 0 0 0 0 0c-0.1-0.3-0.2-0.5-0.2-0.8l0 0c0 0 0 0 0 0 c1.3-2.4 0.6-6.6 4-8.3c2.3-1.2 2.5-1.8 5.1-1.3c1.4 0.3 4.5 1.3 5.9 1c1.3-0.7 2-1.1 3.2-1.9c1.4 0.3 1.9 0.1 2.4-0.6 c-0.5 0.7 0.9-2.6 1.5-3.8L54.9 115.6z"/></defs><clipPath id="SVGID_10_"><use xlink:href="#SVGID_44_" overflow="visible"/></clipPath><polygon clip-path="url(#SVGID_10_)" fill="#FFFFFF" points="63.8,93.7 63.8,144.2 47.9,138 47.9,87.3"/></g></g></g><path fill="#FFFFFF" d="M32.9 41.3L32.9 41.3L32.9 41.3L32.9 41.3L32.9 41.3l-11 4.4L11 41.3v0l0 0l0 0v0L0 45.7V80l11-4.2 l10.9 4.2v0l0 0l0 0v0l10.9-4.2l11 4.2V45.7L32.9 41.3z M37.1 61.3c-0.4 0.8-1.4 3.1-1 2.6c-0.4 0.5-0.7 0.6-1.7 0.4 c-0.8 0.6-1.2 0.8-2.1 1.3c-1 0.2-3.1-0.5-4-0.7c-1.8-0.3-1.9 0.1-3.5 0.9c-2.3 1.1-1.8 4-2.7 5.6c0 0 0 0 0 0l0 0 c0.1 0.2 0.1 0.4 0.2 0.5c0 0 0 0 0 0l0 0c0 0.2 0.1 0.3 0.1 0.5c-2.6 0.3-5.2-0.1-7.6-1.2c-1.8-0.9-3.4-2.2-4.7-3.8 c0.3-0.2 0.6-0.3 0.9-0.5l0 0c0.2-0.1 0.4-0.2 0.5-0.3l-0.3 0c-0.6-0.1-0.2-0.1-0.7-0.1c0.5-0.6 1.3-1.2 1.4-1.2l0.1-0.1 c-0.7 0.2-1.7 0.5-2.2 1c0.2-0.9 0.9-1.5 1.2-2.3c-0.8 0.4-1.6 1-2.3 1.6c0-0.8 0.9-1.5 1.3-2.1c0.3-0.5 0.7-0.8 0.9-1.2 C10 62.5 8.1 63.5 7.4 64c0.4-1.2 1.9-2.9 2.8-3.8c-0.8 0.1-2.7 1.2-3.4 1.6c0-0.1 0-0.1 0-0.2c0.6-0.9 2.4-2.4 3.3-3.2 c-1 0.1-3 1.2-4 1.5c0.8-1.5 3.5-3.3 4.8-4.4l-3.1 0.8c-0.4 0.1-0.9 0.4-1.3 0.3c1.6-1.7 5-4.5 7.1-5.8c0 0 3-2.1 6-1.8 c1.4 0.4 2.6 0.9 4 1.2c1.2-0.3 2.8-0.7 4 0.1c0.8 0.7 1.5 1.7 1.1 2.8c2.1 2.3 6.7 2.6 8 4.3c0.2 0.3 0.1 2.2 0.5 3.4L37.1 61.3z"/><g><path fill="#FFFFFF" d="M148.9 52.9l-2 4h-1l-2-4v4.6h-1.6v-7.4h2.2l1.9 4.1l1.9-4.1h2.2v7.4h-1.6V52.9z"/><path fill="#FFFFFF" d="M158.3 56.5c-0.7 0.7-1.7 1.1-2.8 1.1s-2-0.4-2.8-1.1c-0.7-0.7-1.1-1.6-1.1-2.7c0-1.1 0.4-2 1.1-2.7 c0.7-0.7 1.7-1.1 2.8-1.1s2 0.4 2.8 1.1c0.7 0.7 1.1 1.6 1.1 2.7C159.5 54.9 159.1 55.8 158.3 56.5z M157.8 53.8 c0-0.7-0.2-1.2-0.6-1.7c-0.4-0.5-0.9-0.7-1.6-0.7s-1.1 0.2-1.6 0.7s-0.6 1-0.6 1.7c0 0.7 0.2 1.2 0.6 1.7c0.4 0.5 0.9 0.7 1.6 0.7 s1.1-0.2 1.6-0.7C157.6 55 157.8 54.4 157.8 53.8z"/><path fill="#FFFFFF" d="M159.9 57.5v-1.1l3.9-4.8H160v-1.4h6v1.1l-3.9 4.8h3.9v1.4H159.9z"/><path fill="#FFFFFF" d="M167.2 50.1h1.6v7.4h-1.6V50.1z"/><path fill="#FFFFFF" d="M170.4 57.5v-7.4h1.6V56h3.1v1.5H170.4z"/><path fill="#FFFFFF" d="M176 57.5v-7.4h1.6V56h3.1v1.5H176z"/><path fill="#FFFFFF" d="M187.3 57.5l-0.7-1.6h-3.1l-0.7 1.6h-1.8l3.2-7.4h1.6l3.2 7.4H187.3z M185.1 52.3l-0.9 2.1h1.8L185.1 52.3 z"/><path fill="#FFFFFF" d="M148 60.2c0.7 0.6 1.1 1.5 1.1 2.7s-0.3 2.1-1 2.7c-0.7 0.7-1.7 1-3.1 1h-2.5v-7.4h2.6 C146.3 59.2 147.3 59.5 148 60.2z M146.8 64.6c0.4-0.4 0.6-0.9 0.6-1.7c0-0.7-0.2-1.3-0.6-1.7c-0.4-0.4-1-0.6-1.9-0.6H144v4.5h1 C145.8 65.1 146.4 65 146.8 64.6z"/><path fill="#FFFFFF" d="M155.5 59.2v1.5h-3.7v1.5h3.3v1.4h-3.3v1.5h3.8v1.5h-5.4v-7.4H155.5z"/><path fill="#FFFFFF" d="M159.7 63.9l1.9-4.7h1.8l-3 7.4H159l-3-7.4h1.8L159.7 63.9z"/><path fill="#FFFFFF" d="M169.3 59.2v1.5h-3.7v1.5h3.3v1.4h-3.3v1.5h3.8v1.5H164v-7.4H169.3z"/><path fill="#FFFFFF" d="M170.6 66.6v-7.4h1.6v5.9h3.1v1.5H170.6z"/><path fill="#FFFFFF" d="M182.3 65.6c-0.7 0.7-1.7 1.1-2.8 1.1c-1.1 0-2-0.4-2.8-1.1c-0.7-0.7-1.1-1.6-1.1-2.7c0-1.1 0.4-2 1.1-2.7 c0.7-0.7 1.7-1.1 2.8-1.1c1.1 0 2 0.4 2.8 1.1c0.7 0.7 1.1 1.6 1.1 2.7C183.4 63.9 183 64.9 182.3 65.6z M181.7 62.9 c0-0.7-0.2-1.2-0.6-1.7c-0.4-0.5-0.9-0.7-1.6-0.7c-0.6 0-1.1 0.2-1.6 0.7c-0.4 0.5-0.6 1-0.6 1.7c0 0.7 0.2 1.2 0.6 1.7 c0.4 0.5 0.9 0.7 1.6 0.7c0.6 0 1.1-0.2 1.6-0.7C181.5 64.1 181.7 63.5 181.7 62.9z"/><path fill="#FFFFFF" d="M189.6 59.9c0.5 0.4 0.8 1.1 0.8 2c0 0.9-0.3 1.6-0.8 2c-0.5 0.4-1.3 0.6-2.4 0.6h-1v2.1h-1.6v-7.4h2.6 C188.2 59.2 189.1 59.4 189.6 59.9z M188.4 62.8c0.2-0.2 0.3-0.5 0.3-1s-0.1-0.7-0.4-0.9c-0.3-0.2-0.7-0.3-1.2-0.3h-0.9v2.5h1.1 C187.8 63.1 188.2 63 188.4 62.8z"/><path fill="#FFFFFF" d="M196.6 59.2v1.5H193v1.5h3.3v1.4H193v1.5h3.8v1.5h-5.4v-7.4H196.6z"/><path fill="#FFFFFF" d="M204 61.7c0 1.2-0.5 1.9-1.4 2.3l1.9 2.6h-2l-1.6-2.4h-1.1v2.4H198v-7.4h2.8c1.1 0 2 0.2 2.5 0.6 C203.7 60.2 204 60.8 204 61.7z M202 62.5c0.2-0.2 0.3-0.5 0.3-0.9c0-0.4-0.1-0.7-0.3-0.8c-0.2-0.1-0.6-0.2-1.1-0.2h-1.2v2.2h1.2 C201.4 62.8 201.8 62.7 202 62.5z"/><path fill="#FFFFFF" d="M147.5 68.3h1.6v7.4h-1.6l-3.5-4.6v4.6h-1.6v-7.4h1.5l3.6 4.8L147.5 68.3L147.5 68.3z"/><path fill="#FFFFFF" d="M156 68.3v1.5h-3.7v1.5h3.3v1.4h-3.3v1.5h3.8v1.5h-5.4v-7.4H156z"/><path fill="#FFFFFF" d="M160.4 69.7v6h-1.6v-6h-2.1v-1.4h5.8v1.4H160.4z"/><path fill="#FFFFFF" d="M166.1 72.6l1.3-4.2h1.7l1.3 4.2l1.5-4.2h1.8l-2.6 7.4h-1.2l-1.6-5.1l-1.6 5.1h-1.2l-2.6-7.4h1.8 L166.1 72.6z"/><path fill="#FFFFFF" d="M180.2 74.7c-0.7 0.7-1.7 1.1-2.8 1.1s-2-0.4-2.8-1.1c-0.7-0.7-1.1-1.6-1.1-2.7c0-1.1 0.4-2 1.1-2.7 c0.7-0.7 1.7-1.1 2.8-1.1s2 0.4 2.8 1.1c0.7 0.7 1.1 1.6 1.1 2.7C181.4 73 181 73.9 180.2 74.7z M179.7 72c0-0.7-0.2-1.2-0.6-1.7 c-0.4-0.5-0.9-0.7-1.6-0.7c-0.6 0-1.1 0.2-1.6 0.7c-0.4 0.5-0.6 1-0.6 1.7s0.2 1.2 0.6 1.7c0.4 0.5 0.9 0.7 1.6 0.7 c0.6 0 1.1-0.2 1.6-0.7C179.5 73.2 179.7 72.6 179.7 72z"/><path fill="#FFFFFF" d="M188.4 70.8c0 1.2-0.5 1.9-1.4 2.3l1.9 2.6h-2l-1.6-2.4h-1.1v2.4h-1.6v-7.4h2.8c1.1 0 2 0.2 2.5 0.6 C188.2 69.3 188.4 69.9 188.4 70.8z M186.4 71.6c0.2-0.2 0.3-0.5 0.3-0.9c0-0.4-0.1-0.7-0.3-0.8c-0.2-0.1-0.6-0.2-1.1-0.2h-1.2 v2.2h1.2C185.9 71.9 186.2 71.8 186.4 71.6z"/><path fill="#FFFFFF" d="M189.8 68.3h1.6v3l2.8-3h2l-2.9 3.3c0.3 0.4 0.7 1 1.4 2c0.7 1 1.2 1.7 1.5 2.1h-1.9l-2.2-2.9l-0.7 0.8 v2.1h-1.6L189.8 68.3L189.8 68.3z"/></g><g><path fill="#FFFFFF" d="M74.8 59.4L68 73.3h-3.4l-6.8-13.9v16h-5.7V50h7.7l6.5 14l6.6-14h7.6v25.4h-5.7V59.4z"/><path fill="#FFFFFF" d="M103.6 53.3c2.4 2.2 3.6 5.3 3.6 9.3c0 4-1.2 7.1-3.5 9.4c-2.4 2.3-6 3.5-10.8 3.5h-8.7V50h9 C97.7 50 101.1 51.1 103.6 53.3z M99.4 68.4c1.4-1.3 2.1-3.2 2.1-5.7c0-2.5-0.7-4.4-2.1-5.8c-1.4-1.3-3.5-2-6.4-2h-3.2v15.5h3.6 C96 70.4 98 69.8 99.4 68.4z"/><path fill="#FFFFFF" d="M128.3 50h5.7v25.4h-5.7l-12.1-15.9v15.9h-5.7V50h5.3l12.5 16.4L128.3 50L128.3 50z"/></g><linearGradient id="SVGID_11_" gradientUnits="userSpaceOnUse" x1="32" y1="-149.6" x2="32" y2="-93.2" gradientTransform="matrix(1 0 0 -1 0 133)"><stop offset="0" style="stop-color:#D5DDE4"/><stop offset="1" style="stop-color:#EAEEF0"/></linearGradient><polygon fill="url(#SVGID_11_)" points="48.1,226.2 48.1,226.2 48,226.2 48,226.2 48,226.2 32,232.6 16.1,226.2 16.1,226.2 16.1,226.2 16,226.2 16,226.2 0,232.6 0,282.6 16.1,276.5 32,282.6 32,282.6 32,282.6 32.1,282.6 32.1,282.6 48,276.5 64,282.6 64,232.6"/><g><linearGradient id="SVGID_12_" gradientUnits="userSpaceOnUse" x1="8.1" y1="-149.6" x2="8.1" y2="-93.2" gradientTransform="matrix(1 0 0 -1 0 133)"><stop offset="0" style="stop-color:#ABBECB"/><stop offset="1" style="stop-color:#DFE8EC"/></linearGradient><polygon fill="url(#SVGID_12_)" points="0,232.6 0,282.6 16.1,276.5 16.1,226.2"/><linearGradient id="SVGID_13_" gradientUnits="userSpaceOnUse" x1="24.1" y1="-149.6" x2="24.1" y2="-93.2" gradientTransform="matrix(1 0 0 -1 0 133)"><stop offset="0" style="stop-color:#D5DDE4"/><stop offset="1" style="stop-color:#EAEEF0"/></linearGradient><polygon fill="url(#SVGID_13_)" points="32.1,232.6 32.1,282.6 16,276.5 16,226.2"/><linearGradient id="SVGID_14_" gradientUnits="userSpaceOnUse" x1="40" y1="-149.6" x2="40" y2="-93.2" gradientTransform="matrix(1 0 0 -1 0 133)"><stop offset="0" style="stop-color:#ABBECB"/><stop offset="1" style="stop-color:#DFE8EC"/></linearGradient><polygon fill="url(#SVGID_14_)" points="32,232.6 32,282.6 48.1,276.5 48.1,226.2"/><linearGradient id="SVGID_15_" gradientUnits="userSpaceOnUse" x1="56" y1="-149.6" x2="56" y2="-93.2" gradientTransform="matrix(1 0 0 -1 0 133)"><stop offset="0" style="stop-color:#D5DDE4"/><stop offset="1" style="stop-color:#EAEEF0"/></linearGradient><polygon fill="url(#SVGID_15_)" points="64,232.6 64,282.6 48,276.5 48,226.2"/></g><linearGradient id="SVGID_16_" gradientUnits="userSpaceOnUse" x1="32" y1="-267" x2="32" y2="-210.5" gradientTransform="matrix(1 0 0 -1 0 133)"><stop offset="0" style="stop-color:#2075BC"/><stop offset="1" style="stop-color:#29AAE1"/></linearGradient><polygon fill="url(#SVGID_16_)" points="48,343.6 48,343.5 48,343.6 47.9,343.5 47.9,343.6 32,349.9 16.1,343.6 16.1,343.5 16,343.6 16,343.5 16,343.6 0,350 0,400 16,393.9 32,400 32,400 32,400 32,400 32,400 48,393.9 64,400 64,350"/><g><linearGradient id="SVGID_17_" gradientUnits="userSpaceOnUse" x1="8" y1="-267" x2="8" y2="-210.5" gradientTransform="matrix(1 0 0 -1 0 133)"><stop offset="0" style="stop-color:#0A6AA8"/><stop offset="1" style="stop-color:#1699C8"/></linearGradient><polygon fill="url(#SVGID_17_)" points="0,350 0,400 16.1,393.9 16.1,343.5"/><linearGradient id="SVGID_18_" gradientUnits="userSpaceOnUse" x1="24" y1="-267" x2="24" y2="-210.5" gradientTransform="matrix(1 0 0 -1 0 133)"><stop offset="0" style="stop-color:#2075BC"/><stop offset="1" style="stop-color:#29AAE1"/></linearGradient><polygon fill="url(#SVGID_18_)" points="32,350 32,400 16,393.9 16,343.5"/><linearGradient id="SVGID_19_" gradientUnits="userSpaceOnUse" x1="40" y1="-267" x2="40" y2="-210.5" gradientTransform="matrix(1 0 0 -1 0 133)"><stop offset="0" style="stop-color:#0A6AA8"/><stop offset="1" style="stop-color:#1699C8"/></linearGradient><polygon fill="url(#SVGID_19_)" points="32,350 32,400 48,393.9 48,343.5"/><linearGradient id="SVGID_20_" gradientUnits="userSpaceOnUse" x1="56" y1="-267" x2="56" y2="-210.5" gradientTransform="matrix(1 0 0 -1 0 133)"><stop offset="0" style="stop-color:#2075BC"/><stop offset="1" style="stop-color:#29AAE1"/></linearGradient><polygon fill="url(#SVGID_20_)" points="64,350 64,400 47.9,393.9 47.9,343.5"/></g></g><g id="logo_white"></g><g id="logo_color"><g><path fill="#4E4F54" d="M148.9 10.3l-2 4h-1l-2-4v4.7h-1.6V7.5h2.2l1.9 4.1l1.9-4.1h2.2v7.4h-1.6L148.9 10.3L148.9 10.3z"/><path fill="#4E4F54" d="M158.3 13.9c-0.7 0.7-1.7 1.1-2.8 1.1c-1.1 0-2-0.4-2.8-1.1c-0.7-0.7-1.1-1.6-1.1-2.7c0-1.1 0.4-2 1.1-2.7 c0.7-0.7 1.7-1.1 2.8-1.1s2 0.4 2.8 1.1c0.7 0.7 1.1 1.6 1.1 2.7C159.4 12.2 159.1 13.2 158.3 13.9z M157.7 11.2 c0-0.7-0.2-1.2-0.6-1.7c-0.4-0.5-0.9-0.7-1.6-0.7c-0.6 0-1.1 0.2-1.6 0.7c-0.4 0.5-0.6 1-0.6 1.7c0 0.7 0.2 1.2 0.6 1.7 c0.4 0.5 0.9 0.7 1.6 0.7s1.1-0.2 1.6-0.7C157.5 12.4 157.7 11.8 157.7 11.2z"/><path fill="#4E4F54" d="M159.9 14.9v-1.1l3.9-4.8H160V7.5h6v1.1l-3.9 4.8h3.9v1.4L159.9 14.9L159.9 14.9z"/><path fill="#4E4F54" d="M167.2 7.5h1.6v7.4h-1.6V7.5z"/><path fill="#4E4F54" d="M170.4 14.9V7.5h1.6v5.9h3.1v1.5H170.4z"/><path fill="#4E4F54" d="M175.9 14.9V7.5h1.6v5.9h3.1v1.5H175.9z"/><path fill="#4E4F54" d="M187.3 14.9l-0.7-1.6h-3.1l-0.7 1.6h-1.8l3.2-7.4h1.6l3.2 7.4H187.3z M185.1 9.7l-0.9 2.1h1.8L185.1 9.7z"/><path fill="#4E4F54" d="M147.9 17.6c0.7 0.6 1.1 1.5 1.1 2.7c0 1.1-0.3 2.1-1 2.7c-0.7 0.7-1.7 1-3.1 1h-2.5v-7.4h2.6 C146.2 16.6 147.2 16.9 147.9 17.6z M146.7 22c0.4-0.4 0.6-0.9 0.6-1.7c0-0.7-0.2-1.3-0.6-1.7s-1-0.6-1.9-0.6h-0.9v4.5h1 C145.7 22.5 146.3 22.4 146.7 22z"/><path fill="#4E4F54" d="M155.5 16.6v1.5h-3.7v1.5h3.3V21h-3.3v1.5h3.8V24h-5.4v-7.4H155.5z"/><path fill="#4E4F54" d="M159.7 21.3l1.9-4.7h1.8l-3 7.4H159l-3-7.4h1.8L159.7 21.3z"/><path fill="#4E4F54" d="M169.3 16.6v1.5h-3.7v1.5h3.3V21h-3.3v1.5h3.8V24h-5.4v-7.4H169.3z"/><path fill="#4E4F54" d="M170.6 24v-7.4h1.6v5.9h3.1V24C175.4 24 170.6 24 170.6 24z"/><path fill="#4E4F54" d="M182.3 23c-0.7 0.7-1.7 1.1-2.8 1.1c-1.1 0-2-0.4-2.8-1.1c-0.7-0.7-1.1-1.6-1.1-2.7c0-1.1 0.4-2 1.1-2.7 c0.7-0.7 1.7-1.1 2.8-1.1c1.1 0 2 0.4 2.8 1.1c0.7 0.7 1.1 1.6 1.1 2.7C183.4 21.3 183 22.3 182.3 23z M181.7 20.3 c0-0.7-0.2-1.2-0.6-1.7c-0.4-0.5-0.9-0.7-1.6-0.7c-0.6 0-1.1 0.2-1.6 0.7c-0.4 0.5-0.6 1-0.6 1.7c0 0.7 0.2 1.2 0.6 1.7 c0.4 0.5 0.9 0.7 1.6 0.7c0.6 0 1.1-0.2 1.6-0.7C181.5 21.5 181.7 20.9 181.7 20.3z"/><path fill="#4E4F54" d="M189.6 17.3c0.5 0.4 0.8 1.1 0.8 2c0 0.9-0.3 1.6-0.8 2s-1.3 0.6-2.4 0.6h-1V24h-1.6v-7.4h2.6 C188.2 16.6 189.1 16.8 189.6 17.3z M188.4 20.2c0.2-0.2 0.3-0.5 0.3-1s-0.1-0.7-0.4-0.9c-0.3-0.2-0.7-0.3-1.2-0.3h-0.9v2.5h1.1 C187.8 20.5 188.2 20.4 188.4 20.2z"/><path fill="#4E4F54" d="M196.6 16.6v1.5H193v1.5h3.3V21H193v1.5h3.8V24h-5.4v-7.4H196.6z"/><path fill="#4E4F54" d="M204 19.1c0 1.2-0.5 1.9-1.4 2.3l1.9 2.6h-2l-1.6-2.4h-1.1V24H198v-7.4h2.8c1.1 0 2 0.2 2.5 0.6 C203.8 17.6 204 18.2 204 19.1z M202 19.9c0.2-0.2 0.3-0.5 0.3-0.9c0-0.4-0.1-0.7-0.3-0.8c-0.2-0.1-0.6-0.2-1.1-0.2h-1.2v2.2h1.2 C201.4 20.2 201.8 20.1 202 19.9z"/><path fill="#4E4F54" d="M147.5 25.7h1.6v7.4h-1.6l-3.5-4.6v4.6h-1.6v-7.4h1.5l3.6 4.8V25.7z"/><path fill="#4E4F54" d="M156 25.7v1.5h-3.7v1.5h3.3v1.4h-3.3v1.5h3.8v1.5h-5.4v-7.4C150.6 25.7 156 25.7 156 25.7z"/><path fill="#4E4F54" d="M160.4 27.1v6h-1.6v-6h-2.1v-1.4h5.8v1.4H160.4z"/><path fill="#4E4F54" d="M166.1 30l1.3-4.2h1.7l1.3 4.2l1.5-4.2h1.8l-2.6 7.4h-1.2l-1.6-5.1l-1.6 5.1h-1.2l-2.6-7.4h1.8L166.1 30z"/><path fill="#4E4F54" d="M180.2 32.1c-0.7 0.7-1.7 1.1-2.8 1.1c-1.1 0-2-0.4-2.8-1.1c-0.7-0.7-1.1-1.6-1.1-2.7c0-1.1 0.4-2 1.1-2.7 c0.7-0.7 1.7-1.1 2.8-1.1s2 0.4 2.8 1.1c0.7 0.7 1.1 1.6 1.1 2.7C181.3 30.4 181 31.4 180.2 32.1z M179.7 29.4 c0-0.7-0.2-1.2-0.6-1.7c-0.4-0.5-0.9-0.7-1.6-0.7c-0.6 0-1.1 0.2-1.6 0.7c-0.4 0.5-0.6 1-0.6 1.7c0 0.7 0.2 1.2 0.6 1.7 c0.4 0.5 0.9 0.7 1.6 0.7s1.1-0.2 1.6-0.7C179.5 30.6 179.7 30 179.7 29.4z"/><path fill="#4E4F54" d="M188.4 28.2c0 1.2-0.5 1.9-1.4 2.3l1.9 2.6h-2l-1.6-2.4h-1.1v2.4h-1.6v-7.4h2.8c1.1 0 2 0.2 2.5 0.6 C188.2 26.7 188.4 27.3 188.4 28.2z M186.4 29c0.2-0.2 0.3-0.5 0.3-0.9c0-0.4-0.1-0.7-0.3-0.8c-0.2-0.1-0.6-0.2-1.1-0.2h-1.2v2.2 h1.2C185.9 29.3 186.2 29.2 186.4 29z"/><path fill="#4E4F54" d="M189.8 25.7h1.6v3l2.8-3h2l-2.9 3.3c0.3 0.4 0.7 1 1.4 2c0.7 1 1.2 1.7 1.5 2.2h-1.9l-2.2-2.9l-0.7 0.8 v2.1h-1.6L189.8 25.7L189.8 25.7z"/></g><g><linearGradient id="SVGID_21_" gradientUnits="userSpaceOnUse" x1="21.8" y1="95.3" x2="21.8" y2="133.8" gradientTransform="matrix(1 0 0 -1 0 134)"><stop offset="0" style="stop-color:#2075BC"/><stop offset="1" style="stop-color:#29AAE1"/></linearGradient><polygon fill="url(#SVGID_21_)" points="32.7,0.3 32.7,0.2 32.7,0.3 32.6,0.2 32.6,0.3 21.8,4.6 10.9,0.3 10.9,0.2 10.9,0.3 10.9,0.2 10.9,0.3 0,4.6 0,38.7 10.9,34.5 21.8,38.7 21.8,38.7 21.8,38.7 21.8,38.7 21.8,38.7 32.7,34.5 43.6,38.7 43.6,4.6"/><g><linearGradient id="SVGID_22_" gradientUnits="userSpaceOnUse" x1="5.5" y1="95.3" x2="5.5" y2="133.8" gradientTransform="matrix(1 0 0 -1 0 134)"><stop offset="0" style="stop-color:#0A6AA8"/><stop offset="1" style="stop-color:#1699C8"/></linearGradient><polygon fill="url(#SVGID_22_)" points="0,4.6 0,38.7 10.9,34.5 10.9,0.2"/><linearGradient id="SVGID_23_" gradientUnits="userSpaceOnUse" x1="16.3" y1="95.3" x2="16.3" y2="133.8" gradientTransform="matrix(1 0 0 -1 0 134)"><stop offset="0" style="stop-color:#2075BC"/><stop offset="1" style="stop-color:#29AAE1"/></linearGradient><polygon fill="url(#SVGID_23_)" points="21.8,4.6 21.8,38.7 10.9,34.5 10.9,0.2"/><linearGradient id="SVGID_24_" gradientUnits="userSpaceOnUse" x1="27.2" y1="95.3" x2="27.2" y2="133.8" gradientTransform="matrix(1 0 0 -1 0 134)"><stop offset="0" style="stop-color:#0A6AA8"/><stop offset="1" style="stop-color:#1699C8"/></linearGradient><polygon fill="url(#SVGID_24_)" points="21.8,4.6 21.8,38.7 32.7,34.5 32.7,0.2"/><linearGradient id="SVGID_25_" gradientUnits="userSpaceOnUse" x1="38.1" y1="95.3" x2="38.1" y2="133.8" gradientTransform="matrix(1 0 0 -1 0 134)"><stop offset="0" style="stop-color:#2075BC"/><stop offset="1" style="stop-color:#29AAE1"/></linearGradient><polygon fill="url(#SVGID_25_)" points="43.6,4.6 43.6,38.7 32.6,34.5 32.6,0.2"/></g><g><g><defs><path id="SVGID_51_" d="M37.4 20.2c-0.4-1.1-0.3-3.1-0.5-3.4c-1.3-1.7-5.9-2.1-8-4.4c0.4-1.1-0.4-2.1-1.1-2.8 c-1.1-0.8-2.7-0.5-4-0.1c-1.4-0.3-2.7-0.8-4-1.2c-3-0.3-6 1.8-6 1.8c-2.2 1.4-5.5 4.2-7.2 5.9C7 16 7.4 15.7 7.9 15.7l3.1-0.8 c-1.3 1.1-4 2.9-4.8 4.4c1-0.3 3-1.5 4-1.5C9.3 18.6 7.4 20 6.9 21c0.1 0 0 0.1 0 0.2c0.8-0.4 2.6-1.5 3.4-1.6 c-0.9 0.9-2.5 2.6-2.8 3.8c0.8-0.5 2.6-1.5 3.5-1.8c-0.2 0.5-0.6 0.8-0.9 1.3c-0.4 0.6-1.3 1.3-1.3 2.1 c0.7-0.6 1.5-1.1 2.3-1.6c-0.4 0.8-1 1.4-1.2 2.3c0.5-0.5 1.6-0.8 2.2-1L12 24.7c-0.1 0-0.8 0.6-1.4 1.2c0.5 0 0.1-0.1 0.7 0.1 l0.3 0c-0.2 0.1-0.3 0.2-0.5 0.3l0 0c-0.3 0.2-0.6 0.3-0.9 0.5c1.3 1.6 2.9 3 4.7 3.9c2.4 1.2 5 1.5 7.6 1.3 c0-0.2-0.1-0.3-0.1-0.5l0 0c0 0 0 0 0 0c0-0.2-0.1-0.4-0.2-0.5l0 0c0 0 0 0 0 0c0.9-1.7 0.4-4.5 2.7-5.6 c1.5-0.8 1.7-1.2 3.5-0.9c1 0.2 3 0.9 4 0.7c0.9-0.5 1.4-0.7 2.2-1.3c1 0.2 1.3 0.1 1.7-0.4c-0.3 0.5 0.6-1.8 1-2.6L37.4 20.2z "/></defs><clipPath id="SVGID_26_"><use xlink:href="#SVGID_51_" overflow="visible"/></clipPath><ellipse clip-path="url(#SVGID_26_)" fill="#FFFFFF" cx="21.8" cy="20.3" rx="20.2" ry="13.7"/></g><g><defs><path id="SVGID_53_" d="M37.4 20.2c-0.4-1.1-0.3-3.1-0.5-3.4c-1.3-1.7-5.9-2.1-8-4.4c0.4-1.1-0.4-2.1-1.1-2.8 c-1.1-0.8-2.7-0.5-4-0.1c-1.4-0.3-2.7-0.8-4-1.2c-3-0.3-6 1.8-6 1.8c-2.2 1.4-5.5 4.2-7.2 5.9C7 16 7.4 15.7 7.9 15.7l3.1-0.8 c-1.3 1.1-4 2.9-4.8 4.4c1-0.3 3-1.5 4-1.5C9.3 18.6 7.4 20 6.9 21c0.1 0 0 0.1 0 0.2c0.8-0.4 2.6-1.5 3.4-1.6 c-0.9 0.9-2.5 2.6-2.8 3.8c0.8-0.5 2.6-1.5 3.5-1.8c-0.2 0.5-0.6 0.8-0.9 1.3c-0.4 0.6-1.3 1.3-1.3 2.1 c0.7-0.6 1.5-1.1 2.3-1.6c-0.4 0.8-1 1.4-1.2 2.3c0.5-0.5 1.6-0.8 2.2-1L12 24.7c-0.1 0-0.8 0.6-1.4 1.2c0.5 0 0.1-0.1 0.7 0.1 l0.3 0c-0.2 0.1-0.3 0.2-0.5 0.3l0 0c-0.3 0.2-0.6 0.3-0.9 0.5c1.3 1.6 2.9 3 4.7 3.9c2.4 1.2 5 1.5 7.6 1.3 c0-0.2-0.1-0.3-0.1-0.5l0 0c0 0 0 0 0 0c0-0.2-0.1-0.4-0.2-0.5l0 0c0 0 0 0 0 0c0.9-1.7 0.4-4.5 2.7-5.6 c1.5-0.8 1.7-1.2 3.5-0.9c1 0.2 3 0.9 4 0.7c0.9-0.5 1.4-0.7 2.2-1.3c1 0.2 1.3 0.1 1.7-0.4c-0.3 0.5 0.6-1.8 1-2.6L37.4 20.2z "/></defs><clipPath id="SVGID_27_"><use xlink:href="#SVGID_53_" overflow="visible"/></clipPath><polygon clip-path="url(#SVGID_27_)" fill="#F2F2F2" points="0.3,5.3 0.3,39.6 11.1,35.4 11.1,0.9"/></g><g><defs><path id="SVGID_55_" d="M37.4 20.2c-0.4-1.1-0.3-3.1-0.5-3.4c-1.3-1.7-5.9-2.1-8-4.4c0.4-1.1-0.4-2.1-1.1-2.8 c-1.1-0.8-2.7-0.5-4-0.1c-1.4-0.3-2.7-0.8-4-1.2c-3-0.3-6 1.8-6 1.8c-2.2 1.4-5.5 4.2-7.2 5.9C7 16 7.4 15.7 7.9 15.7l3.1-0.8 c-1.3 1.1-4 2.9-4.8 4.4c1-0.3 3-1.5 4-1.5C9.3 18.6 7.4 20 6.9 21c0.1 0 0 0.1 0 0.2c0.8-0.4 2.6-1.5 3.4-1.6 c-0.9 0.9-2.5 2.6-2.8 3.8c0.8-0.5 2.6-1.5 3.5-1.8c-0.2 0.5-0.6 0.8-0.9 1.3c-0.4 0.6-1.3 1.3-1.3 2.1 c0.7-0.6 1.5-1.1 2.3-1.6c-0.4 0.8-1 1.4-1.2 2.3c0.5-0.5 1.6-0.8 2.2-1L12 24.7c-0.1 0-0.8 0.6-1.4 1.2c0.5 0 0.1-0.1 0.7 0.1 l0.3 0c-0.2 0.1-0.3 0.2-0.5 0.3l0 0c-0.3 0.2-0.6 0.3-0.9 0.5c1.3 1.6 2.9 3 4.7 3.9c2.4 1.2 5 1.5 7.6 1.3 c0-0.2-0.1-0.3-0.1-0.5l0 0c0 0 0 0 0 0c0-0.2-0.1-0.4-0.2-0.5l0 0c0 0 0 0 0 0c0.9-1.7 0.4-4.5 2.7-5.6 c1.5-0.8 1.7-1.2 3.5-0.9c1 0.2 3 0.9 4 0.7c0.9-0.5 1.4-0.7 2.2-1.3c1 0.2 1.3 0.1 1.7-0.4c-0.3 0.5 0.6-1.8 1-2.6L37.4 20.2z "/></defs><clipPath id="SVGID_28_"><use xlink:href="#SVGID_55_" overflow="visible"/></clipPath><polygon clip-path="url(#SVGID_28_)" fill="#FFFFFF" points="21.9,5.3 21.9,39.6 11.1,35.4 11.1,0.9"/></g><g><defs><path id="SVGID_57_" d="M37.4 20.2c-0.4-1.1-0.3-3.1-0.5-3.4c-1.3-1.7-5.9-2.1-8-4.4c0.4-1.1-0.4-2.1-1.1-2.8 c-1.1-0.8-2.7-0.5-4-0.1c-1.4-0.3-2.7-0.8-4-1.2c-3-0.3-6 1.8-6 1.8c-2.2 1.4-5.5 4.2-7.2 5.9C7 16 7.4 15.7 7.9 15.7l3.1-0.8 c-1.3 1.1-4 2.9-4.8 4.4c1-0.3 3-1.5 4-1.5C9.3 18.6 7.4 20 6.9 21c0.1 0 0 0.1 0 0.2c0.8-0.4 2.6-1.5 3.4-1.6 c-0.9 0.9-2.5 2.6-2.8 3.8c0.8-0.5 2.6-1.5 3.5-1.8c-0.2 0.5-0.6 0.8-0.9 1.3c-0.4 0.6-1.3 1.3-1.3 2.1 c0.7-0.6 1.5-1.1 2.3-1.6c-0.4 0.8-1 1.4-1.2 2.3c0.5-0.5 1.6-0.8 2.2-1L12 24.7c-0.1 0-0.8 0.6-1.4 1.2c0.5 0 0.1-0.1 0.7 0.1 l0.3 0c-0.2 0.1-0.3 0.2-0.5 0.3l0 0c-0.3 0.2-0.6 0.3-0.9 0.5c1.3 1.6 2.9 3 4.7 3.9c2.4 1.2 5 1.5 7.6 1.3 c0-0.2-0.1-0.3-0.1-0.5l0 0c0 0 0 0 0 0c0-0.2-0.1-0.4-0.2-0.5l0 0c0 0 0 0 0 0c0.9-1.7 0.4-4.5 2.7-5.6 c1.5-0.8 1.7-1.2 3.5-0.9c1 0.2 3 0.9 4 0.7c0.9-0.5 1.4-0.7 2.2-1.3c1 0.2 1.3 0.1 1.7-0.4c-0.3 0.5 0.6-1.8 1-2.6L37.4 20.2z "/></defs><clipPath id="SVGID_29_"><use xlink:href="#SVGID_57_" overflow="visible"/></clipPath><polygon clip-path="url(#SVGID_29_)" fill="#F2F2F2" points="21.8,5.3 21.8,39.6 32.7,35.4 32.7,0.9"/></g><g><defs><path id="SVGID_59_" d="M37.4 20.2c-0.4-1.1-0.3-3.1-0.5-3.4c-1.3-1.7-5.9-2.1-8-4.4c0.4-1.1-0.4-2.1-1.1-2.8 c-1.1-0.8-2.7-0.5-4-0.1c-1.4-0.3-2.7-0.8-4-1.2c-3-0.3-6 1.8-6 1.8c-2.2 1.4-5.5 4.2-7.2 5.9C7 16 7.4 15.7 7.9 15.7l3.1-0.8 c-1.3 1.1-4 2.9-4.8 4.4c1-0.3 3-1.5 4-1.5C9.3 18.6 7.4 20 6.9 21c0.1 0 0 0.1 0 0.2c0.8-0.4 2.6-1.5 3.4-1.6 c-0.9 0.9-2.5 2.6-2.8 3.8c0.8-0.5 2.6-1.5 3.5-1.8c-0.2 0.5-0.6 0.8-0.9 1.3c-0.4 0.6-1.3 1.3-1.3 2.1 c0.7-0.6 1.5-1.1 2.3-1.6c-0.4 0.8-1 1.4-1.2 2.3c0.5-0.5 1.6-0.8 2.2-1L12 24.7c-0.1 0-0.8 0.6-1.4 1.2c0.5 0 0.1-0.1 0.7 0.1 l0.3 0c-0.2 0.1-0.3 0.2-0.5 0.3l0 0c-0.3 0.2-0.6 0.3-0.9 0.5c1.3 1.6 2.9 3 4.7 3.9c2.4 1.2 5 1.5 7.6 1.3 c0-0.2-0.1-0.3-0.1-0.5l0 0c0 0 0 0 0 0c0-0.2-0.1-0.4-0.2-0.5l0 0c0 0 0 0 0 0c0.9-1.7 0.4-4.5 2.7-5.6 c1.5-0.8 1.7-1.2 3.5-0.9c1 0.2 3 0.9 4 0.7c0.9-0.5 1.4-0.7 2.2-1.3c1 0.2 1.3 0.1 1.7-0.4c-0.3 0.5 0.6-1.8 1-2.6L37.4 20.2z "/></defs><clipPath id="SVGID_30_"><use xlink:href="#SVGID_59_" overflow="visible"/></clipPath><polygon clip-path="url(#SVGID_30_)" fill="#FFFFFF" points="43.4,5.3 43.4,39.6 32.6,35.4 32.6,0.9"/></g></g></g><g><path fill="#4E4F54" d="M74.7 17l-6.9 13.9h-3.4L57.6 17v16h-5.7V7.6h7.7l6.6 14l6.6-14h7.6v25.4h-5.7L74.7 17L74.7 17z"/><path fill="#4E4F54" d="M103.5 10.9c2.4 2.2 3.6 5.3 3.6 9.3c0 4-1.2 7.1-3.5 9.4c-2.4 2.3-6 3.5-10.8 3.5h-8.7V7.6h9 C97.6 7.6 101.1 8.7 103.5 10.9z M99.3 26.1c1.4-1.3 2.1-3.2 2.1-5.7c0-2.5-0.7-4.4-2.1-5.8c-1.4-1.3-3.5-2-6.4-2h-3.2V28h3.6 C95.9 28 97.9 27.4 99.3 26.1z"/><path fill="#4E4F54" d="M128.2 7.6h5.7v25.4h-5.7l-12.1-15.9v15.9h-5.7V7.6h5.3L128.2 24V7.6z"/></g></g></svg>