<?xml version="1.0" encoding="utf-8"?>
<!-- Generator: Adobe Illustrator 17.0.0, SVG Export Plug-In . SVG Version: 6.00 Build 0)  -->
<!DOCTYPE svg PUBLIC "-//W3C//DTD SVG 1.1//EN" "http://www.w3.org/Graphics/SVG/1.1/DTD/svg11.dtd">
<svg version="1.1" id="Layer_1" xmlns="http://www.w3.org/2000/svg" xmlns:xlink="http://www.w3.org/1999/xlink" x="0px" y="0px"
	 width="216px" height="54px" viewBox="0 0 216 54" enable-background="new 0 0 216 54" xml:space="preserve">
<g>
	<path fill="#4D4E53" d="M154.398,17.307l-1.992,4.025h-0.98l-1.981-4.025v4.637h-1.644v-7.366h2.223l1.897,4.047l1.907-4.047h2.213
		v7.366h-1.644V17.307z"/>
	<path fill="#4D4E53" d="M163.763,20.927c-0.745,0.727-1.662,1.091-2.75,1.091c-1.089,0-2.006-0.364-2.75-1.091
		c-0.745-0.727-1.117-1.632-1.117-2.713c0-1.082,0.372-1.986,1.117-2.713c0.745-0.727,1.661-1.091,2.75-1.091
		c1.089,0,2.006,0.364,2.75,1.091c0.745,0.727,1.117,1.632,1.117,2.713C164.88,19.296,164.508,20.2,163.763,20.927z M163.205,18.219
		c0-0.657-0.211-1.217-0.632-1.681c-0.421-0.464-0.94-0.695-1.554-0.695c-0.615,0-1.133,0.232-1.554,0.695
		c-0.421,0.464-0.632,1.024-0.632,1.681c0,0.657,0.211,1.215,0.632,1.676c0.421,0.46,0.939,0.69,1.554,0.69
		c0.615,0,1.133-0.23,1.554-0.69C162.994,19.434,163.205,18.876,163.205,18.219z"/>
	<path fill="#4D4E53" d="M165.321,21.944v-1.128l3.857-4.816h-3.73v-1.423h5.975v1.138l-3.846,4.795h3.91v1.433H165.321z"/>
	<path fill="#4D4E53" d="M172.63,14.578h1.644v7.366h-1.644V14.578z"/>
	<path fill="#4D4E53" d="M175.801,21.944v-7.366h1.644v5.901h3.14v1.465H175.801z"/>
	<path fill="#4D4E53" d="M181.346,21.944v-7.366h1.644v5.901h3.14v1.465H181.346z"/>
	<path fill="#4D4E53" d="M192.668,21.944l-0.685-1.591h-3.088l-0.685,1.591h-1.749l3.182-7.366h1.591l3.182,7.366H192.668z
		 M190.445,16.77l-0.927,2.139h1.844L190.445,16.77z"/>
	<path fill="#4D4E53" d="M153.429,24.616c0.702,0.643,1.054,1.537,1.054,2.682c0,1.145-0.342,2.051-1.027,2.719
		c-0.685,0.667-1.73,1.001-3.135,1.001h-2.519v-7.366h2.603C151.718,23.652,152.727,23.974,153.429,24.616z M152.223,28.995
		c0.404-0.379,0.606-0.931,0.606-1.654c0-0.723-0.202-1.28-0.606-1.67c-0.404-0.39-1.024-0.585-1.86-0.585h-0.917v4.479h1.043
		C151.241,29.564,151.818,29.374,152.223,28.995z"/>
	<path fill="#4D4E53" d="M160.934,23.652v1.465h-3.667v1.517h3.298v1.402h-3.298v1.528h3.783v1.454h-5.427v-7.366H160.934z"/>
	<path fill="#4D4E53" d="M165.107,28.342l1.876-4.689h1.781l-2.961,7.366h-1.391l-2.961-7.366h1.781L165.107,28.342z"/>
	<path fill="#4D4E53" d="M174.695,23.652v1.465h-3.667v1.517h3.298v1.402h-3.298v1.528h3.783v1.454h-5.427v-7.366H174.695z"/>
	<path fill="#4D4E53" d="M176.049,31.018v-7.366h1.644v5.901h3.14v1.465H176.049z"/>
	<path fill="#4D4E53" d="M187.676,30.001c-0.745,0.727-1.662,1.091-2.75,1.091c-1.089,0-2.006-0.364-2.75-1.091
		c-0.745-0.727-1.117-1.632-1.117-2.713c0-1.082,0.372-1.986,1.117-2.713c0.745-0.727,1.661-1.091,2.75-1.091
		c1.089,0,2.006,0.364,2.75,1.091c0.745,0.727,1.117,1.632,1.117,2.713C188.793,28.37,188.42,29.274,187.676,30.001z
		 M187.117,27.293c0-0.657-0.211-1.217-0.632-1.681c-0.421-0.464-0.94-0.695-1.554-0.695c-0.615,0-1.133,0.232-1.554,0.695
		c-0.421,0.464-0.632,1.024-0.632,1.681c0,0.657,0.211,1.215,0.632,1.676c0.421,0.46,0.939,0.69,1.554,0.69
		c0.615,0,1.133-0.23,1.554-0.69C186.906,28.509,187.117,27.95,187.117,27.293z"/>
	<path fill="#4D4E53" d="M194.952,24.311c0.516,0.439,0.775,1.114,0.775,2.023c0,0.91-0.265,1.575-0.796,1.997
		c-0.531,0.422-1.34,0.632-2.429,0.632h-0.98v2.055h-1.644v-7.366h2.603C193.612,23.652,194.436,23.872,194.952,24.311z
		 M193.745,27.209c0.197-0.221,0.295-0.544,0.295-0.969c0-0.425-0.128-0.727-0.385-0.906c-0.257-0.179-0.655-0.269-1.196-0.269
		h-0.938v2.476h1.107C193.176,27.541,193.549,27.43,193.745,27.209z"/>
	<path fill="#4D4E53" d="M201.997,23.652v1.465h-3.667v1.517h3.298v1.402h-3.298v1.528h3.783v1.454h-5.427v-7.366H201.997z"/>
	<path fill="#4D4E53" d="M209.326,26.097c0,1.18-0.467,1.943-1.401,2.287l1.865,2.634h-2.023l-1.633-2.35h-1.138v2.35h-1.644v-7.366
		h2.793c1.145,0,1.962,0.193,2.45,0.58C209.082,24.618,209.326,25.24,209.326,26.097z M207.345,26.972
		c0.204-0.183,0.306-0.472,0.306-0.869c0-0.397-0.105-0.669-0.316-0.817c-0.211-0.148-0.58-0.221-1.107-0.221h-1.233v2.181h1.201
		C206.758,27.246,207.141,27.154,207.345,26.972z"/>
	<path fill="#4D4E53" d="M152.955,32.726h1.644v7.366h-1.644l-3.509-4.616v4.616h-1.644v-7.366h1.538l3.615,4.742V32.726z"/>
	<path fill="#4D4E53" d="M161.435,32.726v1.465h-3.667v1.517h3.298v1.402h-3.298v1.528h3.783v1.454h-5.427v-7.366H161.435z"/>
	<path fill="#4D4E53" d="M165.829,34.149v5.943h-1.644v-5.943h-2.087v-1.423h5.817v1.423H165.829z"/>
	<path fill="#4D4E53" d="M171.496,36.963l1.307-4.236h1.718l1.296,4.236l1.465-4.236h1.781l-2.571,7.366h-1.222l-1.612-5.121
		l-1.602,5.121h-1.222l-2.571-7.366h1.781L171.496,36.963z"/>
	<path fill="#4D4E53" d="M185.623,39.076c-0.745,0.727-1.662,1.091-2.75,1.091c-1.089,0-2.006-0.364-2.75-1.091
		c-0.745-0.727-1.117-1.632-1.117-2.713c0-1.082,0.372-1.986,1.117-2.713c0.745-0.727,1.661-1.091,2.75-1.091
		c1.089,0,2.006,0.364,2.75,1.091c0.745,0.727,1.117,1.632,1.117,2.713C186.74,37.444,186.367,38.348,185.623,39.076z
		 M185.064,36.367c0-0.657-0.211-1.217-0.632-1.681c-0.421-0.464-0.94-0.695-1.554-0.695c-0.615,0-1.133,0.232-1.554,0.695
		c-0.421,0.464-0.632,1.024-0.632,1.681c0,0.657,0.211,1.215,0.632,1.676c0.421,0.46,0.939,0.69,1.554,0.69
		c0.615,0,1.133-0.23,1.554-0.69C184.854,37.583,185.064,37.024,185.064,36.367z"/>
	<path fill="#4D4E53" d="M193.8,35.171c0,1.18-0.467,1.943-1.401,2.287l1.865,2.634h-2.023l-1.633-2.35h-1.138v2.35h-1.644v-7.366
		h2.793c1.145,0,1.962,0.193,2.45,0.58C193.556,33.692,193.8,34.314,193.8,35.171z M191.819,36.046
		c0.204-0.183,0.306-0.472,0.306-0.869c0-0.397-0.105-0.669-0.316-0.817c-0.211-0.148-0.58-0.221-1.107-0.221h-1.233v2.181h1.201
		C191.232,36.32,191.615,36.229,191.819,36.046z"/>
	<path fill="#4D4E53" d="M195.131,32.726h1.644v3.024l2.782-3.024h2.034l-2.93,3.256c0.253,0.351,0.72,1.006,1.402,1.965
		c0.681,0.959,1.191,1.674,1.528,2.144h-1.918l-2.16-2.908l-0.738,0.822v2.086h-1.644V32.726z"/>
</g>
<g>
	<linearGradient id="SVGID_1_" gradientUnits="userSpaceOnUse" x1="27.6456" y1="45.6694" x2="27.6456" y2="7.3335">
		<stop  offset="0" style="stop-color:#1C75BC"/>
		<stop  offset="1" style="stop-color:#27AAE1"/>
	</linearGradient>
	<polygon fill="url(#SVGID_1_)" points="38.523,7.354 38.523,7.333 38.496,7.344 38.47,7.333 38.47,7.354 27.646,11.681 
		16.821,7.354 16.821,7.333 16.795,7.344 16.769,7.333 16.769,7.354 5.918,11.692 5.918,45.669 16.795,41.509 27.62,45.65 
		27.62,45.669 27.646,45.66 27.672,45.669 27.672,45.65 38.496,41.509 49.373,45.669 49.373,11.692 	"/>
	<g>
		<linearGradient id="SVGID_2_" gradientUnits="userSpaceOnUse" x1="11.3696" y1="45.6694" x2="11.3696" y2="7.3335">
			<stop  offset="0" style="stop-color:#0469A7"/>
			<stop  offset="1" style="stop-color:#1599C8"/>
		</linearGradient>
		<polygon fill="url(#SVGID_2_)" points="5.918,11.692 5.918,45.669 16.821,41.499 16.821,7.333 		"/>
		<linearGradient id="SVGID_3_" gradientUnits="userSpaceOnUse" x1="22.2201" y1="45.6694" x2="22.2201" y2="7.3335">
			<stop  offset="0" style="stop-color:#1C75BC"/>
			<stop  offset="1" style="stop-color:#27AAE1"/>
		</linearGradient>
		<polygon fill="url(#SVGID_3_)" points="27.671,11.692 27.671,45.669 16.769,41.499 16.769,7.333 		"/>
		<linearGradient id="SVGID_4_" gradientUnits="userSpaceOnUse" x1="33.0712" y1="45.6694" x2="33.0712" y2="7.3335">
			<stop  offset="0" style="stop-color:#0469A7"/>
			<stop  offset="1" style="stop-color:#1599C8"/>
		</linearGradient>
		<polygon fill="url(#SVGID_4_)" points="27.62,11.692 27.62,45.669 38.522,41.499 38.522,7.333 		"/>
		<linearGradient id="SVGID_5_" gradientUnits="userSpaceOnUse" x1="43.9217" y1="45.6694" x2="43.9217" y2="7.3335">
			<stop  offset="0" style="stop-color:#1C75BC"/>
			<stop  offset="1" style="stop-color:#27AAE1"/>
		</linearGradient>
		<polygon fill="url(#SVGID_5_)" points="49.373,11.692 49.373,45.669 38.471,41.499 38.471,7.333 		"/>
	</g>
	<g>
		<defs>
			<path id="SVGID_6_" d="M43.227,27.201c-0.382-1.143-0.273-3.095-0.468-3.377c-1.271-1.744-5.907-2.052-7.989-4.35
				c0.366-1.13-0.378-2.069-1.138-2.784c-1.142-0.832-2.73-0.465-3.955-0.132c-1.39-0.295-2.677-0.792-4.03-1.188
				c-3.014-0.329-6.002,1.799-6.002,1.799c-2.151,1.366-5.526,4.198-7.142,5.852c0.395,0.057,0.816-0.241,1.262-0.295l3.09-0.802
				c-1.289,1.064-3.998,2.934-4.789,4.418c0.965-0.331,2.994-1.451,3.998-1.536c-0.883,0.779-2.723,2.255-3.304,3.197
				c0.069,0.034,0.02,0.116,0.03,0.174c0.757-0.417,2.599-1.508,3.431-1.577c-0.863,0.894-2.449,2.617-2.803,3.775
				c0.748-0.489,2.625-1.477,3.445-1.775c-0.189,0.457-0.606,0.794-0.877,1.25c-0.376,0.632-1.258,1.346-1.297,2.1
				c0.657-0.61,1.469-1.145,2.284-1.572c-0.368,0.758-1.038,1.384-1.226,2.289c0.536-0.518,1.547-0.782,2.234-1.019l-0.083,0.08
				c-0.059,0.049-0.837,0.598-1.366,1.212c0.468-0.027,0.12-0.085,0.717,0.051l0.324,0.017c-0.161,0.084-0.338,0.177-0.524,0.276v0
				c-0.288,0.153-0.599,0.32-0.913,0.491c1.284,1.64,2.878,2.955,4.709,3.848c2.384,1.163,4.984,1.543,7.585,1.247
				c-0.031-0.153-0.066-0.305-0.105-0.456l0,0c0-0.001,0-0.002-0.001-0.003c-0.048-0.184-0.103-0.366-0.169-0.545l0,0
				c-0.003-0.01-0.007-0.02-0.01-0.029c0.89-1.653,0.422-4.485,2.701-5.621c1.533-0.781,1.708-1.212,3.47-0.876
				c0.952,0.182,3.031,0.9,4.031,0.685c0.908-0.503,1.364-0.733,2.147-1.318c0.98,0.178,1.298,0.078,1.659-0.441
				c-0.327,0.453,0.635-1.773,1.042-2.612L43.227,27.201z"/>
		</defs>
		<clipPath id="SVGID_7_">
			<use xlink:href="#SVGID_6_"  overflow="visible"/>
		</clipPath>
		<ellipse clip-path="url(#SVGID_7_)" fill="#FFFFFF" cx="27.616" cy="27.352" rx="20.177" ry="13.685"/>
		<polygon clip-path="url(#SVGID_7_)" fill="#F1F2F2" points="6.205,12.363 6.205,46.61 16.995,42.407 16.995,7.97 		"/>
		<polygon clip-path="url(#SVGID_7_)" fill="#FFFFFF" points="27.735,12.363 27.735,46.61 16.944,42.407 16.944,7.97 		"/>
		<polygon clip-path="url(#SVGID_7_)" fill="#F1F2F2" points="27.684,12.363 27.684,46.61 38.475,42.407 38.475,7.97 		"/>
		<polygon clip-path="url(#SVGID_7_)" fill="#FFFFFF" points="49.214,12.363 49.214,46.61 38.423,42.407 38.423,7.97 		"/>
	</g>
</g>
<g>
	<path fill="#4D4E53" d="M80.421,24.073l-6.858,13.862h-3.375l-6.822-13.862V40.04h-5.661V14.674h7.657l6.532,13.935l6.568-13.935
		h7.621V40.04h-5.661V24.073z"/>
	<path fill="#4D4E53" d="M109.106,17.994c2.419,2.214,3.629,5.292,3.629,9.235c0,3.944-1.179,7.064-3.538,9.362
		c-2.359,2.299-5.957,3.447-10.796,3.447h-8.673V14.674h8.963C103.215,14.674,106.687,15.781,109.106,17.994z M104.951,33.072
		c1.39-1.306,2.086-3.205,2.086-5.697c0-2.491-0.696-4.409-2.086-5.752c-1.392-1.343-3.527-2.014-6.405-2.014h-3.157v15.422h3.593
		C101.57,35.032,103.56,34.379,104.951,33.072z"/>
	<path fill="#4D4E53" d="M133.77,14.674h5.661V40.04h-5.661l-12.084-15.894V40.04h-5.661V14.674h5.298l12.447,16.33V14.674z"/>
</g>
</svg>
