<?xml version="1.0" encoding="utf-8"?>
<!-- Generator: Adobe Illustrator 17.0.0, SVG Export Plug-In . SVG Version: 6.00 Build 0)  -->
<!DOCTYPE svg PUBLIC "-//W3C//DTD SVG 1.1//EN" "http://www.w3.org/Graphics/SVG/1.1/DTD/svg11.dtd">
<svg version="1.1" id="Layer_1" xmlns="http://www.w3.org/2000/svg" xmlns:xlink="http://www.w3.org/1999/xlink" x="0px" y="0px"
	 width="216px" height="54px" viewBox="0 0 216 54" enable-background="new 0 0 216 54" xml:space="preserve">
<path fill="#FFFFFF" d="M38.394,7.377V7.356l-0.026,0.01l-0.026-0.01v0.021l-10.898,4.357L16.545,7.377V7.356l-0.026,0.01
	l-0.026-0.01v0.021L5.568,11.744v34.208l10.95-4.189l10.899,4.169v0.02l0.026-0.01l0.026,0.01v-0.02l10.899-4.169l10.95,4.189
	V11.744L38.394,7.377z M42.563,27.292c-0.405,0.835-1.362,3.052-1.037,2.601c-0.359,0.517-0.675,0.616-1.652,0.439
	c-0.78,0.582-1.234,0.812-2.138,1.312c-0.995,0.213-3.066-0.502-4.014-0.682c-1.755-0.334-1.929,0.095-3.455,0.873
	c-2.269,1.131-1.803,3.951-2.689,5.597c0.003,0.01,0.007,0.019,0.01,0.029h0c0.065,0.178,0.12,0.36,0.168,0.543
	c0,0.001,0,0.002,0.001,0.003l0,0c0.039,0.15,0.074,0.301,0.104,0.454c-2.59,0.295-5.179-0.084-7.553-1.241
	c-1.823-0.889-3.41-2.199-4.689-3.832c0.313-0.171,0.622-0.337,0.909-0.489l0,0c0.185-0.098,0.361-0.191,0.522-0.275l-0.323-0.017
	c-0.595-0.136-0.248-0.078-0.714-0.051c0.527-0.612,1.301-1.158,1.36-1.207l0.083-0.08c-0.684,0.235-1.691,0.498-2.224,1.014
	c0.187-0.901,0.854-1.524,1.221-2.279c-0.812,0.425-1.621,0.958-2.274,1.566c0.039-0.75,0.917-1.462,1.292-2.091
	c0.27-0.455,0.685-0.79,0.874-1.245c-0.817,0.297-2.686,1.281-3.43,1.768c0.352-1.154,1.932-2.869,2.791-3.759
	c-0.829,0.069-2.662,1.155-3.416,1.57c-0.01-0.058,0.038-0.139-0.031-0.173c0.579-0.939,2.41-2.409,3.29-3.184
	c-1,0.085-3.02,1.2-3.981,1.53c0.787-1.478,3.485-3.34,4.768-4.4l-3.077,0.799c-0.444,0.053-0.863,0.35-1.257,0.294
	c1.609-1.647,4.97-4.468,7.112-5.827c0,0,2.976-2.119,5.977-1.791c1.348,0.395,2.628,0.89,4.013,1.183
	c1.22-0.332,2.801-0.697,3.939,0.131c0.757,0.712,1.498,1.647,1.133,2.773c2.074,2.288,6.69,2.594,7.956,4.332
	c0.194,0.281,0.086,2.224,0.466,3.363L42.563,27.292z"/>
<g>
	<path fill="#FFFFFF" d="M154.09,18.931l-1.99,4.022h-0.979l-1.979-4.022v4.632H147.5v-7.359h2.221l1.895,4.043l1.906-4.043h2.211
		v7.359h-1.643V18.931z"/>
	<path fill="#FFFFFF" d="M163.446,22.547c-0.744,0.726-1.66,1.09-2.748,1.09c-1.088,0-2.004-0.363-2.748-1.09
		c-0.744-0.726-1.116-1.63-1.116-2.711c0-1.081,0.372-1.985,1.116-2.711c0.744-0.726,1.66-1.09,2.748-1.09
		c1.088,0,2.004,0.363,2.748,1.09c0.744,0.726,1.116,1.63,1.116,2.711C164.562,20.917,164.19,21.821,163.446,22.547z
		 M162.888,19.841c0-0.656-0.21-1.216-0.632-1.679c-0.421-0.463-0.939-0.695-1.553-0.695c-0.614,0-1.132,0.232-1.553,0.695
		c-0.421,0.463-0.632,1.023-0.632,1.679c0,0.656,0.211,1.214,0.632,1.674c0.421,0.46,0.939,0.69,1.553,0.69
		c0.614,0,1.132-0.23,1.553-0.69C162.678,21.056,162.888,20.498,162.888,19.841z"/>
	<path fill="#FFFFFF" d="M165.002,23.563v-1.127l3.853-4.811h-3.727v-1.421h5.97v1.137l-3.843,4.79h3.906v1.432H165.002z"/>
	<path fill="#FFFFFF" d="M172.305,16.204h1.642v7.359h-1.642V16.204z"/>
	<path fill="#FFFFFF" d="M175.472,23.563v-7.359h1.642V22.1h3.137v1.463H175.472z"/>
	<path fill="#FFFFFF" d="M181.013,23.563v-7.359h1.642V22.1h3.137v1.463H181.013z"/>
	<path fill="#FFFFFF" d="M192.324,23.563l-0.684-1.59h-3.085l-0.684,1.59h-1.748l3.179-7.359h1.59l3.18,7.359H192.324z
		 M190.103,18.394l-0.927,2.137h1.842L190.103,18.394z"/>
	<path fill="#FFFFFF" d="M153.122,26.233c0.702,0.642,1.053,1.535,1.053,2.679c0,1.144-0.342,2.049-1.026,2.716
		c-0.684,0.667-1.728,1-3.132,1H147.5V25.27h2.6C151.412,25.27,152.42,25.591,153.122,26.233z M151.916,30.608
		c0.403-0.379,0.605-0.93,0.605-1.653c0-0.723-0.202-1.279-0.605-1.669c-0.404-0.389-1.023-0.584-1.858-0.584h-0.916v4.474h1.042
		C150.935,31.176,151.512,30.986,151.916,30.608z"/>
	<path fill="#FFFFFF" d="M160.62,25.27v1.463h-3.664v1.516h3.295v1.4h-3.295v1.527h3.78v1.453h-5.422V25.27H160.62z"/>
	<path fill="#FFFFFF" d="M164.788,29.955l1.874-4.685h1.779l-2.958,7.359h-1.39l-2.958-7.359h1.779L164.788,29.955z"/>
	<path fill="#FFFFFF" d="M174.368,25.27v1.463h-3.664v1.516H174v1.4h-3.295v1.527h3.78v1.453h-5.422V25.27H174.368z"/>
	<path fill="#FFFFFF" d="M175.721,32.629V25.27h1.642v5.896h3.137v1.463H175.721z"/>
	<path fill="#FFFFFF" d="M187.336,31.613c-0.744,0.726-1.66,1.09-2.748,1.09c-1.088,0-2.004-0.363-2.748-1.09
		c-0.744-0.727-1.116-1.63-1.116-2.711c0-1.081,0.372-1.985,1.116-2.711c0.744-0.726,1.66-1.09,2.748-1.09
		c1.088,0,2.004,0.363,2.748,1.09c0.744,0.726,1.116,1.63,1.116,2.711C188.452,29.983,188.08,30.886,187.336,31.613z
		 M186.778,28.907c0-0.656-0.21-1.216-0.632-1.679c-0.421-0.463-0.939-0.695-1.553-0.695c-0.614,0-1.132,0.232-1.553,0.695
		c-0.421,0.463-0.632,1.023-0.632,1.679c0,0.656,0.211,1.214,0.632,1.674c0.421,0.46,0.939,0.69,1.553,0.69
		c0.614,0,1.132-0.23,1.553-0.69C186.568,30.122,186.778,29.564,186.778,28.907z"/>
	<path fill="#FFFFFF" d="M194.606,25.928c0.516,0.439,0.774,1.113,0.774,2.021c0,0.909-0.265,1.574-0.795,1.995
		c-0.53,0.421-1.339,0.632-2.427,0.632h-0.979v2.053h-1.642V25.27h2.6C193.267,25.27,194.09,25.489,194.606,25.928z M193.4,28.823
		c0.196-0.221,0.295-0.544,0.295-0.969c0-0.425-0.128-0.726-0.384-0.906c-0.256-0.179-0.655-0.268-1.195-0.268h-0.937v2.474h1.106
		C192.832,29.155,193.204,29.044,193.4,28.823z"/>
	<path fill="#FFFFFF" d="M201.645,25.27v1.463h-3.664v1.516h3.295v1.4h-3.295v1.527h3.78v1.453h-5.422V25.27H201.645z"/>
	<path fill="#FFFFFF" d="M208.967,27.712c0,1.179-0.467,1.941-1.4,2.285l1.863,2.632h-2.021l-1.632-2.348h-1.137v2.348h-1.642V25.27
		h2.79c1.144,0,1.96,0.193,2.448,0.579C208.723,26.235,208.967,26.856,208.967,27.712z M206.988,28.586
		c0.203-0.183,0.305-0.472,0.305-0.869c0-0.396-0.105-0.668-0.316-0.816c-0.211-0.147-0.579-0.221-1.105-0.221h-1.232v2.179h1.2
		C206.402,28.86,206.784,28.769,206.988,28.586z"/>
	<path fill="#FFFFFF" d="M152.648,34.336h1.642v7.359h-1.642l-3.506-4.611v4.611H147.5v-7.359h1.537l3.611,4.738V34.336z"/>
	<path fill="#FFFFFF" d="M161.12,34.336v1.463h-3.664v1.516h3.295v1.4h-3.295v1.527h3.78v1.453h-5.422v-7.359H161.12z"/>
	<path fill="#FFFFFF" d="M165.51,35.757v5.938h-1.642v-5.938h-2.085v-1.421h5.811v1.421H165.51z"/>
	<path fill="#FFFFFF" d="M171.171,38.568l1.306-4.232h1.716l1.295,4.232l1.463-4.232h1.779l-2.569,7.359h-1.221l-1.611-5.117
		l-1.6,5.117h-1.221l-2.569-7.359h1.779L171.171,38.568z"/>
	<path fill="#FFFFFF" d="M185.286,40.679c-0.744,0.726-1.66,1.09-2.748,1.09c-1.088,0-2.004-0.363-2.748-1.09
		c-0.744-0.726-1.116-1.63-1.116-2.711c0-1.081,0.372-1.985,1.116-2.711c0.744-0.726,1.66-1.09,2.748-1.09
		c1.088,0,2.004,0.363,2.748,1.09c0.744,0.726,1.116,1.63,1.116,2.711C186.402,39.049,186.029,39.952,185.286,40.679z
		 M184.727,37.973c0-0.656-0.21-1.216-0.632-1.679c-0.421-0.463-0.939-0.695-1.553-0.695c-0.614,0-1.132,0.232-1.553,0.695
		c-0.421,0.463-0.632,1.023-0.632,1.679c0,0.656,0.211,1.214,0.632,1.674c0.421,0.46,0.939,0.69,1.553,0.69
		c0.614,0,1.132-0.23,1.553-0.69C184.517,39.187,184.727,38.629,184.727,37.973z"/>
	<path fill="#FFFFFF" d="M193.455,36.778c0,1.179-0.467,1.941-1.4,2.285l1.863,2.632h-2.021l-1.632-2.348h-1.137v2.348h-1.642
		v-7.359h2.79c1.144,0,1.96,0.193,2.448,0.579C193.211,35.301,193.455,35.922,193.455,36.778z M191.476,37.652
		c0.203-0.182,0.305-0.472,0.305-0.869c0-0.396-0.105-0.669-0.316-0.816c-0.211-0.147-0.579-0.221-1.105-0.221h-1.232v2.179h1.2
		C190.89,37.926,191.272,37.835,191.476,37.652z"/>
	<path fill="#FFFFFF" d="M194.785,34.336h1.642v3.022l2.779-3.022h2.032l-2.927,3.253c0.253,0.351,0.719,1.005,1.4,1.964
		c0.681,0.958,1.19,1.672,1.527,2.142h-1.916l-2.158-2.906l-0.737,0.821v2.084h-1.642V34.336z"/>
</g>
<g>
	<path fill="#FFFFFF" d="M80.182,25.472L73.33,39.321h-3.372l-6.816-13.849v15.952h-5.655V16.082h7.649l6.526,13.922l6.562-13.922
		h7.614v25.342h-5.656V25.472z"/>
	<path fill="#FFFFFF" d="M108.84,19.399c2.417,2.212,3.626,5.288,3.626,9.227c0,3.94-1.178,7.058-3.535,9.354
		c-2.357,2.297-5.952,3.444-10.786,3.444H89.48V16.082h8.954C102.954,16.082,106.423,17.188,108.84,19.399z M104.689,34.463
		c1.389-1.305,2.084-3.202,2.084-5.692c0-2.489-0.695-4.405-2.084-5.746c-1.391-1.341-3.523-2.012-6.399-2.012h-3.155v15.408h3.589
		C101.311,36.421,103.298,35.769,104.689,34.463z"/>
	<path fill="#FFFFFF" d="M133.481,16.082h5.656v25.342h-5.656l-12.073-15.88v15.88h-5.655V16.082h5.293l12.436,16.315V16.082z"/>
</g>
</svg>
