<?xml version="1.0" encoding="utf-8"?>
<!-- Generator: Adobe Illustrator 17.0.0, SVG Export Plug-In . SVG Version: 6.00 Build 0)  -->
<!DOCTYPE svg PUBLIC "-//W3C//DTD SVG 1.1//EN" "http://www.w3.org/Graphics/SVG/1.1/DTD/svg11.dtd">
<svg version="1.1" id="Layer_1" xmlns="http://www.w3.org/2000/svg" xmlns:xlink="http://www.w3.org/1999/xlink" x="0px" y="0px"
	 width="72px" height="61.2px" viewBox="0 0 72 61.2" enable-background="new 0 0 72 61.2" xml:space="preserve">
<g>
	<linearGradient id="SVGID_1_" gradientUnits="userSpaceOnUse" x1="35.6456" y1="58.1284" x2="35.6456" y2="2.9524">
		<stop  offset="0" style="stop-color:#1C75BC"/>
		<stop  offset="1" style="stop-color:#27AAE1"/>
	</linearGradient>
	<polygon fill="url(#SVGID_1_)" points="51.301,2.982 51.301,2.952 51.263,2.967 51.225,2.952 51.225,2.982 35.646,9.21 
		20.066,2.982 20.066,2.952 20.029,2.967 19.991,2.952 19.991,2.982 4.374,9.225 4.374,58.128 20.029,52.14 35.608,58.1 
		35.608,58.128 35.646,58.114 35.683,58.128 35.683,58.1 51.263,52.14 66.918,58.128 66.918,9.225 	"/>
	<g>
		<linearGradient id="SVGID_2_" gradientUnits="userSpaceOnUse" x1="12.2198" y1="58.1284" x2="12.2198" y2="2.9524">
			<stop  offset="0" style="stop-color:#0469A7"/>
			<stop  offset="1" style="stop-color:#1599C8"/>
		</linearGradient>
		<polygon fill="url(#SVGID_2_)" points="4.374,9.225 4.374,58.128 20.066,52.126 20.066,2.952 		"/>
		<linearGradient id="SVGID_3_" gradientUnits="userSpaceOnUse" x1="27.8368" y1="58.1284" x2="27.8368" y2="2.9524">
			<stop  offset="0" style="stop-color:#1C75BC"/>
			<stop  offset="1" style="stop-color:#27AAE1"/>
		</linearGradient>
		<polygon fill="url(#SVGID_3_)" points="35.683,9.225 35.683,58.128 19.991,52.126 19.991,2.952 		"/>
		<linearGradient id="SVGID_4_" gradientUnits="userSpaceOnUse" x1="43.4544" y1="58.1284" x2="43.4544" y2="2.9524">
			<stop  offset="0" style="stop-color:#0469A7"/>
			<stop  offset="1" style="stop-color:#1599C8"/>
		</linearGradient>
		<polygon fill="url(#SVGID_4_)" points="35.609,9.225 35.609,58.128 51.3,52.126 51.3,2.952 		"/>
		<linearGradient id="SVGID_5_" gradientUnits="userSpaceOnUse" x1="59.0715" y1="58.1284" x2="59.0715" y2="2.9524">
			<stop  offset="0" style="stop-color:#1C75BC"/>
			<stop  offset="1" style="stop-color:#27AAE1"/>
		</linearGradient>
		<polygon fill="url(#SVGID_5_)" points="66.917,9.225 66.917,58.128 51.226,52.126 51.226,2.952 		"/>
	</g>
	<g>
		<defs>
			<path id="SVGID_6_" d="M58.071,31.547c-0.549-1.646-0.393-4.455-0.674-4.86c-1.829-2.511-8.501-2.954-11.499-6.261
				c0.527-1.627-0.544-2.978-1.638-4.007c-1.644-1.198-3.929-0.669-5.693-0.19c-2.001-0.424-3.853-1.139-5.8-1.71
				c-4.338-0.474-8.639,2.589-8.639,2.589c-3.095,1.966-7.954,6.043-10.279,8.423c0.569,0.082,1.175-0.347,1.817-0.425l4.448-1.154
				c-1.855,1.531-5.754,4.223-6.892,6.359c1.389-0.476,4.309-2.088,5.755-2.21c-1.271,1.121-3.919,3.245-4.755,4.602
				c0.099,0.049,0.029,0.167,0.044,0.25c1.09-0.6,3.74-2.17,4.938-2.269c-1.242,1.287-3.525,3.766-4.034,5.434
				c1.076-0.703,3.778-2.126,4.958-2.555c-0.273,0.658-0.872,1.143-1.263,1.8c-0.541,0.909-1.81,1.938-1.867,3.022
				c0.945-0.878,2.114-1.648,3.288-2.263c-0.53,1.092-1.494,1.992-1.765,3.294c0.772-0.745,2.226-1.126,3.215-1.466l-0.119,0.115
				c-0.085,0.07-1.204,0.86-1.966,1.744c0.673-0.038,0.172-0.123,1.032,0.074l0.466,0.025c-0.232,0.121-0.486,0.255-0.754,0.397v0
				c-0.415,0.22-0.862,0.46-1.314,0.707c1.848,2.36,4.143,4.254,6.777,5.538c3.432,1.674,7.173,2.221,10.917,1.794
				c-0.045-0.22-0.094-0.439-0.151-0.656l0,0c0-0.001,0-0.002-0.001-0.004c-0.069-0.265-0.149-0.527-0.243-0.785l0,0
				c-0.005-0.014-0.009-0.028-0.015-0.042c1.281-2.379,0.608-6.455,3.887-8.09c2.207-1.125,2.458-1.745,4.994-1.261
				c1.37,0.261,4.362,1.295,5.801,0.986c1.306-0.724,1.963-1.056,3.091-1.897c1.411,0.256,1.868,0.113,2.387-0.635
				c-0.47,0.652,0.914-2.552,1.499-3.759L58.071,31.547z"/>
		</defs>
		<clipPath id="SVGID_7_">
			<use xlink:href="#SVGID_6_"  overflow="visible"/>
		</clipPath>
		<ellipse clip-path="url(#SVGID_7_)" fill="#FFFFFF" cx="35.603" cy="31.764" rx="29.041" ry="19.697"/>
		<polygon clip-path="url(#SVGID_7_)" fill="#F1F2F2" points="4.786,10.192 4.786,59.482 20.317,53.432 20.317,3.869 		"/>
		<polygon clip-path="url(#SVGID_7_)" fill="#FFFFFF" points="35.774,10.192 35.774,59.482 20.243,53.432 20.243,3.869 		"/>
		<polygon clip-path="url(#SVGID_7_)" fill="#F1F2F2" points="35.701,10.192 35.701,59.482 51.231,53.432 51.231,3.869 		"/>
		<polygon clip-path="url(#SVGID_7_)" fill="#FFFFFF" points="66.688,10.192 66.688,59.482 51.158,53.432 51.158,3.869 		"/>
	</g>
</g>
</svg>
