<svg id="Layer_1" data-name="Layer 1" xmlns="http://www.w3.org/2000/svg" viewBox="0 0 46.59 57"><defs><style>.cls-1{fill:none;}.cls-2{fill:#3d84a3;}.cls-3{fill:#fff;}</style></defs><title>Learn</title><path class="cls-1" d="M4.32 50.81a2.46 2.46 0 0 0 0 .43 2.46 2.46 0 0 1 0-.43z"/><path class="cls-2" d="M46.59 47.4V2.26A2.18 2.18 0 0 0 44.41.08H2.18A2.18 2.18 0 0 0 0 2.26V51c0 3.25.74 5.89 4 5.89h36.7a5.89 5.89 0 0 0 5.25-3.23H6.73a2.42 2.42 0 0 1-2.41-2.88 2.45 2.45 0 0 1 2.41-2h38.9l-.07-.05a1.38 1.38 0 0 0 1.03-1.33z"/><path class="cls-3" d="M39 24.51c-.16.3-.33.58-.48.88a1.13 1.13 0 0 1-1.16.67.77.77 0 0 0-.49.16c-.45.3-.9.58-1.37.86a2.39 2.39 0 0 1-2.08.11 9.73 9.73 0 0 0-3.48-.62 3.83 3.83 0 0 0-3.1 1.43 4.69 4.69 0 0 0-.7 1.4c-.41 1-.76 7-.75 8.52a23.64 23.64 0 0 1-11.17-6.66l1.41-3.7h-4.41l3.19-3.38H8.92l3.19-3.38H6.9l5.81-6.15A13.4 13.4 0 0 1 19.17 11a7.26 7.26 0 0 1 4.35.25l.8.24h.09l1.21.36a4.11 4.11 0 0 0 2 0 3.7 3.7 0 0 1 2.7.34 2.69 2.69 0 0 1 1.34 2 2.4 2.4 0 0 0 1.18 1.8 19.37 19.37 0 0 0 3 1.34c.74.28 1.48.58 2.22.88a2.24 2.24 0 0 1 .94.67 1.58 1.58 0 0 1 .36.9c0 .66.12 1.32.16 2a5 5 0 0 1-.52 2.73z"/></svg>
