<svg id="Layer_1" data-name="Layer 1" xmlns="http://www.w3.org/2000/svg" viewBox="0 0 59.21 55.56"><defs><style>.cls-1{fill:#3d84a3;}.cls-2{clip-path:url(#clip-path);}.cls-3{fill:#fff;}</style><clipPath id="clip-path"><path class="cls-1" d="M59.21 15.68a2.24 2.24 0 0 0-2.26-2.44h-6.27a7.08 7.08 0 0 1-6.1-5.75C43.54 3.32 42.84 0 37.79 0H21.25c-4.88-.17-5.75 3.13-6.79 7.31a7 7 0 0 1-5.92 5.75H2.26A2.51 2.51 0 0 0 0 15.68l.87 16.54v.17L0 53.64a2 2 0 0 0 2.26 1.92h54.69a2 2 0 0 0 2.26-1.92L58.34 32v-.17zM25.6 6.8h7.66c1 0 2.09 1.39 2.26 2.44.17 1.22-.87 2.79-1.92 2.79h-7.65c-1 0-2.09-1.39-2.26-2.44-.18-1.22.86-2.79 1.91-2.79z"/></clipPath></defs><title>Add-ons</title><path class="cls-1" d="M59.21 15.68a2.24 2.24 0 0 0-2.26-2.44h-6.27a7.08 7.08 0 0 1-6.1-5.75C43.54 3.32 42.84 0 37.79 0H21.25c-4.88-.17-5.75 3.13-6.79 7.31a7 7 0 0 1-5.92 5.75H2.26A2.51 2.51 0 0 0 0 15.68l.87 16.54v.17L0 53.64a2 2 0 0 0 2.26 1.92h54.69a2 2 0 0 0 2.26-1.92L58.34 32v-.17zM25.6 6.8h7.66c1 0 2.09 1.39 2.26 2.44.17 1.22-.87 2.79-1.92 2.79h-7.65c-1 0-2.09-1.39-2.26-2.44-.18-1.22.86-2.79 1.91-2.79z"/><g class="cls-2"><path class="cls-1" d="M23.51 11.91H35.7v.12H23.51zM23.51 11.11H35.7v.79H23.51zM23.51 10.32H35.7v.79H23.51zM23.51 9.52H35.7v.79H23.51zM23.51 8.73H35.7v.79H23.51zM23.51 7.94H35.7v.79H23.51zM23.51 7.14H35.7v.79H23.51z"/><path class="cls-1" d="M23.51 6.8H35.7v.35H23.51zM0 54.77h59.21v.79H0zM0 53.97h59.21v.79H0zM0 53.18h59.21v.79H0zM0 52.38h59.21v.79H0zM0 51.59h59.21v.79H0zM0 50.8h59.21v.79H0zM0 50h59.21v.79H0zM0 49.21h59.21V50H0zM0 48.42h59.21v.79H0zM0 47.62h59.21v.79H0zM0 46.83h59.21v.79H0zM0 46.03h59.21v.79H0zM0 45.24h59.21v.79H0zM0 44.45h59.21v.79H0zM0 43.65h59.21v.79H0zM0 42.86h59.21v.79H0zM0 42.07h59.21v.79H0zM0 41.27h59.21v.79H0zM0 40.48h59.21v.79H0zM0 39.69h59.21v.79H0zM0 38.89h59.21v.79H0zM0 38.1h59.21v.79H0zM0 37.3h59.21v.79H0zM0 36.51h59.21v.79H0zM0 35.72h59.21v.79H0zM0 34.92h59.21v.79H0zM0 34.13h59.21v.79H0zM0 33.34h59.21v.79H0zM0 32.54h59.21v.79H0zM0 31.75h59.21v.79H0zM0 30.95h59.21v.79H0zM0 30.16h59.21v.79H0zM0 29.37h59.21v.79H0zM0 28.57h59.21v.79H0zM0 27.78h59.21v.79H0zM0 26.99h59.21v.79H0zM0 26.19h59.21v.79H0zM0 25.4h59.21v.79H0zM0 24.6h59.21v.79H0zM0 23.81h59.21v.79H0zM0 23.02h59.21v.79H0zM0 22.22h59.21v.79H0zM0 21.43h59.21v.79H0zM0 20.64h59.21v.79H0zM0 19.84h59.21v.79H0zM0 19.05h59.21v.79H0zM0 18.26h59.21v.79H0zM0 17.46h59.21v.79H0zM0 16.67h59.21v.79H0zM0 15.87h59.21v.79H0z"/><path class="cls-1" d="M0 15.08h59.21v.79H0zM0 14.29h59.21v.79H0zM0 13.49h59.21v.79H0zM0 12.7h59.21v.79H0zM0 11.91h59.21v.79H0zM0 11.11h59.21v.79H0zM0 10.32h59.21v.79H0zM0 9.52h59.21v.79H0zM0 8.73h59.21v.79H0zM0 7.94h59.21v.79H0zM0 7.14h59.21v.79H0zM0 6.35h59.21v.79H0zM0 5.56h59.21v.79H0zM0 4.76h59.21v.79H0zM0 3.97h59.21v.79H0zM0 3.17h59.21v.79H0zM0 2.38h59.21v.79H0zM0 1.59h59.21v.79H0zM0 .79h59.21v.79H0zM0 0h59.21v.79H0z"/></g><path class="cls-3" d="M36.4 30.66c-1-5.75-4.7-11.32-6.27-11.32-1.74 0-5.75 5.75-7 11.32l-4.53 3.83v10.62h4l3.66-4.18a2.21 2.21 0 0 0 1.22.7h4.7a1.31 1.31 0 0 0 1.22-.7l3.66 4.18h3.48V34.49zm-6.62-1.92a9.2 9.2 0 0 0-2.26.17c.7-2.09 1.74-3.66 2.26-3.66S31.35 27 32 28.91a9.2 9.2 0 0 0-2.22-.17z"/><path class="cls-3" d="M30.82 43.37c.17 0 .17.7.17 1.22a2.17 2.17 0 0 1-1.22 2.09 2.17 2.17 0 0 1-1.22-2.09c0-.52 0-1.22.17-1.22h-1.38c-.17 0-.17 1.22-.17 1.92 0 2.61 1.92 4.7 2.61 4.7s2.61-2.09 2.61-4.7a18.14 18.14 0 0 0-.17-1.92z"/></svg>
