<svg viewBox="0 0 317 108" xmlns="http://www.w3.org/2000/svg"><title>owg-logo-light</title><path fill="#FF5021" d="M94.752 57.26c3.195-6.39.64-14.166-5.752-17.468-3.302-1.704-7.243-1.81-10.65-.426-2.877 1.278-5.22 3.408-6.712 6.178-1.81 2.982-5.646 3.834-8.628 2.023-.852-.532-1.598-1.278-2.024-2.023-3.195-6.39-11.077-8.948-17.362-5.752-6.285 3.196-8.948 11.077-5.752 17.362 3.195 6.392 11.078 8.948 17.362 5.752 2.45-1.17 4.368-3.195 5.646-5.538 1.704-2.983 5.432-4.048 8.415-2.45 2.982 1.704 4.047 5.432 2.45 8.414-1.066 2.024-3.196 3.196-5.54 3.196h-.318c-7.137 0-12.89 5.858-12.89 12.995s5.86 12.888 12.996 12.888S78.88 86.66 78.88 79.524c0-2.024-.53-3.94-1.383-5.752-2.237-4.58-.64-9.586 5.75-9.372 4.794-.107 9.268-2.877 11.505-7.137z"/><path fill="#6699A3" d="M41.28 69.83c-2.343-2.024-5.325-3.196-8.414-3.196h-.213c-5.326-.213-7.882-4.686-5.433-9.48 3.196-6.39.533-14.166-5.858-17.362-1.917-.958-3.94-1.384-6.07-1.384-7.35.212-12.996 6.178-12.783 13.314 0 1.598.425 3.195.958 4.687 2.023 4.685 6.71 7.88 11.93 7.988 5.006.212 7.988 4.473 5.75 9.373-3.194 6.392-.638 14.274 5.753 17.47 6.392 3.195 14.274.638 17.47-5.752 2.663-5.327 1.384-11.824-3.09-15.66z"/><circle fill="#ADC0C9" cx="4.859" cy="66.319" r="12.995" transform="translate(61.027 -43.143)"/><circle fill="#ADC0C9" cx="-28.267" cy="66.319" r="12.995" transform="translate(61.027 -43.143)"/><path fill="#FFF" d="M119.25 12.205c6.286 0 10.225 4.58 10.225 12.57 0 7.775-3.94 12.673-10.226 12.673-6.283 0-10.226-4.792-10.226-12.57s3.943-12.673 10.225-12.673zm7.46 12.463c0-6.924-2.77-10.225-7.46-10.225-4.687 0-7.347 3.407-7.347 10.33 0 6.82 2.77 10.332 7.346 10.332 4.58 0 7.46-3.513 7.46-10.437zM178.58 23.92c-.21.748-.21 1.49-.317 1.918h-16.085c.32 6.603 3.407 9.267 7.56 9.267 2.344 0 4.687-.853 6.5-2.45l1.278 1.707c-2.238 1.916-5.007 2.98-7.882 2.98-6.392 0-10.226-4.58-10.226-12.357 0-7.773 3.728-12.78 9.693-12.78 6.284 0 9.48 4.58 9.48 11.716zm-2.875-.105v-.747c0-5.324-2.132-8.625-6.71-8.625-3.727 0-6.606 2.875-6.923 9.372h13.633zM202.12 19.555v17.36h-2.663V19.983c0-3.943-1.596-5.65-4.58-5.65-3.302 0-5.54 2.027-7.457 5.008v17.576h-2.66v-24.18h2.343l.21 4.155c1.918-2.768 4.582-4.58 8.095-4.58 4.37-.105 6.713 2.56 6.713 7.245zM246.22 12.737l-6.178 24.18h-3.622l-5.328-21.73-5.43 21.73h-3.516l-6.072-24.18h2.77l5.218 22.157 5.645-22.157h3.09l5.54 22.157 5.218-22.157M268.375 23.92c-.11.748-.11 1.49-.215 1.918h-16.19c.32 6.603 3.41 9.267 7.564 9.267 2.343 0 4.687-.853 6.498-2.45l1.275 1.707c-2.234 1.916-5.007 2.98-7.882 2.98-6.388 0-10.226-4.58-10.226-12.357 0-7.773 3.727-12.78 9.693-12.78 6.286 0 9.482 4.58 9.482 11.716zm-2.77-.105v-.747c0-5.324-2.13-8.625-6.712-8.625-3.728 0-6.603 2.875-6.924 9.372h13.636zM283.604 12.205c5.54 0 8.84 4.366 8.84 12.463 0 7.773-3.406 12.674-9.157 12.674-2.77 0-5.433-1.28-7.03-3.516l-.214 3.09H273.7V2.832l2.664-.32V16.04c1.595-2.45 4.365-3.94 7.24-3.835zm5.966 12.463c0-7.14-2.45-10.225-6.498-10.225-3.086 0-5.007 1.81-6.708 4.154v12.78c1.28 2.343 3.727 3.728 6.392 3.833 4.26 0 6.814-3.512 6.814-10.542z"/><g><path fill="#FFF" d="M141.938 45.65l2.664 8.842c-2.664 1.064-6.286 1.49-11.078 1.49 4.9 2.132 7.244 4.902 7.244 9.91 0 7.455-6.18 12.884-16.19 12.884-1.49 0-2.985-.106-4.476-.427-.743.426-1.275 1.28-1.275 2.13 0 1.17.532 2.345 4.26 2.345h5.856c9.056 0 14.7 4.686 14.7 11.183 0 7.883-7.03 12.784-20.24 12.784-14.59 0-18.424-4.796-18.424-12.462h10.33c0 3.3 1.49 4.792 8.414 4.792 6.713 0 8.31-1.917 8.31-4.366 0-2.238-1.706-3.837-5.54-3.837h-5.54c-8.413 0-11.82-3.514-11.82-7.67.21-3.09 1.916-5.86 4.576-7.455-4.897-2.664-6.92-6.07-6.92-11.078 0-8.735 6.815-14.06 16.934-14.06 8.63.212 13.528-2.236 18.214-5.006zM129.9 64.824c0-4.475-1.916-6.283-5.855-6.283-3.516.106-5.86 2.45-5.86 6.498 0 4.26 2.344 6.497 5.86 6.497 3.834 0 5.856-2.237 5.856-6.712z"/></g><g><path fill="#FFF" d="M180.923 84.42l-2.343 7.457c-4.47-.317-7.456-1.702-9.267-5.535-2.77 4.26-7.03 5.75-11.61 5.75-7.667 0-12.57-5.007-12.57-12.037 0-8.414 6.393-12.995 18.11-12.995h3.942v-1.705c0-4.58-1.81-5.966-6.497-5.966-3.41.214-6.818.852-10.12 2.026l-2.664-7.562c4.58-1.705 9.482-2.664 14.486-2.88 11.183 0 15.98 4.687 15.98 13.638V79.63c0 2.984.742 4.153 2.553 4.79zm-13.848-4.153v-6.92H164.2c-5.22 0-7.777 1.807-7.777 5.645 0 3.086 1.705 4.897 4.475 4.897 2.664 0 4.902-1.386 6.177-3.623z"/></g><g><path fill="#FFF" d="M238.763 62.695V90.92h-11.505V64.61c0-4.05-1.49-5.113-3.3-5.113-2.45 0-4.26 1.81-5.86 5.006V90.92H206.7V64.61c0-4.05-1.49-5.113-3.3-5.113-2.345 0-4.26 1.81-5.86 5.006V90.92h-11.506V52.253h10.015l.854 4.475c2.98-3.73 6.497-5.755 11.184-5.755 4.048-.21 7.667 2.343 9.052 6.07 3.09-4.044 6.603-6.07 11.61-6.07 5.86.11 10.013 4.37 10.013 11.72z"/></g><g><path fill="#FFF" d="M279.665 70.894c0 1.28-.106 2.664-.215 4.05h-23.858c.747 6.923 4.05 8.84 8.735 8.84 3.09 0 5.86-1.064 9.267-3.407l4.686 6.388c-4.26 3.41-9.588 5.327-15.018 5.327-12.89 0-19.387-8.308-19.387-20.345 0-11.505 6.283-20.662 18.002-20.662 11.075 0 17.788 7.24 17.788 19.81zm-11.29-2.875v-.533c-.11-5.22-1.705-8.84-6.286-8.84-3.834 0-6.072 2.342-6.604 9.372h12.89z"/></g><g><path fill="#FFF" d="M313.964 55.77l-4.26 6.498c-2.77-1.92-6.18-2.88-9.483-2.984-3.085 0-4.685 1.173-4.685 2.875 0 2.025 1.064 2.878 7.883 4.9 7.67 2.132 11.93 5.324 11.93 12.248 0 7.992-7.565 12.678-17.15 12.678-5.858.106-11.61-1.916-16.084-5.754l5.54-6.282c2.874 2.343 6.496 3.727 10.225 3.833 3.515 0 5.538-1.28 5.538-3.622 0-2.663-1.17-3.406-8.094-5.323-7.67-2.132-11.4-6.07-11.4-12.037 0-6.603 6.072-11.716 15.766-11.716 5.218-.11 10.225 1.597 14.274 4.687z"/></g><g><path fill="#FFF" d="M145.134 12.205c5.86 0 8.735 4.686 8.735 12.463 0 7.667-3.197 12.78-9.163 12.78-2.77.106-5.324-1.17-6.923-3.302v9.162c-.744.32-1.49.637-2.234.958l-.427.106V12.737h2.344l.21 3.517c1.706-2.56 4.476-4.05 7.457-4.05zm5.86 12.463c0-6.818-2.132-10.225-6.392-10.225-3.09 0-5.113 1.81-6.818 4.154v12.78c1.28 2.343 3.727 3.728 6.39 3.728 4.37 0 6.82-3.623 6.82-10.437z"/></g></svg>