<svg id="Layer_1" data-name="Layer 1" xmlns="http://www.w3.org/2000/svg" viewBox="0 0 55.02 44.95"><defs><style>.cls-1{fill:#3d84a3;}.cls-2{fill:#fff;}</style></defs><title>Apps</title><rect class="cls-1" x=".19" width="48.01" height="42.03" rx="2.97" ry="2.97"/><circle class="cls-2" cx="5.19" cy="4.8" r="1.84"/><circle class="cls-2" cx="11.49" cy="4.8" r="1.84"/><circle class="cls-2" cx="17.8" cy="4.8" r="1.84"/><rect class="cls-2" x="35.15" y="8.28" width="20.93" height="36.68" rx="1.07" ry="1.07"/><path class="cls-1" d="M38.42 11.95h16.41v27.39H38.42z"/><circle class="cls-1" cx="46.62" cy="42.68" r="2.14"/><path class="cls-2" d="M30.67 25.26c-.13.24-.27.48-.39.72a.92.92 0 0 1-.95.55.63.63 0 0 0-.4.13c-.37.24-.74.48-1.12.7a2 2 0 0 1-1.7.09 8 8 0 0 0-2.85-.51 3.13 3.13 0 0 0-2.53 1.16 3.84 3.84 0 0 0-.57 1.15 43.41 43.41 0 0 0-.61 7 19.34 19.34 0 0 1-9.14-5.45l1.16-3H8l2.57-2.8h-4.5l2.61-2.77H4.42l4.75-5a11 11 0 0 1 5.29-2.93 5.94 5.94 0 0 1 3.56.21l.66.2h.07l1 .3a3.36 3.36 0 0 0 1.66 0 3 3 0 0 1 2.21.28 2.2 2.2 0 0 1 1.1 1.65 2 2 0 0 0 1 1.47 15.85 15.85 0 0 0 2.49 1.1c.61.23 1.21.48 1.82.72a1.83 1.83 0 0 1 .77.55 1.3 1.3 0 0 1 .29.73c0 .54.1 1.08.13 1.62a4.07 4.07 0 0 1-.55 2.13z"/></svg>
