<svg id="Layer_1" data-name="Layer 1" xmlns="http://www.w3.org/2000/svg" viewBox="0 0 47.71 53.22"><defs><style>.cls-1{fill:#3d84a3;}.cls-2{fill:#fff;}</style></defs><title>Archive</title><path class="cls-1" d="M40.8 3A3.64 3.64 0 0 0 37.37.57h-27A3.66 3.66 0 0 0 6.91 3L1 18.84a16.24 16.24 0 0 0-1 5.66v21.6a7.12 7.12 0 0 0 7.12 7.12h33.47a7.12 7.12 0 0 0 7.12-7.12V24.5a16.24 16.24 0 0 0-1-5.65z"/><rect class="cls-2" x="15.14" y="27.56" width="17.44" height="6.36" rx="1.74" ry="1.74"/><path class="cls-2" d="M41.38 17.14H6.19a.53.53 0 0 1-.49-.72l.63-1.67a.52.52 0 0 1 .49-.34H40.7a.52.52 0 0 1 .48.33l.68 1.67a.53.53 0 0 1-.48.73zM39.44 11.06H8.27a.53.53 0 0 1-.49-.75l.49-1.11a.53.53 0 0 1 .49-.32h30.19a.53.53 0 0 1 .49.32l.49 1.11a.53.53 0 0 1-.49.75zM37.3 5.55H10.41a.53.53 0 0 1-.5-.71l.42-.84a.53.53 0 0 1 .5-.36h26a1.08 1.08 0 0 1 .74.55l.29.68a.53.53 0 0 1-.56.68z"/></svg>
