<svg id="Layer_1" data-name="Layer 1" xmlns="http://www.w3.org/2000/svg" viewBox="0 0 56.47 49.48"><defs><style>.cls-1{fill:#3d84a3;}</style></defs><title>Games</title><circle class="cls-1" cx="38.13" cy="7.78" r="7.78"/><circle class="cls-1" cx="18.95" cy="7.78" r="7.78"/><path class="cls-1" d="M37.85 49.29a7.57 7.57 0 0 1-7.85-7.2c-.17-4.53 2.82-8 7.23-8.29 2.09-.13 3.84-.71 4.58-2.82a3.79 3.79 0 0 0-1.93-4.89c-1.9-1.1-4-.58-5.4 1.59-1.76 2.66-4 4.19-7.27 4.05A7.53 7.53 0 0 1 20 25.92 7.79 7.79 0 0 1 33.57 19c.21.26.39.54.59.82 2.45 3.48 5.32 3.5 7.77.08s5.71-4.52 9.17-3.32a8 8 0 0 1 5.36 7.94 7.85 7.85 0 0 1-6.14 7.07c-6.47 1.51-6.47 1.51-4.93 7.92a7.65 7.65 0 0 1-7.54 9.78z" id="rplTB9"/><path class="cls-1" d="M27.67 39.31c-1-3.52-3.93-5.55-8-5.58s-5.85-2.38-4.42-6.39c.11-.32.24-.63.33-.95a7.85 7.85 0 0 0-3.85-9 7.7 7.7 0 0 0-8.25.66 7.7 7.7 0 0 0-3.39 7.59 7.85 7.85 0 0 0 7.17 6.62h1c4.25 0 5.93 2.32 4.55 6.3s-.39 7.27 2.59 9.4a7.94 7.94 0 0 0 12.27-8.67z"/></svg>
