<svg id="Layer_1" data-name="Layer 1" xmlns="http://www.w3.org/2000/svg" viewBox="0 0 66.77 55.26"><defs><style>.cls-1{fill:#3d84a3;}</style></defs><title>MDN at Ten</title><path class="cls-1" d="M65.53 27.92c-.32.6-.67 1.19-1 1.8a2.31 2.31 0 0 1-2.37 1.37 1.57 1.57 0 0 0-1 .33c-.92.6-1.84 1.19-2.79 1.75a4.89 4.89 0 0 1-4.24.22A19.86 19.86 0 0 0 47 32.12 7.82 7.82 0 0 0 40.74 35a9.58 9.58 0 0 0-1.43 2.86c-.83 2.06-1.55 14.25-1.53 17.39S26 53 15 41.66l2.89-7.56h-9l6.52-6.91H4.13l6.52-6.91H0L11.86 7.73A27.36 27.36 0 0 1 25.07.42c4.78-.81 6-.35 8.89.52l1.64.49.18.05 2.46.75a8.39 8.39 0 0 0 4.13.06 7.55 7.55 0 0 1 5.51.71 5.49 5.49 0 0 1 2.74 4.13A4.9 4.9 0 0 0 53 10.79a39.56 39.56 0 0 0 6.22 2.74c1.52.58 3 1.19 4.54 1.8a4.57 4.57 0 0 1 1.94 1.37 3.24 3.24 0 0 1 .73 1.83c.09 1.35.25 2.69.32 4a10.16 10.16 0 0 1-1.22 5.39z"/><path class="cls-1" d="M50.28 55.1h-3.46V44.07l.06-1.7q-.86.86-1.2 1.13L43.83 45l-1.67-2.08 5.27-4.2h2.84zM65.24 46.92q0 4.29-1.41 6.35a4.87 4.87 0 0 1-4.33 2.06 4.82 4.82 0 0 1-4.27-2.13 11.24 11.24 0 0 1-1.44-6.28q0-4.33 1.4-6.39a4.85 4.85 0 0 1 4.31-2.05 4.83 4.83 0 0 1 4.28 2.15 11.26 11.26 0 0 1 1.46 6.29zm-8 0a12.71 12.71 0 0 0 .52 4.31 1.82 1.82 0 0 0 3.5 0 12.38 12.38 0 0 0 .54-4.3 12.36 12.36 0 0 0-.54-4.33 1.81 1.81 0 0 0-3.49 0 12.72 12.72 0 0 0-.53 4.32z"/></svg>
