<svg width="172" height="131" viewBox="0 0 172 131" xmlns="http://www.w3.org/2000/svg" aria-hidden="true" role="img"><g fill="none" fill-rule="evenodd"><path d="M108.857 80.95l-.27-.4.51.21z"/><path d="M171.386 71.78c-.05.01-.1.01-.15 0l-.678-.32a.37.37 0 0 1 .33-.66l.648.31a.37.37 0 0 1-.15.7v-.03zm-3.84 1a.37.37 0 0 1 0 .74 9.61 9.61 0 0 0-1.396.06c.209-.228.38-.488.508-.77.34 0 .579-.02.888-.02v-.01zM56.173 82.95a13.13 13.13 0 0 1 7.221 2 11.757 11.757 0 0 0 6.524 1.78.74.74 0 0 1 0 1.48 13.13 13.13 0 0 1-7.222-2 11.757 11.757 0 0 0-6.443-1.78c-.1-.51-.22-1-.34-1.47l.26-.01zm-54.928 0a13.13 13.13 0 0 1 7.22 2 12.818 12.818 0 0 0 13.037 0 13.13 13.13 0 0 1 7.222-2 12.63 12.63 0 0 1 5.895 1.28c-.12.507-.227 1.003-.32 1.49a11.207 11.207 0 0 0-5.575-1.29 11.757 11.757 0 0 0-6.523 1.78 14.261 14.261 0 0 1-14.423 0 11.757 11.757 0 0 0-6.524-1.78.74.74 0 0 1 0-1.48h-.01zm29.653-4.65a.37.37 0 0 1 0 .74 15.68 15.68 0 0 0-1.676-.09.37.37 0 0 1 0-.74c.56.001 1.12.031 1.676.09zm25.714-.1a.37.37 0 0 1 0 .74 14.924 14.924 0 0 0-1.995.13l-.31-.7a15.421 15.421 0 0 1 2.305-.17zM20.395 91.31c.479-.23.938-.48 1.397-.72a12.822 12.822 0 0 1 7.031-1.91.37.37 0 0 1 0 .74 12.055 12.055 0 0 0-6.692 1.83c-.46.25-.938.51-1.427.75a.381.381 0 0 1-.3-.7l-.009.01zm-19.02-2.64c.579 0 1.158.03 1.735.09a.37.37 0 0 1 0 .74 14.038 14.038 0 0 0-1.676-.09.37.37 0 0 1 0-.74h-.06zm7.979 2.43l.648.31a.37.37 0 0 1-.3.67l-.678-.32a.37.37 0 0 1 .33-.66zm3.361 1.12c.71.111 1.426.168 2.144.17a.37.37 0 0 1 0 .74 14.824 14.824 0 0 1-2.244-.18.37.37 0 0 1 .12-.72l-.02-.01z" fill="#55B2FF" fill-rule="nonzero"/><path d="M150.021 95.3c3.65-4.33 4.568-10.34 3.431-17.24 8.598 2.94 15.83 8.83 15.83 13.57 0 8.87-19.041 16.06-42.53 16.06-1.377 0-5.058.29-6.444.25a11.4 11.4 0 0 1 4.568-2.29c11.45-1.16 18.263-2.32 25.145-10.35z" fill="#004E95" fill-rule="nonzero"/><path d="M91.671 120.54a13.13 13.13 0 0 1 7.222 2 12.818 12.818 0 0 0 13.036 0 14.261 14.261 0 0 1 14.423 0 12.818 12.818 0 0 0 13.036 0 14.261 14.261 0 0 1 14.423 0 11.757 11.757 0 0 0 6.523 1.78.74.74 0 0 1 0 1.48 13.13 13.13 0 0 1-7.22-2 12.818 12.818 0 0 0-13.027 0 14.271 14.271 0 0 1-14.423 0 12.818 12.818 0 0 0-13.037 0 14.261 14.261 0 0 1-14.422 0 11.757 11.757 0 0 0-6.524-1.78.74.74 0 0 1 0-1.48h-.01zm29.584-3.91a15.68 15.68 0 0 0-1.675-.09.37.37 0 0 1 0-.74c.586-.001 1.172.029 1.755.09a.37.37 0 0 1 0 .74h-.08zm6.833 2.62c-.05.01-.1.01-.15 0l-.678-.32a.37.37 0 0 1 .329-.66l.648.31a.37.37 0 0 1-.15.7v-.03z" fill="#55B2FF" fill-rule="nonzero"/><path d="M133.065 120.28a14.824 14.824 0 0 1-2.244-.18.369.369 0 0 1-.272-.62.368.368 0 0 1 .391-.1c.71.111 1.427.168 2.145.17a.37.37 0 0 1 0 .74l-.02-.01zm7.281-1.91c-.459.25-.938.51-1.426.75a.379.379 0 0 1-.527-.395.38.38 0 0 1 .227-.305c.48-.23.938-.48 1.387-.72a12.822 12.822 0 0 1 7.032-1.91.37.37 0 0 1 0 .74 12.055 12.055 0 0 0-6.693 1.84zm-37.194 11.46c.71.111 1.426.168 2.144.17a.37.37 0 0 1 0 .74 14.824 14.824 0 0 1-2.244-.18.37.37 0 0 1 .12-.72l-.02-.01zm7.67-.93c.479-.23.938-.48 1.397-.72a12.822 12.822 0 0 1 7.031-1.91.37.37 0 0 1 0 .74 12.055 12.055 0 0 0-6.692 1.83c-.46.25-.938.51-1.427.75a.469.469 0 0 1-.508-.29.37.37 0 0 1 .21-.41l-.01.01zm-11.031-.21l.648.31a.37.37 0 0 1-.3.67l-.678-.32a.37.37 0 0 1 .33-.66zm-7.98-2.43c.58 0 1.16.03 1.736.09a.37.37 0 0 1 0 .74 14.038 14.038 0 0 0-1.676-.09.37.37 0 0 1 0-.74h-.06z" fill="#55B2FF" fill-rule="nonzero"/><path d="M89.188 81.42c-.09-.16-.19-.31-.29-.48l.24-.17-.509-.22a7.47 7.47 0 0 0-1.675-1.69l.468-1.58c1.806 1.48 4.908 2.3 7.162 2.72a29.153 29.153 0 0 0-4.798 3 7.602 7.602 0 0 0-.598-1.58z" fill="#0A84FF" fill-rule="nonzero"/><path d="M118.413 89.25a.707.707 0 0 1-.609-.18 6.98 6.98 0 0 1-4.708 3.08 2.271 2.271 0 0 1-2.144-.8c-2.384-3.24.738-6.41.798-6.49 5.745-4.9 13.964-3.76 19.719-1.08a21.933 21.933 0 0 1 4.428 2.7c2.404 1.92 3.83 4.11 3.83 6.1a.37.37 0 1 1-.737 0c0-2.67-3.152-5.95-7.83-8.13-8.478-4-15.34-2.1-18.951 1-.11.11-2.703 2.78-.709 5.47.37.416.93.61 1.477.51a6.445 6.445 0 0 0 4.578-3.4.37.37 0 0 1 .498-.16h.15a8.195 8.195 0 0 1 7.76 2.16 11.16 11.16 0 0 1 2.713 9.16.739.739 0 0 1-.718.59h-.15a.75.75 0 0 1-.578-.88 8.712 8.712 0 0 0 0-2.92 9.11 9.11 0 0 0-2.284-4.9 6.77 6.77 0 0 0-6.533-1.83z" fill="#9B9B9B" fill-rule="nonzero"/><path d="M127.758 100.11a1.127 1.127 0 0 1-.947-1.32c.156-.92.156-1.86 0-2.78a8.71 8.71 0 0 0-2.194-4.71 6.412 6.412 0 0 0-6.105-1.68c-.19.035-.387.018-.568-.05a7.409 7.409 0 0 1-4.748 3 2.65 2.65 0 0 1-2.494-.93c-2.284-3.1 0-6.1.778-6.94l.07-.07c5.875-5 14.253-3.87 20.118-1.13a22.402 22.402 0 0 1 4.499 2.75c2.563 2.05 3.99 4.32 3.99 6.39a.746.746 0 1 1-1.486 0c0-2.5-3.133-5.7-7.611-7.79-8.329-3.88-15.021-2.08-18.502.9-.08.08-2.464 2.52-.649 5 .282.304.701.44 1.107.36a6.116 6.116 0 0 0 4.31-3.2.739.739 0 0 1 .428-.37.746.746 0 0 1 .44 0 8.623 8.623 0 0 1 8.048 2.28 11.48 11.48 0 0 1 2.823 9.48 1.128 1.128 0 0 1-1.087.91l-.22-.1zm-7.69-11.45c1.908 0 3.738.758 5.087 2.11a9.46 9.46 0 0 1 2.394 5.11 9.083 9.083 0 0 1 0 3 .37.37 0 0 0 .29.45h.079a.37.37 0 0 0 .35-.29 10.729 10.729 0 0 0-2.634-8.83 7.856 7.856 0 0 0-7.391-2h-.34c-.069.14-.149.27-.219.4v-.08l.33.31c.075.07.177.103.279.09a7.075 7.075 0 0 1 1.775-.26v-.01zm16.209-1.37a8.662 8.662 0 0 1 2.992 4.57 8.522 8.522 0 0 0-2.992-4.57zM110.653 90c.144.397.345.771.598 1.11.437.52 1.117.767 1.785.65a6.66 6.66 0 0 0 4.31-2.7 6.84 6.84 0 0 1-4.26 2.67 1.992 1.992 0 0 1-1.815-.63 4.453 4.453 0 0 1-.618-1.1zm8.119-7.94a14.001 14.001 0 0 0-5.386 2 14.788 14.788 0 0 1 5.386-1.99v-.01z" fill="#9B9B9B" fill-rule="nonzero"/><path d="M89.756 87.15a7.538 7.538 0 0 0 .31-2.42 23.455 23.455 0 0 1 7.52-4.33.718.718 0 0 0 .3-.16 23.187 23.187 0 0 1 6.453-1.24.37.37 0 0 0 0-.74c-2.142.11-4.26.51-6.294 1.19a.728.728 0 0 0-.598-.44c-2.065-.19-7.59-1.08-9.506-3.11l1.785-5.41c2.853 1.41 7.58 1.65 11.97.57 4.737-1.18 8.378-3.73 10.253-7.2a.742.742 0 0 0-.648-1.08c-.998 0-1.307-.26-1.347-.32-.04-.06.24-.51 1.307-1.08a.74.74 0 0 0 .18-1.19c-5.766-5.63-.998-14.72-.998-14.8a.741.741 0 0 0 .06-.15l.05-.19a.741.741 0 0 0-.22-.75 7.01 7.01 0 0 1-2.104-6.3 3.518 3.518 0 0 1 2.324-2.79c3.82-1.31 6.703 3.44 6.722 3.48a.71.71 0 0 0 .12.13 17.292 17.292 0 0 0-2.314 1.82.37.37 0 0 0 .028.492.368.368 0 0 0 .49.028 23.938 23.938 0 0 1 4.599-3.22 24.166 24.166 0 0 1 11.62-2.62h.918a.727.727 0 0 0 .538-.25 6.241 6.241 0 0 1 4.459-2.64 7.455 7.455 0 0 1-.938 3.48.742.742 0 0 0 .633 1.179.738.738 0 0 0 .644-.459c1.696-3 6.284-2.23 7.87-1.84-.05.153-.128.295-.23.42-.621.6-1.451.933-2.314.93a.74.74 0 0 0-.09 1.48 29.522 29.522 0 0 1 16.388 8.88.37.37 0 0 0 .12.29c.296.274.572.568.828.88a15.567 15.567 0 0 1 2.802 5.93.37.37 0 0 0 .36.29h.09a.37.37 0 0 0 .279-.43 16.451 16.451 0 0 0-2.464-5.6c.828-.38 5.456-2.29 7.76.61a3.547 3.547 0 0 1 .459 3.6 6.895 6.895 0 0 1-5.147 4.07.73.73 0 0 0-.608.72c0 6.37-3.222 9.23-3.91 9.54a.74.74 0 0 0-.42.62c-.006.39.034.78.12 1.16.193.878.213 1.785.06 2.67-.937-.19-2.603-.63-3.65-.92a.741.741 0 0 0-.648 1.29c.149.13 1.416 1.31 0 3.57-1.776 0-3.222-2-3.222-2a.728.728 0 0 0-.43-.3l-.249-.06a.731.731 0 0 0-.858 1c2.853 7.68 2.145 15.14-2.144 21-4.927 6.78-13.774 10.36-24.257 9.79a.737.737 0 0 0-.42.13c-11.33 7.85-34.99 13.62-50.37 4.33a66.87 66.87 0 0 1 9.077-16.39c.05.035.109.055.17.06a.38.38 0 0 0 .23.18h.149a7.536 7.536 0 0 0 6.353-5.38zm-9.166 15.41c-.838 2.83 2.913 6.3 11.73 5.9 16.108-.74 22.94-5.09 25.664-6.64a53.087 53.087 0 0 0 8.787-6c.164.96.164 1.94 0 2.9-.08.4.18.79.579.87h.14a.729.729 0 0 0 .687-.59 11.02 11.02 0 0 0-2.683-9.07 8.115 8.115 0 0 0-7.69-2.16h-.08a.368.368 0 0 0-.498.16 6.365 6.365 0 0 1-4.509 3.4 1.584 1.584 0 0 1-1.456-.51c-1.995-2.67.588-5.31.698-5.41 3.541-3 10.344-4.86 18.742-.94 4.638 2.16 7.77 5.41 7.77 8.06a.37.37 0 0 0 .566.37.37.37 0 0 0 .162-.37c0-2-1.406-4.13-3.8-6 3.52-4.84 6.333-9.14 5.266-11.3 0 0-5.496 1.08-13.565-2.16a15.757 15.757 0 0 1-7.58-7.27 31.784 31.784 0 0 0 12.338 5.2c12.827 2.61 24.706-2.43 26.422-11.25 1.715-8.82-7.162-18.04-20.039-20.65-12.876-2.61-24.706 2.43-26.421 11.25-.998 5 1.486 10.21 6.194 14.21-.928 3.14-3.78 12-7.381 14.38-4.409 3-6.593 2.16-13.206 4.43-6.613 2.27-14.643 11.79-16.847 19.18l.01.01z" fill="#D7D7DB" fill-rule="nonzero"/><path d="M83.592 88.87l.758-2.52a.76.76 0 0 0-.508-.94l-3.272-1a1.08 1.08 0 0 0-.509.64l-1.655 5.51a.379.379 0 0 1-.47.25.578.578 0 0 0-.129-.08c-.3-.048-.58-.18-.808-.38a.349.349 0 0 1-.22-.11 7.906 7.906 0 0 1-1.442-8.198 7.872 7.872 0 0 1 6.69-4.932l.119-.39h-.08a.727.727 0 0 1-.369-.1c-3.331-1.91-3.79-6.31-2.144-9.22a4.483 4.483 0 0 1 2.364-2.16 4.08 4.08 0 0 1 3.44.45l-1.765 23.18zm1.776-23.17l.1.09.398-1.31A7.893 7.893 0 0 1 83.443 55a7.845 7.845 0 0 1 5.226-4.47.348.348 0 0 1 .16 0h.638c.16.044.316.097.469.16a.38.38 0 0 1 .25.48l-1.656 5.51c-.085.268-.064.558.06.81l3.3 1a.746.746 0 0 0 .938-.51l1.626-5.41a.34.34 0 0 1 .519-.21.368.368 0 0 1 .469 0 7.583 7.583 0 0 1 2.182 8.175 7.553 7.553 0 0 1-6.74 5.095l-.27.89-.648 2.16c2.144 1.28 6.603 1.92 11.44.72a14.628 14.628 0 0 0 8.738-5.53 1.847 1.847 0 0 1-1.536-1.31c-.11-.48-.06-1.33 1.237-2.23a11.953 11.953 0 0 1-2.454-10.08 20.648 20.648 0 0 1 1.696-5.41 8.374 8.374 0 0 1-2.235-7.24 4.996 4.996 0 0 1 3.292-3.88c3.99-1.38 6.982 2.08 8.07 3.53a26.16 26.16 0 0 1 13.714-3.51h.578a7.384 7.384 0 0 1 5.985-2.89.727.727 0 0 1 .728.74 13.213 13.213 0 0 1-.17 2.08c3.222-1.64 7.64-.24 7.87-.16a.73.73 0 0 1 .499.57 2.675 2.675 0 0 1-.539 2 3.135 3.135 0 0 1-.718.68c9.256 2.56 13.964 7.82 15.25 9.48 1.646-.68 6.444-2.24 9.127 1.19a5.01 5.01 0 0 1 .728 5.06 8.285 8.285 0 0 1-5.675 4.87c-.18 6-2.992 9.05-4.299 10-.008.154.019.308.08.45a8.11 8.11 0 0 1-.13 4 .738.738 0 0 1-.758.53 25.627 25.627 0 0 1-2.793-.61 4.9 4.9 0 0 1-.947 4.11.728.728 0 0 1-.509.31 4.38 4.38 0 0 1-2.992-.8c1.945 7.21.868 14.15-3.182 19.78-5.187 7.14-14.383 10.9-25.265 10.4-6.364 4.33-15.47 7.57-24.447 8.79-2.44.326-4.899.493-7.36.5-6.444 0-13.965-1.21-20.488-5.35a.741.741 0 0 1-.29-.9 66.391 66.391 0 0 1 11.371-19.69l1.786-23.18zm-11.56 42.86c15.38 9.26 39.039 3.48 50.37-4.33a.737.737 0 0 1 .419-.13c10.483.56 19.33-3 24.257-9.79 4.299-5.83 4.987-13.28 2.145-21a.731.731 0 0 1 .857-1l.25.06c.175.043.328.15.429.3 0 0 1.426 2 3.221 2 1.377-2.27.11-3.44 0-3.57a.741.741 0 0 1 .649-1.29c1.077.29 2.713.71 3.65.92a6.958 6.958 0 0 0-.06-2.67 4.862 4.862 0 0 1-.12-1.16.74.74 0 0 1 .42-.62c.648-.3 3.91-3.18 3.91-9.54a.73.73 0 0 1 .608-.72 6.895 6.895 0 0 0 5.147-4.07 3.547 3.547 0 0 0-.46-3.6c-2.313-2.9-6.931-1-7.76-.61 1.165 1.695 2 3.595 2.465 5.6a.37.37 0 0 1-.28.43h-.14a.37.37 0 0 1-.358-.29 15.578 15.578 0 0 0-2.783-6.06 8.74 8.74 0 0 0-.828-.88.37.37 0 0 1-.12-.21 29.522 29.522 0 0 0-16.328-8.86.74.74 0 0 1 .08-1.46 3.317 3.317 0 0 0 2.314-.93c.102-.125.18-.267.23-.42-1.586-.39-6.165-1.21-7.87 1.84a.738.738 0 1 1-1.277-.72 7.455 7.455 0 0 0 .948-3.5 6.241 6.241 0 0 0-4.37 2.6.727.727 0 0 1-.538.25h-.917c-4.03-.11-8.025.79-11.62 2.62a23.937 23.937 0 0 0-4.638 3.24.368.368 0 0 1-.492-.028.37.37 0 0 1-.027-.492 17.292 17.292 0 0 1 2.314-1.82.71.71 0 0 1-.12-.13s-2.902-4.79-6.722-3.48a3.518 3.518 0 0 0-2.344 2.96 7.01 7.01 0 0 0 2.144 6.22c.21.188.295.479.22.75l-.05.19a.741.741 0 0 1-.06.15c0 .09-4.798 9.17.997 14.8a.741.741 0 0 1-.18 1.19c-1.077.54-1.296 1-1.306 1.08-.01.08.389.32 1.347.32a.738.738 0 0 1 .648 1.08c-1.875 3.47-5.526 6-10.254 7.2-4.378 1.08-9.106.83-11.969-.57l-1.785 5.41c1.915 2 7.44 2.93 9.505 3.11a.728.728 0 0 1 .599.44 23.705 23.705 0 0 1 6.293-1.19.37.37 0 0 1 0 .74 23.188 23.188 0 0 0-6.443 1.29.718.718 0 0 1-.3.16 23.455 23.455 0 0 0-7.52 4.33c.14 3.91-2.745 7.269-6.623 7.71h-.15a.38.38 0 0 1-.229-.18.349.349 0 0 1-.17-.06l-9.225 16.39zm9.176-16.41a66.87 66.87 0 0 0-9.077 16.39l9.077-16.39zm4.568-14.86l-.469 1.58a7.47 7.47 0 0 1 1.676 1.69l.27.4c.099.15.199.31.289.48.26.5.464 1.026.608 1.57a29.153 29.153 0 0 1 4.798-3c-2.374-.44-5.466-1.27-7.272-2.74l.1.02zm-11.63 5.62a7.146 7.146 0 0 0 .539 5.41c.163.307.35.601.558.88l1.417-4.71a1.486 1.486 0 0 1 1.845-1l3.9 1.19a1.487 1.487 0 0 1 .997 1.86l-1.416 4.71a7.138 7.138 0 0 0 1.706-12.53.37.37 0 0 1-.14-.41l.997-3.31a9.42 9.42 0 0 1-3.152 1.08l-.439 1.44a.37.37 0 0 1-.329.26 7.105 7.105 0 0 0-6.583 5.13h.1zm8.368-16.05a2.468 2.468 0 0 0-1.855-.16 2.995 2.995 0 0 0-1.576 1.45 5.692 5.692 0 0 0 .699 6.49.716.716 0 0 1 .399 0 6.621 6.621 0 0 0 4.328-1.34 2.9 2.9 0 0 0 1.387-2.16c-.16-2.14-2.843-3.95-3.382-4.28zm6.165-8.3l-.23-.06.23.06zm5.645 1.38a7.146 7.146 0 0 0-.539-5.41 6.902 6.902 0 0 0-.558-.88l-1.416 4.71a1.486 1.486 0 0 1-1.846 1l-3.9-1.19a1.487 1.487 0 0 1-.997-1.86l1.436-4.71a7.138 7.138 0 0 0-1.706 12.53.37.37 0 0 1 .14.41l-.558 1.82a9.2 9.2 0 0 1 2.144 2.23l.998-3.24a.37.37 0 0 1 .339-.26 7.095 7.095 0 0 0 6.473-5.15h-.01z" fill="#9B9B9B" fill-rule="nonzero"/><path d="M123.679 61.24a.727.727 0 0 1 .888.54 3.24 3.24 0 0 0 1.386 1.95c.663.24 1.4.16 1.995-.22a.726.726 0 0 1 .997.39c.21.679.712 1.229 1.367 1.5a3.861 3.861 0 0 0 2.733-.4.737.737 0 0 1 .965.306.741.741 0 0 1-.247.984 5.973 5.973 0 0 1-2.673.71 3.771 3.771 0 0 1-1.257-.21 3.564 3.564 0 0 1-1.925-1.68 3.324 3.324 0 0 1-2.563-.06 4.689 4.689 0 0 1-2.155-2.92.74.74 0 0 1 .489-.89zm23.04-3.34a1.104 1.104 0 1 1-2.064-.78s.439-1.18 1.077-2.91a1.1 1.1 0 1 1 2.065.76c-.668 1.76-1.077 2.93-1.077 2.93zm-24.047-6.6a1.101 1.101 0 0 1-1.85.46 1.105 1.105 0 0 1-.265-1.07l.778-2.49a1.125 1.125 0 1 1 1.955-.518c.282.324.355.781.19 1.178l-.808 2.44z" fill="#545B80" fill-rule="nonzero"/><path d="M143.049 57.8a.74.74 0 0 1 .29.48c.034.678.385 1.3.947 1.68a3.463 3.463 0 0 0 2.623-.09.741.741 0 0 1 .579 1.35 5.971 5.971 0 0 1-2.145.44 3.305 3.305 0 0 1-3.441-3.16.727.727 0 1 1 1.147-.71v.01zm-24.038-6a2.16 2.16 0 0 0 1.077 1.57 3.453 3.453 0 0 0 2.643-.38.737.737 0 0 1 .936.324.741.741 0 0 1-.227.966 5.823 5.823 0 0 1-2.554.68c-.452.003-.9-.086-1.316-.26a3.538 3.538 0 0 1-1.995-2.51.738.738 0 1 1 1.416-.39h.02z" fill="#E1E1E7" fill-rule="nonzero"/><path d="M97.457 83.37c6.593-2.16 8.797-1.48 13.206-4.43 3.6-2.41 6.443-11.25 7.38-14.38-4.707-4-7.2-9.17-6.194-14.21 1.766-8.81 13.595-13.85 26.422-11.25 12.827 2.6 21.824 11.9 20.029 20.67-1.796 8.77-13.595 13.86-26.422 11.23a31.785 31.785 0 0 1-12.308-5.27 15.757 15.757 0 0 0 7.61 7.27c8.07 3.32 13.565 2.16 13.565 2.16 1.077 2.16-1.736 6.49-5.266 11.3a21.794 21.794 0 0 0-4.39-2.68c-5.714-2.67-13.843-3.78-19.539 1.08-.05 0-3.162 3.24-.798 6.41a2.261 2.261 0 0 0 2.145.8 6.98 6.98 0 0 0 4.658-3.06c.163.153.388.22.608.18a6.71 6.71 0 0 1 6.384 1.72 9.01 9.01 0 0 1 2.264 4.86 53.087 53.087 0 0 1-8.787 6c-2.694 1.56-9.526 5.9-25.664 6.64-8.818.4-12.578-3.08-11.73-5.9 2.164-7.36 10.224-16.94 16.827-19.14zm49.672-29.81a1.075 1.075 0 0 0-1.407.66c-.638 1.74-1.077 2.91-1.077 2.91-.139.37-.07.786.18 1.091a1.102 1.102 0 0 0 1.885-.311s.438-1.18 1.077-2.93a1.083 1.083 0 0 0-.658-1.42zm-3.571 7.69a3.553 3.553 0 0 0 1.735.41 5.971 5.971 0 0 0 2.145-.44.741.741 0 0 0-.579-1.35 3.463 3.463 0 0 1-2.623.09 2.162 2.162 0 0 1-.888-1.67.74.74 0 0 0-1.226-.532.741.741 0 0 0-.22.762 3.551 3.551 0 0 0 1.666 2.74l-.01-.01zM122.71 47.44a1.075 1.075 0 0 0-1.376.72l-.778 2.49a1.083 1.083 0 0 0 .718 1.38 1.366 1.366 0 0 0 1.397-.78l.778-2.49a1.08 1.08 0 0 0-.739-1.32zm12.558 13a1.513 1.513 0 0 0-.18-1.65c-2.453-3-8.079-4.33-9.974-3.88-.543.087-.99.474-1.157 1a2.897 2.897 0 0 0 .27 2.16 12.338 12.338 0 0 0 3.47 3.77c.443.355.942.633 1.477.82h.778c1.596-.12 4.728-1 5.316-2.17v-.05zm-12.139 1.7a4.689 4.689 0 0 0 2.155 2.86 3.324 3.324 0 0 0 2.563.06 3.564 3.564 0 0 0 1.925 1.68c.404.14.83.212 1.257.21a5.973 5.973 0 0 0 2.673-.71.741.741 0 0 0 .247-.984.737.737 0 0 0-.965-.306 3.861 3.861 0 0 1-2.733.4 2.388 2.388 0 0 1-1.366-1.5.73.73 0 0 0-.998-.39 2.27 2.27 0 0 1-1.995.22 3.24 3.24 0 0 1-1.386-1.95.74.74 0 0 0-1.26-.415.741.741 0 0 0-.166.765l.05.06zm-3.59-7.4c.417.174.864.263 1.316.26a5.823 5.823 0 0 0 2.554-.68.744.744 0 0 0 .304-1.005.74.74 0 0 0-1.003-.305 3.453 3.453 0 0 1-2.603.36 2.16 2.16 0 0 1-1.077-1.57.74.74 0 0 0-1.272-.396.741.741 0 0 0-.144.776 3.549 3.549 0 0 0 1.925 2.58v-.02z" fill="#F9F9FA" fill-rule="nonzero"/><path d="M44.134 67.09a51.015 51.015 0 0 1 4.987 7.74c1.616 3.24-3.59 9.54-5.725 11.7a.765.765 0 0 0 0 1.08.76.76 0 0 0 1.077 0c.25-.25 4.499-4.57 5.985-8.78a25.345 25.345 0 0 1 2.334 6.91 6.524 6.524 0 0 1-.748 3.62l-4.988 6.89a.741.741 0 0 0 .15.92c.267.218.65.218.918 0a29.717 29.717 0 0 0 5.136-7.09l.16-.22c.225.708.409 1.43.549 2.16.08.35.16.74.259 1.15.2.89-.09 1.37-.778 2.38a11.687 11.687 0 0 0-2.144 5.46c-.739 5.26 10.482 8.76 13.265 9.55a1.239 1.239 0 0 1-.548.58c-3.102 2.07-14.363 2-18.802-2.42-5.426-5.46-7.85-11-7.85-17.93 0-6.08 5.197-19.6 6.813-23.65" fill="#A5A5A5" fill-rule="nonzero"/><path d="M65.34 109.21a.729.729 0 0 1 .498.44 2.172 2.172 0 0 1-1.077 2.67c-1.456 1-4.419 1.58-7.72 1.58-4.608 0-9.975-1.18-12.887-4.18-5.725-5.76-8.279-11.61-8.279-19 0-7.39 7.092-24.65 7.391-25.38a.737.737 0 0 1 1.247-.18 54.4 54.4 0 0 1 5.985 9 4.77 4.77 0 0 1 .419 2.63c.119.062.219.155.289.27a26.724 26.724 0 0 1 2.992 8.35c.12.863.06 1.742-.18 2.58.739.77.998 1.85 1.377 3.62l.26 1.08c.25 1.278-.12 2.6-.998 3.56a10.245 10.245 0 0 0-1.935 4.84c-.529 3.69 9.206 7.13 12.657 8m-.848 1.3c-2.772-.78-13.964-4.33-13.265-9.55.239-1.973.977-3.853 2.144-5.46.688-1 .998-1.49.778-2.38-.1-.41-.18-.8-.26-1.15a18.85 18.85 0 0 0-.548-2.16l-.16.22A29.717 29.717 0 0 1 48.085 97a.727.727 0 0 1-.918 0 .741.741 0 0 1-.15-.92l4.988-6.89a6.524 6.524 0 0 0 .748-3.62 25.345 25.345 0 0 0-2.334-6.91c-1.456 4.21-5.715 8.53-5.985 8.78a.76.76 0 0 1-1.077 0 .765.765 0 0 1 0-1.08c2.144-2.16 7.341-8.46 5.725-11.7a51.015 51.015 0 0 0-4.987-7.74c-1.616 4-6.812 17.57-6.812 23.65 0 6.93 2.413 12.47 7.85 17.93 4.448 4.48 15.689 4.49 18.801 2.42.242-.127.435-.331.549-.58" fill="#7F7F7F" fill-rule="nonzero"/><path d="M79.303 13.65a.428.428 0 0 1-.289-.11 9.711 9.711 0 0 0-5.366-2.16 13.312 13.312 0 0 0-4.1 0 .43.43 0 0 1-.15-.85 14.098 14.098 0 0 1 4.37-.05 10.529 10.529 0 0 1 5.775 2.4.43.43 0 0 1-.29.76l.05.01zM61.828 16a.438.438 0 1 1-.658-.57 17.097 17.097 0 0 1 1.895-1.87.438.438 0 0 1 .574.088.44.44 0 0 1-.015.582A16.158 16.158 0 0 0 61.828 16zm-21.943 9.93a.429.429 0 1 1-.748-.42c.28-.51.748-1.31 1.376-2.25a.438.438 0 0 1 .718.49A18.06 18.06 0 0 0 39.885 26v-.07zm-3.491.75h-.858a.434.434 0 0 1 0-.87h.878a.434.434 0 0 1 0 .87h-.02zm23.04-7.18a.43.43 0 1 1-.757-.41c.13-.24.269-.5.438-.78a.429.429 0 1 1 .738.44c-.15.25-.269.54-.418.77v-.02zm22.094 2.11h-.06a.429.429 0 0 1-.37-.49 8.13 8.13 0 0 1 .1-.84.43.43 0 1 1 .858.06c.014.27-.017.54-.09.8v.1a.43.43 0 0 1-.438.39v-.02zM79.932 26a.431.431 0 0 1 0-.41s.18-.42.409-1.08a.432.432 0 1 1 .818.28l-.19.56h.748a.434.434 0 0 1 0 .87h-1.416a.429.429 0 0 1-.37-.22z" fill="#71C6FF" fill-rule="nonzero"/><path d="M99.252 30H22.45a.869.869 0 0 1 0-1.74h17.824c1.586-2.94 5.546-9.28 10.493-10.23 6.563-1.27 7.87 5.33 7.87 5.33s4.358-11.42 15.4-9.9c5.266.75 7.261 3.54 7.75 6.54a.428.428 0 0 0-.638.35 5.634 5.634 0 0 1-.1.84.43.43 0 0 0 .369.49h.06a.43.43 0 0 0 .429-.38v-.08a15.037 15.037 0 0 1-.4 4.11h-.638l.19-.56a.432.432 0 1 0-.818-.28c-.23.67-.409 1.08-.409 1.08a.431.431 0 0 0 .399.62h1.067a17.14 17.14 0 0 1-.728 2.16h18.682a.869.869 0 0 1 0 1.74V30z" fill="#55B2FF" fill-rule="nonzero"/><path fill="#6ECBDC" fill-rule="nonzero" d="M90.425 58.55l-.23-.07z"/><path d="M87.512 71.18a2.9 2.9 0 0 1-1.386 2.16 6.621 6.621 0 0 1-4.3 1.33.716.716 0 0 0-.398 0 5.692 5.692 0 0 1-.698-6.49 2.995 2.995 0 0 1 1.566-1.44 2.468 2.468 0 0 1 1.855.16c.678.29 3.361 2.1 3.361 4.28z" fill="#D7D7DB" fill-rule="nonzero"/><path d="M126.302 9.4h-.399a.44.44 0 0 1 0-.88h.4a.44.44 0 0 1 0 .88zm31.38-6.5a.428.428 0 0 1-.33-.15 4.118 4.118 0 0 0-1.995-1.23.44.44 0 0 1 .26-.83c.916.256 1.74.77 2.374 1.48a.43.43 0 0 1-.33.71l.02.02zm-5.566-1.65c-.27.037-.536.09-.798.16h-.12a.43.43 0 0 1-.12-.85c.296-.078.595-.138.898-.18.24-.036.463.13.499.37a.43.43 0 0 1-.37.51l.01-.01zm-19.76 8.15h-2.603a.44.44 0 0 1 0-.88h2.604a.44.44 0 0 1 0 .88zm25.116-.3a.43.43 0 0 1 .429-.43h10.383a.44.44 0 0 1 0 .88h-10.383a.428.428 0 0 1-.43-.44V9.1zm-12.269-2.79a3.224 3.224 0 0 0-2.992-2.53 4.318 4.318 0 0 0-.818.09 6.978 6.978 0 0 0-3.41 2 .438.438 0 0 1-.57-.057.44.44 0 0 1-.03-.573 7.776 7.776 0 0 1 3.82-2.24c.33-.065.663-.099.998-.1a3.992 3.992 0 0 1 3.8 3 .43.43 0 0 1 .17.54l-.06.15a.449.449 0 0 1-.409.28h-.15a.43.43 0 0 1-.319-.35l-.03-.21z" fill="#71C6FF" fill-rule="nonzero"/><path d="M168.414 12.46h-42.89a.88.88 0 0 1 0-1.74h10.154c.878-1.63 3.092-5.19 5.865-5.72a3.367 3.367 0 0 1 3.59 1.27v.18a.43.43 0 0 0 .28.32c.207.377.36.781.459 1.2 0 0 2.434-6.38 8.598-5.53 4.528.62 4.698 4 4.299 6.23h-.918a.44.44 0 0 0 0 .88h.708c-.11.402-.247.796-.409 1.18h10.224a.88.88 0 0 1 0 1.74l.04-.01z" fill="#55B2FF" fill-rule="nonzero"/><path d="M129.404 62.72h-.23a4.983 4.983 0 0 1-1.475-.82 12.338 12.338 0 0 1-3.511-3.78 2.897 2.897 0 0 1-.27-2.16 1.457 1.457 0 0 1 1.157-1c1.876-.42 7.521.91 9.975 3.88.383.465.453 1.113.18 1.65-.6 1.19-3.751 2.07-5.307 2.25l-.519-.02z" fill="#545B80" fill-rule="nonzero"/><path d="M88.22 74.74l-.937 3.38-.27.89a7.59 7.59 0 0 1 2.755 7.995 7.567 7.567 0 0 1-6.345 5.575.37.37 0 0 1-.4-.27.349.349 0 0 1-.308-.46l1.645-5.41a.76.76 0 0 0-.498-.94l-3.302-1a1.08 1.08 0 0 0-.509.64l-1.685 5.5a.379.379 0 0 1-.469.25 3.982 3.982 0 0 1-.479-.13c-.24-.21-.359-.17-.538-.35a.36.36 0 0 1-.13-.09 7.876 7.876 0 0 1-1.443-8.226 7.841 7.841 0 0 1 6.76-4.884l.398-1.31m2.992-10.06l.4-1.31a7.893 7.893 0 0 1-2.414-9.43 7.845 7.845 0 0 1 5.226-4.47.348.348 0 0 1 .16 0h.638c.16.044.316.097.469.16a.38.38 0 0 1 .25.48l-1.656 5.51c-.085.268-.064.558.06.81l3.3 1a.746.746 0 0 0 .938-.51l1.626-5.41a.34.34 0 0 1 .519-.21.368.368 0 0 1 .469 0 7.583 7.583 0 0 1 2.182 8.175 7.553 7.553 0 0 1-6.74 5.095l-.27.89L89.537 70" fill="#FFA000" fill-rule="nonzero"/><path d="M86.076 66.32l.558-1.82a.37.37 0 0 0-.14-.41A7.148 7.148 0 0 1 88.2 51.56l-1.386 4.67a1.493 1.493 0 0 0 .997 1.86l3.9 1.19a1.486 1.486 0 0 0 1.846-1l1.416-4.71c.208.279.395.573.559.88a7.176 7.176 0 0 1-.1 6.914 7.14 7.14 0 0 1-5.885 3.606.37.37 0 0 0-.34.26l-.997 3.24a9.2 9.2 0 0 0-2.144-2.23l.01.08zm-3.401 11.24l.439-1.44a9.42 9.42 0 0 0 3.151-1.08l-.997 3.31a.37.37 0 0 0 .14.41 7.148 7.148 0 0 1-1.706 12.53l1.396-4.79a1.493 1.493 0 0 0-.997-1.86l-3.9-1.19a1.486 1.486 0 0 0-1.845 1l-1.417 4.71a6.862 6.862 0 0 1-.558-.88 7.176 7.176 0 0 1 .099-6.914 7.14 7.14 0 0 1 5.885-3.606.37.37 0 0 0 .27-.2h.04z" fill="#FFEC00" fill-rule="nonzero"/><path d="M105.316 65.74l.1.09" fill="#B1B1B3" fill-rule="nonzero"/></g></svg>
