<svg xmlns="http://www.w3.org/2000/svg" viewBox="0 0 281.8 270" aria-hidden="true" role="img"><style>.st0{fill:#434545}.st2{fill:#fdfdfd}.st4{fill:#96adb5}</style><path class="st0" d="M8.4 106.2c3-2.9 6.8-3.6 10.8-4 12.8-1.2 25.5-1.6 38.1 1.8 1.7.5 1.8-.5 2.1-1.8 2.8-13.4 9.3-25.1 16.5-36.5 8-12.6 19.1-21.6 31.9-28.7 3.6-2 5.9-3.8 5.8-8.5-.2-7 1.3-8.1 8.1-8.3 22.9-.9 45.8-2.3 68.8-1.1 1.8.1 3.6.3 5.5.5 6.6.8 6.6.8 3.2 6.7-1.1 1.9-2.3 3.6-3.8 6.1 9.6-2.2 18.4-5.4 27.5-6.8 10.2-1.6 20.4-3.4 30.7-1.7 1 0 2 .2 3 .4 11.2 4.7 14.2 2.9 6.9 16.6-7 13.2-16.4 24.6-25.5 36.2-2.5 3.2-2.5 5.5-.3 9.2 7 12.2 10.8 25.4 12.3 39.6 1.8 16.9.2 33.9-4.6 50.2-3.2 10.7-9.4 20.3-17.9 27.7-11.3 10.1-22.8 19.7-36 27.4-8.4 4.9-15 12.6-23.4 17.8-2.3 1.4-4.4 3.3-6.6 5h-2l-12.4-15.6c-1.9-2.4-3.9-3.2-6.8-1.4-6.5 3.9-13.7 6.7-20 11.1-2.5 1.8-4 1.3-5.7-1.1-3.6-5.2-7.7-10-11.3-15.2-2.4-3.6-4.7-4.1-8.2-1.4-2.4 1.8-5.1 3.1-8 4.1-3.7 1.4-6.9 6.7-10.4 4.5-3-1.9-4.3-6.9-5.7-10.8-5.9-16.2-11.7-32.4-15.4-49.4-.5-2.8-2.3-5.2-4.7-6.6-4.5-2.8-9-5.8-12.4-9.9-10.7-12.7-20.6-26-25.9-42.2-1.2-3.7-.9-8.2-4.2-11.2v-2.7zm108.7 26.9c-.1-10.1-2.1-20.1-1.7-30.4.7-19.5-.7-38.9-1.9-58.3-.1-2.2-.1-4.6-3.1-2-6.2 5.3-13.5 9.2-19.1 15.2C80 69.8 72.7 84.1 68.4 100.2c-1.6 6.1-2.3 11.1 3.4 15.2-4.1-.7-8.3-.5-12.3.6-8.6 2.5-17.5.4-26.3 1.7-3.8.6-3.4 1.8-2.4 4.3 5.4 14.2 11.7 28.3 22 39.4 7.2 7.8 13.3 15.5 15.7 25.9 3 14 8.6 27.2 12.8 40.8.6 2 1.5 2.5 3.6 1 3.3-2.5 7-4.5 10.5-6.7 5.3-3.2 6.8-3.1 11 1.8 3.7 4.3 7.2 8.8 10.5 13.3 1.6 2.2 2.8 2.5 5.1.9 5.8-3.9 12.1-6.8 18.5-9.8 4.6-2.2 7.9-1.2 10.9 2.4s6.3 7.3 9.4 11c1.2 1.4 2.2 2.2 4.1.7 5.6-4.5 11.2-8.8 15.9-14.3 10.4-7.6 21.7-14 31.8-22.2 24.4-19.9 30.3-46.5 28.5-76-.5-6.3-.6-12.6-1.9-18.8-.7-3.5-2.3-4-5.5-3.8-13.4 1.2-26.8 2.7-40.3.7-1.2-.2-2.9-.5-3.5 1.1-1.3 3.4-4.3 5-6.9 7s-3.9 4.1-3.7 7.6c.3 6.6-.2 13.3.3 20 .8 11.5-1 23 .9 34.4.5 10.6-.4 21.2-.9 31.8-3.8 5-9.5 4.8-14.9 5.2-13.8.7-27.7-.1-41.3-2.3-4.5-.7-8.5-2.4-11.1-6.4 1.6-1.4 3.4-1 5-1.1 7.6-.5 15.2-.9 22.9-1.3 1.7-.1 3.5 0 4.3-1.9 1-2.3-1-3.2-2.3-4.4-4.2-4-8.4-8.1-12.5-12.2-1.4-1.4-2.7-3-1.8-5.3 8.6-1 17.3-2.1 26-2.9 3-.1 5.9 0 8.9.4 3.2.3 5.3 1.8 5.1 5.4-1 2.5-2.8 4.6-5.1 6-4.2 2.4-7.9 5.6-10.9 9.3-.8 1.1-3.3 1.1-2.5 3.1.7 1.6 2.5 2.1 4.2 2.1 5.5-.1 11-.4 16.5-.5 2.6 0 3.7-1.3 3.5-3.7-.5-5.5.2-11-.9-16.4-.2-18-.6-35.9-.6-53.9 0-5.2-2.1-7.3-7.1-8-13.1-1.9-22.2-14-20.3-27.1.6-4 2.1-7.7 4.5-10.9 6.1-8.4 18.4-12.6 27-9.2 8.9 3.5 16.8 16.5 15.6 26.1-.4 3.6 1.6 3.5 3.8 3.3 8-.7 15.9-1.6 23.9-1.2 5.5.2 13.1 1.1 15.2-2.9s-2.6-10-5.5-14.7c-2.1-3.4-5.8-5.9-6.5-11.5 4 3.9 5.2 1.7 7.1-1.3 5.3-8.3 8.7-17.6 13-26.4 2.2-4.5.7-6.1-3.5-6.4-15.6-1-31.2-5.5-46.9-.8-1.2.3-2.4.7-3.2-.3s.3-2.2.7-3.2c1-2.1 2.2-4.1 3.5-6 2.2-3.2 1-4-2.4-3.8-8 .5-15.9.2-23.9.4-14.6.3-29.2 1.6-43.8 2.4-2.3.1-2.6 1-2.6 3 .6 18.9 1.3 37.9 1.7 56.8.4 18.5 1.7 36.9 1 55.4-.1 2.8-.7 4.5-3.7 4.7-1.7-1.2-1.9-3-2-4.8-.3-3.3-.4-6.6-.6-9.9zm50.4-18.9c9.7 2.2 17.1-6.4 17.1-13.6 0-10.3-6.4-17.5-16.7-18-10-.4-16.4 6.1-16.6 16.9-.3 8.8 5.9 14.4 16.2 14.7z"/><path d="M167.6 183.3c.2-3.6-1.9-5.1-5.1-5.4-2.9-.4-5.9-.6-8.9-.4-8.7.8-17.3 1.9-26 2.9-2.2-2.5-2.4-5.7-3.3-8.6-1.7-5.4-1.1-11.5-4.3-16.5-1.4-2.4-.5-4.9-.5-7.3 3-.2 3.6-1.9 3.7-4.7.6-18.5-.6-36.9-1-55.4-.5-19-1.1-37.9-1.7-56.8-.1-2.1.2-2.9 2.6-3 14.6-.7 29.2-2 43.8-2.4 8-.2 15.9.1 23.9-.4 3.3-.2 4.5.6 2.4 3.8-1.3 1.9-2.5 3.9-3.5 6-.4.9-1.7 2-.7 3.2s2.1.6 3.2.3c15.7-4.7 31.3-.2 46.9.8 4.1.3 5.7 1.9 3.5 6.4-4.3 8.8-7.6 18-13 26.4-1.9 3-3.1 5.2-7.1 1.3.7 5.6 4.4 8.1 6.5 11.5 2.9 4.7 7.6 10.8 5.5 14.7s-9.8 3.1-15.2 2.9c-8-.4-16 .5-23.9 1.2-2.2.2-4.3.3-3.8-3.3 1.2-9.6-6.8-22.6-15.6-26.1-8.6-3.4-20.9.8-27 9.2-7.9 10.6-5.7 25.6 4.9 33.5 3.2 2.4 6.9 3.9 10.9 4.5 5.1.8 7.1 2.8 7.1 8 0 18 .3 35.9.6 53.9l-4.9-.2z" fill="#c8dfe7"/><path class="st2" d="M120.1 155.1c3.2 5.1 2.6 11.1 4.3 16.5.9 3 1.1 6.2 3.3 8.6-.9 2.3.4 3.9 1.8 5.3 4.1 4.1 8.3 8.1 12.5 12.2 1.3 1.2 3.3 2.1 2.3 4.4-.8 1.9-2.6 1.8-4.3 1.9-7.6.4-15.2.8-22.9 1.3-1.6.1-3.3-.3-5 1.1 2.7 4 6.6 5.8 11.1 6.4 13.6 2.3 27.4 3 41.2 2.3 5.3-.3 11-.2 14.9-5.2.7 6.1-1.2 12.3 1.2 18.3-4.6 5.5-10.3 9.8-15.9 14.3-1.9 1.5-2.9.7-4.1-.7-3.1-3.7-6.3-7.3-9.4-11s-6.3-4.6-10.9-2.4c-6.3 3-12.7 5.9-18.5 9.8-2.3 1.6-3.5 1.3-5.1-.9-3.3-4.6-6.8-9.1-10.5-13.3-4.2-4.9-5.7-5-11-1.8-3.6 2.1-7.2 4.2-10.5 6.7-2 1.5-3 1-3.6-1-4.2-13.6-9.8-26.8-12.8-40.8 3.7 0 7.5.3 11.2.8 2.6.4 5.5 1.1 8-.9 1.3.3 2.6.6 3.8 1 7.2 2.1 13.9 1.9 19.9-3.7 5.3-4.6 8.3-11.3 8.3-18.3.5-.4.6-.9.1-1.3l-.1-2.3c1.6-2.2.7-4.7.7-7.3z"/><path d="M180.3 178.3c-2-11.4-.2-22.9-.9-34.4-.4-6.6 0-13.3-.3-20-.2-3.4 1.3-5.6 3.7-7.6s5.6-3.7 6.9-7c.6-1.6 2.3-1.3 3.5-1.1 13.5 2 26.9.5 40.3-.7 3.2-.3 4.8.2 5.5 3.8 1.3 6.2 1.4 12.5 1.9 18.8-1.6.6-1.9 2.2-2.6 3.5-5.2 10-12.5 18.8-21.4 25.6-8 6.3-17.5 10.1-26.1 15.2-3.3 2-6.3 4.6-10.5 3.9zM71.8 115.4c-5.6-4.1-5-9.1-3.4-15.2C72.7 84.1 80 69.8 91.3 57.6c5.6-6 12.9-9.9 19.1-15.2 3-2.6 3-.2 3.1 2 1.2 19.4 2.6 38.9 1.9 58.3-.4 10.3 1.6 20.3 1.7 30.4-8.4-2.6-17.5-2.6-25.4-6.8-6.2-3.3-12.2-6.9-19-8.8-1.8-.5-1-1.3-.9-2.1z" fill="#a3bac2"/><path class="st4" d="M71.8 115.4c0 .8-.8 1.6.9 2.1 6.8 1.9 12.8 5.5 19 8.8 7.9 4.2 17 4.2 25.4 6.8.2 3.3.3 6.6.5 9.9.1 1.8.3 3.6 2 4.8 0 2.5-.9 5 .5 7.3 0 2.5.9 5.1-.6 7.5-2-2.7-2.1-6.2-3.7-9.1-4.1-7.6-9.2-14-22.7-11.9-8 1.2-16.1 8.4-17.9 16.6-2.8 12.6 1.8 22 12.2 29.1-2.5 1.9-5.4 1.2-8 .9-3.7-.5-7.4-.8-11.2-.8-2.4-10.4-8.5-18.1-15.7-25.9-10.2-11.1-16.5-25.2-22-39.4-1-2.5-1.3-3.8 2.4-4.3 8.8-1.3 17.7.9 26.3-1.7 4.2-1.2 8.4-1.4 12.6-.7z"/><path d="M180.3 178.3c4.2.8 7.2-1.8 10.5-3.8 8.6-5.2 18.1-9 26.1-15.2 8.9-6.9 16.2-15.6 21.4-25.6.7-1.3 1-2.9 2.6-3.5 1.8 29.6-4 56.2-28.5 76-10.1 8.2-21.3 14.6-31.8 22.2-2.4-6-.6-12.2-1.2-18.2.5-10.7 1.3-21.3.9-31.9z" fill="#8ba2aa"/><path class="st2" d="M167.5 114.2c-10.2-.3-16.4-6-16.2-14.7.3-10.8 6.7-17.3 16.6-16.9 10.2.4 16.6 7.6 16.7 18 0 7.2-7.4 15.8-17.1 13.6zm1.4-4.9c6.3-.1 10-3.5 10-9.3 0-6.6-4.6-11.6-10.5-11.5-5.6 0-10 5.3-9.8 11.6 0 5.1 4.7 9.3 10.3 9.2zm-1.3 74h4.7c1.2 5.4.4 10.9.9 16.4.2 2.4-.9 3.7-3.5 3.7-5.5.1-11 .4-16.5.5-1.7 0-3.6-.5-4.2-2.1-.8-2 1.7-2.1 2.5-3.1 3.1-3.7 6.8-6.9 10.9-9.3 2.5-1.5 4.2-3.6 5.2-6.1z"/><path class="st0" d="M87.5 187.2c-10.4-7-15-16.4-12.2-29.1 1.8-8.2 9.9-15.4 17.9-16.6 13.5-2.1 18.5 4.3 22.7 11.9 1.6 2.9 1.7 6.4 3.7 9.1l.1 2.3-.1 1.3c0 7-3 13.7-8.3 18.3-6 5.5-12.7 5.8-19.9 3.7-1.4-.3-2.6-.6-3.9-.9zm12.3-5c7.2 1.8 13.1-7.6 13.1-15.9 0-8.6-7.6-16.9-15.7-17-8.9-.1-15.7 7.3-15.8 17-.2 8.5 8.4 15.9 18.4 15.9z"/><path class="st4" d="M119.5 166.3l.1-1.3c.5.4.4.9-.1 1.3z"/><path class="st0" d="M168.9 109.3c-5.6 0-10.3-4.1-10.4-9.3-.2-6.3 4.3-11.6 9.8-11.6 5.9 0 10.5 5 10.5 11.5.1 5.9-3.7 9.4-9.9 9.4z"/><path class="st2" d="M99.8 182.2c-9.9 0-18.5-7.4-18.4-15.8.1-9.8 6.9-17.1 15.8-17 8.1.1 15.8 8.4 15.7 17 0 8.2-5.9 17.6-13.1 15.8zm-12.3-16.9c0 6.6 3.8 10.8 9.8 10.8 5.4-.1 9.7-4.6 9.7-10 .1-6.6-3.1-10.4-8.8-10.2-7.5 0-10.7 2.9-10.7 9.4z"/><path class="st0" d="M87.5 165.3c0-6.5 3.2-9.3 10.7-9.5 5.7-.1 9 3.7 8.8 10.2 0 5.4-4.3 9.9-9.7 10-6.1 0-9.8-4.1-9.8-10.7z"/></svg>
