<svg xmlns="http://www.w3.org/2000/svg" id="Layer_1" data-name="Layer 1" viewBox="0 0 129 140"><defs><style>.cls-11,.cls-4{fill:none;stroke:#fff}.cls-2{fill:#fff}.cls-3{fill:#0071bc}.cls-11,.cls-4{stroke-linecap:round;stroke-linejoin:round}.cls-11{stroke-width:1.57px}</style></defs><circle cx="112.47" cy="15.5" r="2.63" stroke-width="1.68" stroke-miterlimit="10" stroke="#fff" fill="none"/><circle class="cls-2" cx="8.75" cy="78.65" r="2.96"/><path class="cls-2" d="M108.06 122.9l-4.06-1.81a.22.22 0 0 1 0-.41l4.08-1.21a.25.25 0 0 0 .14-.13l2.08-4.76a.22.22 0 0 1 .41 0l2 4.76a.19.19 0 0 0 .14.12l4.37 1.15a.22.22 0 0 1 0 .41l-4.3 1.88a.2.2 0 0 0-.11.11l-2.1 4.2a.23.23 0 0 1-.4 0l-2.15-4.21a.24.24 0 0 0-.1-.1z"/><circle class="cls-3" cx="109.9" cy="12.26" r="1.57"/><circle class="cls-3" cx="17.46" cy="123.24" r="3.21"/><circle class="cls-2" cx="33.38" cy="12.12" r="1.57"/><path class="cls-4" d="M12.8 21.74l-4.29-1.9 4.33-1.29 2.13-4.86 2.01 4.86 4.63 1.22-4.52 1.97L14.97 26l-2.17-4.26z"/><path stroke-width="1.5" stroke="#0071bc" stroke-linecap="round" stroke-linejoin="round" fill="none" d="M110.58 118.56l-3.29-1.45 3.32-.99 1.63-3.73 1.54 3.73 3.55.93-3.46 1.51-1.63 3.26-1.66-3.26z"/><circle cx="96.94" cy="128.18" r="2.63" stroke="#0071bc" stroke-width="1.68" stroke-miterlimit="10" fill="none"/><rect x="27.8" y="32.42" width="66.92" height="83.65" rx="6.91" ry="6.91" stroke-width="2.05" stroke-miterlimit="10" stroke="#fff" fill="none"/><rect x="33.38" y="28.42" width="65.35" height="81.68" rx="7.04" ry="7.04" fill="#008abe"/><circle cx="67.68" cy="48.81" r="9.03" fill="#22b573"/><circle cx="70.43" cy="46.06" r="7.85" stroke-width="1.57" stroke="#7ac9c6" stroke-miterlimit="10" fill="none"/><path class="cls-4" d="M65.72 45.49l4.71 4.71 11-11"/><path class="cls-11" d="M59.29 68.87h29.85"/><circle class="cls-2" cx="52.23" cy="68.87" r="2.36"/><path class="cls-11" d="M59.29 79.08h29.85"/><circle class="cls-2" cx="52.23" cy="79.08" r="2.36"/><path class="cls-11" d="M59.29 89.29h29.85"/><circle class="cls-2" cx="52.23" cy="89.29" r="2.36"/><rect x="41.23" y="22.14" width="64.09" height="80.11" rx="6.62" ry="6.62" stroke="#22b573" stroke-width="3" stroke-miterlimit="10" fill="none"/><circle cx="6.94" cy="75.84" r="2.14" stroke-width="2" stroke="#0071bc" stroke-miterlimit="10" fill="none"/><circle cx="15.37" cy="127.3" r="2.25" stroke-width="1.43" stroke-miterlimit="10" stroke="#fff" fill="none"/><circle class="cls-3" cx="117.34" cy="24.85" r="1.57"/><circle class="cls-3" cx="13.62" cy="87.01" r="1.57"/><circle class="cls-3" cx="114.88" cy="57.34" r="1.57"/><circle class="cls-2" cx="119.88" cy="64.34" r="1.57"/><path class="cls-3" d="M15.7 17.7l-3.4-1.51a.31.31 0 0 1 0-.59l3.37-1a.31.31 0 0 0 .2-.17l1.77-4.05a.32.32 0 0 1 .58 0l1.67 4a.31.31 0 0 0 .21.18l3.6.95a.31.31 0 0 1 .05.59l-3.55 1.6a.32.32 0 0 0-.16.14l-1.79 3.59a.32.32 0 0 1-.57 0l-1.83-3.6a.29.29 0 0 0-.15-.13z"/></svg>
