<svg width="146" height="133" xmlns="http://www.w3.org/2000/svg"><g fill="#3D7E9A" fill-rule="evenodd"><path d="M32.983 40.26l-1.943-4.585-5.118 5.38s-4.334 4.83-4.448 6.545c-.114 1.714 6.04-2.65 6.04-2.65l5.469-4.69zM63.5 34.65l2.163-2.174L51.2 28.81c-.228.345-1.02 3.896-1.02 3.896L63.5 34.65zM15.263 93.503c.171-.09 3.028-1.656 6.521-2.452 3.608-.82 8.162-1.64 8.162-1.64s-1.746 4.634-2.448 6.56c-.702 1.928-1.633 7.382-1.633 7.382s.817-.82 3.265-1.64c2.449-.82 4.897 0 4.897 0s1.347 2.288 1.633 4.92c.285 2.633-.817 6.562-.817 6.562s-13.369-6.561-17.14-9.022c-3.77-2.46-10.692-7.84-14.691-18.863-4-11.023-5.452-34.298 4.897-50.849C18.259 17.911 48.809-.6 76.469.015 104.13.63 130.127 19.887 138.5 40.202c8.375 20.315 9.737 43.082 4.081 55.77-5.656 12.688-17.923 27.598-25.302 31.165-7.378 3.568-21.89 6.504-31.015 5.741-9.125-.762-17.14-4.1-17.14-4.1s11.802-.173 17.14 0c5.338.172 8.668-.058 12.243-.82 3.575-.763 8.162-7.382 8.162-7.382s9.451-19.093 10.61-22.964c1.16-3.87.09-8.948-2.448-13.942-2.49-4.905-11.884-6.504-12.235-6.553.04.033.155.14.335.311l-2.171.624a1.701 1.701 0 0 0-.62-.123 4.592 4.592 0 0 0-.833.049l-.204-1.476c.775-.066 1.42-.14 1.852-.214 2.033-.36 3.094-2.042 3.265-4.92.172-2.88-4.848-29.854-5.713-31.986-.865-2.132-3.69-4.388-7.346-3.28-3.657 1.107-19.344 6.33-22.037 6.56-2.694.23-5.714 0-5.714 0s-1.387-4.92-4.897-5.74c-3.51-.82-5.607 1.27-6.53 3.28-.922 2.01-3.289 7.267-7.345 8.201-4.057.935-9.264-4.026-12.243-3.28-2.98.746-3.518 4.404-4.897 7.381-1.38 2.977-5.714 8.202-5.714 8.202L10.358 77.109l13.059-.82-8.154 17.214z"/><path d="M99.955 97.482c.229-.19 3.837-3.22 4.89-3.294 1.085-.074 3.811.42 4.08 1.65.27 1.23-2.317 6.712-4.08 10.732-1.764 4.02-7.804 12.341-10.611 13.208-2.808.867-8.473-.982-13.06-2.476-4.587-1.495-17.14-5.779-17.14-5.779s-.597-8.973 3.264-14.033c3.86-5.06 12.203-8.643 17.14-9.906 4.939-1.263 12.244-2.196 14.693-3.302 2.236-1.007 4.057-4.92 2.253-5.655l2.17-.627c.931.908 3.519 3.533 4.547 5.795 1.265 2.774.825 4.614.825 4.614s-4.008.67-5.714 2.477c-1.657 1.758-3.183 6.356-3.257 6.596M99.794 76.88l.206 1.433c-2.278.302-3.8 2.07-7.386 2.34-4.014.302-7.69-3.295-17.272-3.184-9.583.112-15.628 7.163-15.628 7.163s-2.336.828-3.29 0c-.954-.828 0-2.387 0-2.387s8.143-6.757 15.628-7.96c7.484-1.201 13.554 1.736 17.272 2.388 2.92.51 7.608.438 10.47.207M57.496 42C59.437 42 61 44.235 61 47s-1.563 5-3.504 5C55.563 52 54 49.765 54 47s1.563-5 3.496-5M34.5 51c1.93 0 3.5 2.244 3.5 5 0 2.765-1.57 5-3.5 5S31 58.765 31 56c0-2.756 1.57-5 3.5-5"/></g></svg>
