<?xml version="1.0" encoding="UTF-8"?>
<svg width="210px" height="154px" viewBox="0 0 210 154" version="1.1" xmlns="http://www.w3.org/2000/svg" xmlns:xlink="http://www.w3.org/1999/xlink">
    <!-- Generator: Sketch 55.2 (78181) - https://sketchapp.com -->
    <title>Group</title>
    <desc>Created with Sketch.</desc>
    <g id="Signalling-FInal-Designs" stroke="none" stroke-width="1" fill="none" fill-rule="evenodd">
        <g id="Signalling---Finish" transform="translate(-566.000000, -654.000000)">
            <g id="Group" transform="translate(566.539216, 654.000000)">
                <path d="M84.7629101,85 C84.7629101,85 80.7528665,79.7459136 77.7138295,77.181648 C74.6759177,74.6151201 72.458242,74.463549 71.1204357,72.1413446 C69.7837545,69.8202714 68.9635183,65.5740194 72.7316541,63.6194314 C76.4986648,61.6648434 79.5365766,67.4064456 79.5365766,67.4064456 C79.5365766,67.4064456 78.5644448,56.0137313 85.7350419,54.3034668 C92.905639,52.5932023 93.2701884,58.5485876 92.905639,61.2678177 C92.5410896,63.9859166 88.4995417,70.4604894 87.4058934,74.3719277 C86.3122452,78.2811037 84.7629101,85 84.7629101,85" id="Fill-4" fill="#D23D3D"></path>
                <path d="M52.5245479,152.327637 C53.8632639,150.349752 38.7269227,133.215821 34.5392864,126.638357 C30.3516502,120.060892 24.2621522,100.950183 24.2621522,100.950183 L34.5392864,106.087375 C34.5392864,106.087375 34.5149461,103.52431 35.8237899,99.6658848 C37.1326337,95.8052472 39.6784067,91.9589901 39.6784067,91.9589901 C39.6784067,91.9589901 40.1309148,99.2234049 40.9629102,102.234481 C41.7937992,105.244451 43.5319172,107.371673 43.5319172,107.371673 C43.5319172,107.371673 45.6882456,105.377195 47.3854276,103.518779 C49.083716,101.660363 51.2400445,100.950183 51.2400445,100.950183 C51.2400445,100.950183 48.437592,113.053116 52.5245479,124.069761 C56.6115039,135.085299 65.7645593,139.190407 67.9408025,139.48355 C70.1159393,139.775587 73.4428144,137.637302 75.6478234,134.345252 C77.8539388,131.054307 78.2179368,116.362866 78.2179368,116.362866 C78.2179368,116.362866 76.9378588,115.652686 74.3633199,116.362866 C71.7887811,117.074153 69.225306,118.932568 69.225306,118.932568 L71.794313,100.950183 C71.794313,100.950183 69.5881976,101.672531 67.9408025,103.518779 C66.2911947,105.365027 64.0861857,108.655971 64.0861857,108.655971 C64.0861857,108.655971 62.5383645,103.016564 62.8016822,98.3804805 C63.0649999,93.7443968 64.0861857,89.3892878 64.0861857,89.3892878 C64.0861857,89.3892878 62.9267028,87.9921573 60.2326752,89.3892878 C57.5375413,90.7875245 56.3780584,91.9589901 56.3780584,91.9589901 C56.3780584,91.9589901 55.308192,77.2376819 56.3780584,73.9766046 C57.4479248,70.7155273 63.4345297,62.5418163 66.6551927,58.5628153 C69.8769619,54.5849205 75.5338666,44.8282374 78.2179368,41.865834 C80.9009005,38.9023245 84.6404542,39.2961317 84.6404542,39.2961317 C84.6404542,39.2961317 93.0710455,41.5129563 94.9175884,40.5804298 C96.7641313,39.6490095 108.367811,28.0715213 110.332737,26.4520447 C112.299875,24.8336742 120.915231,18.811522 123.179984,17.4608519 C125.444738,16.1101819 126.710433,18.3933784 128.317998,20.0294481 C129.925564,21.6677301 136.80944,32.7308353 138.595132,39.2961317 C140.383037,45.8625343 141.165246,57.2785172 141.165246,57.2785172 L125.748991,53.425623 L123.179984,64.9854119 L112.90285,63.7011138 L112.90285,70.1226042 C112.90285,70.1226042 107.76373,68.8383061 106.479226,68.8383061 C105.194723,68.8383061 102.362398,71.2044677 101.341212,72.6923066 C100.320026,74.1790392 98.8076093,77.5960907 97.4865954,79.1137969 C96.1666879,80.6315032 91.064078,82.9677974 91.064078,82.9677974 C91.064078,82.9677974 96.8946838,83.9888199 100.055602,82.9677974 C103.217627,81.9456687 109.048233,76.5452008 109.048233,76.5452008 L112.90285,80.3992012 L120.610977,73.9766046 L125.748991,77.8294989 L130.888111,72.6923066 L136.026125,75.2609027 L141.165246,67.554008 C141.165246,67.554008 146.069814,75.1469641 145.018756,77.8294989 C143.967698,80.5120336 142.843619,84.526433 139.880742,86.8206916 C136.916759,89.1149502 128.444125,92.5320017 123.179984,97.0961825 C117.915843,101.660363 113.147359,110.753326 115.471857,116.362866 C117.797461,121.973512 123.364749,121.924839 127.033495,120.216866 C130.703347,118.507788 155.296997,98.3804805 155.296997,98.3804805 C155.296997,98.3804805 160.94837,90.5607535 161.719514,88.1049897 C162.490659,85.6503321 164.289628,79.1137969 164.289628,79.1137969 L166.858635,86.8206916 L177.134662,72.6923066 L175.850159,85.5363935 C175.850159,85.5363935 181.622127,85.7211289 184.84279,84.2520955 C188.063453,82.783062 193.83542,79.1137969 193.83542,79.1137969 C193.83542,79.1137969 184.669089,92.0541233 180.988173,94.5275863 C177.308364,96.9999431 159.453655,110.633857 155.296997,113.79427 C151.138126,116.953577 141.857838,125.510033 138.595132,130.492357 C135.333534,135.474682 133.701628,142.177147 133.457118,144.620742 C133.212609,147.063232 133.761372,151.138472 142.449749,149.759041 C151.138126,148.378503 181.920849,123.657148 193.83542,106.087375 C205.749992,88.5176023 224.88146,34.1644704 184.84279,11.0382553 C144.804119,-12.0868535 96.4764734,6.62341155 73.0788164,17.4608519 C49.6811595,28.2982923 15.0360759,58.3006459 4.99238715,82.9677974 C-5.05130159,107.634949 1.59249119,121.865104 11.4160109,134.345252 C21.2395307,146.824293 41.9243517,152.991357 44.8164207,153.611935 C47.7084897,154.233619 51.185832,154.304416 52.5245479,152.327637" id="Fill-1" fill="#3D7E9A"></path>
            </g>
        </g>
    </g>
</svg>