<svg width="210" height="154" xmlns="http://www.w3.org/2000/svg"><g fill="none" fill-rule="evenodd"><path d="M85.302 85s-4.01-5.254-7.049-7.818c-3.038-2.567-5.256-2.718-6.593-5.04-1.337-2.322-2.157-6.568 1.61-8.523 3.768-1.954 6.806 3.787 6.806 3.787s-.972-11.392 6.198-13.103c7.17-1.71 7.535 4.246 7.17 6.965-.364 2.718-4.405 9.192-5.499 13.104C86.851 78.282 85.302 85 85.302 85" fill="#D23D3D"/><path d="M53.064 152.328c1.338-1.978-13.798-19.112-17.985-25.69C30.89 120.061 24.8 100.95 24.8 100.95l10.278 5.137s-.025-2.563 1.284-6.421c1.309-3.86 3.855-7.707 3.855-7.707s.452 7.264 1.284 10.275c.831 3.01 2.57 5.138 2.57 5.138s2.155-1.995 3.853-3.853c1.698-1.859 3.854-2.569 3.854-2.569s-2.802 12.103 1.285 23.12c4.087 11.015 13.24 15.12 15.416 15.414 2.175.292 5.502-1.847 7.707-5.139 2.206-3.29 2.57-17.982 2.57-17.982s-1.28-.71-3.854 0c-2.575.711-5.138 2.57-5.138 2.57l2.569-17.983s-2.207.723-3.854 2.569c-1.65 1.846-3.855 5.137-3.855 5.137s-1.547-5.64-1.284-10.276c.263-4.636 1.284-8.99 1.284-8.99s-1.16-1.398-3.853 0c-2.695 1.398-3.855 2.569-3.855 2.569s-1.07-14.721 0-17.982c1.07-3.261 7.057-11.435 10.277-15.414 3.222-3.978 8.88-13.735 11.563-16.697 2.683-2.964 6.423-2.57 6.423-2.57s8.43 2.217 10.277 1.284c1.846-.931 13.45-12.508 15.415-14.128 1.967-1.618 10.582-7.64 12.847-8.991 2.265-1.35 3.53.932 5.138 2.568 1.608 1.639 8.492 12.702 10.277 19.267 1.788 6.567 2.57 17.983 2.57 17.983l-15.416-3.853-2.569 11.56-10.277-1.285v6.422s-5.14-1.285-6.424-1.285c-1.284 0-4.116 2.366-5.138 3.854-1.02 1.487-2.533 4.904-3.854 6.422-1.32 1.518-6.423 3.854-6.423 3.854s5.83 1.02 8.992 0c3.162-1.022 8.992-6.423 8.992-6.423l3.855 3.854 7.708-6.422 5.138 3.852 5.14-5.137 5.137 2.569 5.14-7.707s4.904 7.593 3.853 10.275c-1.051 2.683-2.175 6.697-5.138 8.992-2.964 2.294-11.437 5.711-16.7 10.275-5.265 4.564-10.033 13.657-7.709 19.267 2.326 5.61 7.893 5.562 11.562 3.854 3.67-1.71 28.263-21.837 28.263-21.837s5.652-7.82 6.423-10.275c.77-2.455 2.57-8.991 2.57-8.991l2.569 7.707 10.276-14.129-1.285 12.844s5.772.185 8.993-1.284c3.22-1.469 8.993-5.138 8.993-5.138s-9.167 12.94-12.848 15.414c-3.68 2.472-21.534 16.106-25.69 19.266-4.16 3.16-13.44 11.716-16.703 16.698-3.261 4.983-4.893 11.685-5.138 14.129-.244 2.442.305 6.517 8.993 5.138 8.688-1.38 39.471-26.102 51.386-43.672 11.914-17.57 31.046-71.923-8.993-95.049-40.039-23.125-88.366-4.415-111.764 6.423C50.22 28.298 15.575 58.3 5.532 82.968c-10.044 24.667-3.4 38.897 6.423 51.377 9.824 12.48 30.509 18.646 33.4 19.267 2.893.622 6.37.692 7.709-1.284" fill="#3D7E9A"/></g></svg>
