<svg xmlns="http://www.w3.org/2000/svg" xmlns:xlink="http://www.w3.org/1999/xlink" version="1.1" id="Layer_1" width="205px" height="400.8px" x="0px" y="0px" viewBox="203 0 205 400.8" enable-background="new 203 0 205 400.8" xml:space="preserve"><g id="only_logo"><g><linearGradient id="SVGID_1_" gradientUnits="userSpaceOnUse" x1="66.7" y1="730.2" x2="66.7" y2="701.6" gradientTransform="matrix(1.98 0 0 1.98 103.05 -1302.84)"><stop offset="0" style="stop-color:#2075BC"/><stop offset="1" style="stop-color:#29AAE1"/></linearGradient><polygon fill="url(#SVGID_1_)" points="251.1,86.4 251.1,86.3 251.1,86.4 251,86.3 251,86.4 235.1,92.7 219.1,86.4 219.1,86.3 219,86.4 219,86.3 219,86.4 203,92.8 203,142.9 219,136.8 235.1,142.9 235.1,142.9 235.1,142.9 235.1,142.9 235.1,142.9 251.1,136.8 267.2,142.9 267.2,92.8"/><g><linearGradient id="SVGID_2_" gradientUnits="userSpaceOnUse" x1="54.6" y1="730.2" x2="54.6" y2="701.6" gradientTransform="matrix(1.98 0 0 1.98 103.05 -1302.84)"><stop offset="0" style="stop-color:#0A6AA8"/><stop offset="1" style="stop-color:#1699C8"/></linearGradient><polygon fill="url(#SVGID_2_)" points="203,92.8 203,142.9 219.1,136.8 219.1,86.3"/><linearGradient id="SVGID_3_" gradientUnits="userSpaceOnUse" x1="62.6" y1="730.2" x2="62.6" y2="701.6" gradientTransform="matrix(1.98 0 0 1.98 103.05 -1302.84)"><stop offset="0" style="stop-color:#2075BC"/><stop offset="1" style="stop-color:#29AAE1"/></linearGradient><polygon fill="url(#SVGID_3_)" points="235.1,92.8 235.1,142.9 219,136.8 219,86.3"/><linearGradient id="SVGID_4_" gradientUnits="userSpaceOnUse" x1="70.7" y1="730.2" x2="70.7" y2="701.6" gradientTransform="matrix(1.98 0 0 1.98 103.05 -1302.84)"><stop offset="0" style="stop-color:#0A6AA8"/><stop offset="1" style="stop-color:#1699C8"/></linearGradient><polygon fill="url(#SVGID_4_)" points="235.1,92.8 235.1,142.9 251.1,136.8 251.1,86.3"/><linearGradient id="SVGID_5_" gradientUnits="userSpaceOnUse" x1="78.8" y1="730.2" x2="78.8" y2="701.6" gradientTransform="matrix(1.98 0 0 1.98 103.05 -1302.84)"><stop offset="0" style="stop-color:#2075BC"/><stop offset="1" style="stop-color:#29AAE1"/></linearGradient><polygon fill="url(#SVGID_5_)" points="267.2,92.8 267.2,142.9 251,136.8 251,86.3"/></g><g><g><g><defs><path id="SVGID_6_" d="M258 115.7c-0.6-1.7-0.4-4.6-0.7-5c-1.9-2.6-8.7-3-11.8-6.4c0.5-1.7-0.6-3-1.7-4.1 c-1.7-1.2-4-0.7-5.8-0.2c-2-0.4-3.9-1.2-5.9-1.7c-4.4-0.5-8.8 2.6-8.8 2.6c-3.2 2-8.1 6.2-10.5 8.6c0.6 0.1 1.2-0.4 1.9-0.4 l4.6-1.2c-1.9 1.6-5.9 4.3-7.1 6.5c1.4-0.5 4.4-2.1 5.9-2.3c-1.3 1.1-4 3.3-4.9 4.7c0.1 0.1 0 0.2 0 0.3 c1.1-0.6 3.8-2.2 5.1-2.3c-1.3 1.3-3.6 3.9-4.1 5.6c1.1-0.7 3.9-2.2 5.1-2.6c-0.3 0.7-0.9 1.2-1.3 1.8c-0.6 0.9-1.9 2-1.9 3.1 c1-0.9 2.2-1.7 3.4-2.3c-0.5 1.1-1.5 2-1.8 3.4c0.8-0.8 2.3-1.2 3.3-1.5l-0.1 0.1c-0.1 0.1-1.2 0.9-2 1.8 c0.7 0 0.2-0.1 1.1 0.1h0.5c-0.2 0.1-0.5 0.3-0.8 0.4l0 0c-0.4 0.2-0.9 0.5-1.3 0.7c1.9 2.4 4.2 4.4 6.9 5.7 c3.5 1.7 7.3 2.3 11.2 1.8c0-0.2-0.1-0.4-0.2-0.7l0 0l0 0c-0.1-0.3-0.2-0.5-0.2-0.8l0 0l0 0c1.3-2.4 0.6-6.6 4-8.3 c2.3-1.2 2.5-1.8 5.1-1.3c1.4 0.3 4.5 1.3 5.9 1c1.3-0.7 2-1.1 3.2-1.9c1.4 0.3 1.9 0.1 2.4-0.6c-0.5 0.7 0.9-2.6 1.5-3.8 L258 115.7z"/></defs><clipPath id="SVGID_7_"><use xlink:href="#SVGID_6_" overflow="visible"/></clipPath><ellipse clip-path="url(#SVGID_7_)" fill="#FFFFFF" cx="235.1" cy="115.9" rx="29.8" ry="20.2"/></g></g><g><g><defs><path id="SVGID_8_" d="M258 115.7c-0.6-1.7-0.4-4.6-0.7-5c-1.9-2.6-8.7-3-11.8-6.4c0.5-1.7-0.6-3-1.7-4.1 c-1.7-1.2-4-0.7-5.8-0.2c-2-0.4-3.9-1.2-5.9-1.7c-4.4-0.5-8.8 2.6-8.8 2.6c-3.2 2-8.1 6.2-10.5 8.6c0.6 0.1 1.2-0.4 1.9-0.4 l4.6-1.2c-1.9 1.6-5.9 4.3-7.1 6.5c1.4-0.5 4.4-2.1 5.9-2.3c-1.3 1.1-4 3.3-4.9 4.7c0.1 0.1 0 0.2 0 0.3 c1.1-0.6 3.8-2.2 5.1-2.3c-1.3 1.3-3.6 3.9-4.1 5.6c1.1-0.7 3.9-2.2 5.1-2.6c-0.3 0.7-0.9 1.2-1.3 1.8c-0.6 0.9-1.9 2-1.9 3.1 c1-0.9 2.2-1.7 3.4-2.3c-0.5 1.1-1.5 2-1.8 3.4c0.8-0.8 2.3-1.2 3.3-1.5l-0.1 0.1c-0.1 0.1-1.2 0.9-2 1.8 c0.7 0 0.2-0.1 1.1 0.1h0.5c-0.2 0.1-0.5 0.3-0.8 0.4l0 0c-0.4 0.2-0.9 0.5-1.3 0.7c1.9 2.4 4.2 4.4 6.9 5.7 c3.5 1.7 7.3 2.3 11.2 1.8c0-0.2-0.1-0.4-0.2-0.7l0 0l0 0c-0.1-0.3-0.2-0.5-0.2-0.8l0 0l0 0c1.3-2.4 0.6-6.6 4-8.3 c2.3-1.2 2.5-1.8 5.1-1.3c1.4 0.3 4.5 1.3 5.9 1c1.3-0.7 2-1.1 3.2-1.9c1.4 0.3 1.9 0.1 2.4-0.6c-0.5 0.7 0.9-2.6 1.5-3.8 L258 115.7z"/></defs><clipPath id="SVGID_9_"><use xlink:href="#SVGID_8_" overflow="visible"/></clipPath><polygon clip-path="url(#SVGID_9_)" fill="#F2F2F2" points="203.4,93.7 203.4,144.4 219.3,138.1 219.3,87.3"/></g></g><g><g><defs><path id="SVGID_10_" d="M258 115.7c-0.6-1.7-0.4-4.6-0.7-5c-1.9-2.6-8.7-3-11.8-6.4c0.5-1.7-0.6-3-1.7-4.1 c-1.7-1.2-4-0.7-5.8-0.2c-2-0.4-3.9-1.2-5.9-1.7c-4.4-0.5-8.8 2.6-8.8 2.6c-3.2 2-8.1 6.2-10.5 8.6c0.6 0.1 1.2-0.4 1.9-0.4 l4.6-1.2c-1.9 1.6-5.9 4.3-7.1 6.5c1.4-0.5 4.4-2.1 5.9-2.3c-1.3 1.1-4 3.3-4.9 4.7c0.1 0.1 0 0.2 0 0.3 c1.1-0.6 3.8-2.2 5.1-2.3c-1.3 1.3-3.6 3.9-4.1 5.6c1.1-0.7 3.9-2.2 5.1-2.6c-0.3 0.7-0.9 1.2-1.3 1.8c-0.6 0.9-1.9 2-1.9 3.1 c1-0.9 2.2-1.7 3.4-2.3c-0.5 1.1-1.5 2-1.8 3.4c0.8-0.8 2.3-1.2 3.3-1.5l-0.1 0.1c-0.1 0.1-1.2 0.9-2 1.8 c0.7 0 0.2-0.1 1.1 0.1h0.5c-0.2 0.1-0.5 0.3-0.8 0.4l0 0c-0.4 0.2-0.9 0.5-1.3 0.7c1.9 2.4 4.2 4.4 6.9 5.7 c3.5 1.7 7.3 2.3 11.2 1.8c0-0.2-0.1-0.4-0.2-0.7l0 0l0 0c-0.1-0.3-0.2-0.5-0.2-0.8l0 0l0 0c1.3-2.4 0.6-6.6 4-8.3 c2.3-1.2 2.5-1.8 5.1-1.3c1.4 0.3 4.5 1.3 5.9 1c1.3-0.7 2-1.1 3.2-1.9c1.4 0.3 1.9 0.1 2.4-0.6c-0.5 0.7 0.9-2.6 1.5-3.8 L258 115.7z"/></defs><clipPath id="SVGID_11_"><use xlink:href="#SVGID_10_" overflow="visible"/></clipPath><polygon clip-path="url(#SVGID_11_)" fill="#FFFFFF" points="235.2,93.7 235.2,144.4 219.2,138.1 219.2,87.3"/></g></g><g><g><defs><path id="SVGID_12_" d="M258 115.7c-0.6-1.7-0.4-4.6-0.7-5c-1.9-2.6-8.7-3-11.8-6.4c0.5-1.7-0.6-3-1.7-4.1 c-1.7-1.2-4-0.7-5.8-0.2c-2-0.4-3.9-1.2-5.9-1.7c-4.4-0.5-8.8 2.6-8.8 2.6c-3.2 2-8.1 6.2-10.5 8.6c0.6 0.1 1.2-0.4 1.9-0.4 l4.6-1.2c-1.9 1.6-5.9 4.3-7.1 6.5c1.4-0.5 4.4-2.1 5.9-2.3c-1.3 1.1-4 3.3-4.9 4.7c0.1 0.1 0 0.2 0 0.3 c1.1-0.6 3.8-2.2 5.1-2.3c-1.3 1.3-3.6 3.9-4.1 5.6c1.1-0.7 3.9-2.2 5.1-2.6c-0.3 0.7-0.9 1.2-1.3 1.8c-0.6 0.9-1.9 2-1.9 3.1 c1-0.9 2.2-1.7 3.4-2.3c-0.5 1.1-1.5 2-1.8 3.4c0.8-0.8 2.3-1.2 3.3-1.5l-0.1 0.1c-0.1 0.1-1.2 0.9-2 1.8 c0.7 0 0.2-0.1 1.1 0.1h0.5c-0.2 0.1-0.5 0.3-0.8 0.4l0 0c-0.4 0.2-0.9 0.5-1.3 0.7c1.9 2.4 4.2 4.4 6.9 5.7 c3.5 1.7 7.3 2.3 11.2 1.8c0-0.2-0.1-0.4-0.2-0.7l0 0l0 0c-0.1-0.3-0.2-0.5-0.2-0.8l0 0l0 0c1.3-2.4 0.6-6.6 4-8.3 c2.3-1.2 2.5-1.8 5.1-1.3c1.4 0.3 4.5 1.3 5.9 1c1.3-0.7 2-1.1 3.2-1.9c1.4 0.3 1.9 0.1 2.4-0.6c-0.5 0.7 0.9-2.6 1.5-3.8 L258 115.7z"/></defs><clipPath id="SVGID_13_"><use xlink:href="#SVGID_12_" overflow="visible"/></clipPath><polygon clip-path="url(#SVGID_13_)" fill="#F2F2F2" points="235.2,93.7 235.2,144.4 251,138.1 251,87.3"/></g></g><g><g><defs><path id="SVGID_14_" d="M258 115.7c-0.6-1.7-0.4-4.6-0.7-5c-1.9-2.6-8.7-3-11.8-6.4c0.5-1.7-0.6-3-1.7-4.1 c-1.7-1.2-4-0.7-5.8-0.2c-2-0.4-3.9-1.2-5.9-1.7c-4.4-0.5-8.8 2.6-8.8 2.6c-3.2 2-8.1 6.2-10.5 8.6c0.6 0.1 1.2-0.4 1.9-0.4 l4.6-1.2c-1.9 1.6-5.9 4.3-7.1 6.5c1.4-0.5 4.4-2.1 5.9-2.3c-1.3 1.1-4 3.3-4.9 4.7c0.1 0.1 0 0.2 0 0.3 c1.1-0.6 3.8-2.2 5.1-2.3c-1.3 1.3-3.6 3.9-4.1 5.6c1.1-0.7 3.9-2.2 5.1-2.6c-0.3 0.7-0.9 1.2-1.3 1.8c-0.6 0.9-1.9 2-1.9 3.1 c1-0.9 2.2-1.7 3.4-2.3c-0.5 1.1-1.5 2-1.8 3.4c0.8-0.8 2.3-1.2 3.3-1.5l-0.1 0.1c-0.1 0.1-1.2 0.9-2 1.8 c0.7 0 0.2-0.1 1.1 0.1h0.5c-0.2 0.1-0.5 0.3-0.8 0.4l0 0c-0.4 0.2-0.9 0.5-1.3 0.7c1.9 2.4 4.2 4.4 6.9 5.7 c3.5 1.7 7.3 2.3 11.2 1.8c0-0.2-0.1-0.4-0.2-0.7l0 0l0 0c-0.1-0.3-0.2-0.5-0.2-0.8l0 0l0 0c1.3-2.4 0.6-6.6 4-8.3 c2.3-1.2 2.5-1.8 5.1-1.3c1.4 0.3 4.5 1.3 5.9 1c1.3-0.7 2-1.1 3.2-1.9c1.4 0.3 1.9 0.1 2.4-0.6c-0.5 0.7 0.9-2.6 1.5-3.8 L258 115.7z"/></defs><clipPath id="SVGID_15_"><use xlink:href="#SVGID_14_" overflow="visible"/></clipPath><polygon clip-path="url(#SVGID_15_)" fill="#FFFFFF" points="267,93.7 267,144.4 251,138.1 251,87.3"/></g></g></g></g><path fill="#FFFFFF" d="M236 41.2L236 41.2L236 41.2L236 41.2L236 41.2l-11 4.4L214 41.2l0 0l0 0l0 0l0 0l-11 4.4V80l11-4.2L225 80 l0 0l0 0l0 0l0 0l10.9-4.2l11 4.2V45.6L236 41.2z M240.2 61.2c-0.4 0.8-1.4 3.1-1 2.6c-0.4 0.5-0.7 0.6-1.7 0.4 c-0.8 0.6-1.2 0.8-2.1 1.3c-1 0.2-3.1-0.5-4-0.7c-1.8-0.3-1.9 0.1-3.5 0.9c-2.3 1.1-1.8 4-2.7 5.6l0 0l0 0c0.1 0.2 0.1 0.4 0.2 0.5 l0 0l0 0c0 0.2 0.1 0.3 0.1 0.5c-2.6 0.3-5.2-0.1-7.6-1.2c-1.8-0.9-3.4-2.2-4.7-3.8c0.3-0.2 0.6-0.3 0.9-0.5l0 0 c0.2-0.1 0.4-0.2 0.5-0.3h-0.3c-0.6-0.1-0.2-0.1-0.7-0.1c0.5-0.6 1.3-1.2 1.4-1.2l0.1-0.1c-0.7 0.2-1.7 0.5-2.2 1 c0.2-0.9 0.9-1.5 1.2-2.3c-0.8 0.4-1.6 1-2.3 1.6c0-0.8 0.9-1.5 1.3-2.1c0.3-0.5 0.7-0.8 0.9-1.2c-0.9 0.3-2.8 1.3-3.5 1.8 c0.4-1.2 1.9-2.9 2.8-3.8c-0.8 0.1-2.7 1.2-3.4 1.6c0-0.1 0-0.1 0-0.2c0.6-0.9 2.4-2.4 3.3-3.2c-1 0.1-3 1.2-4 1.5 c0.8-1.5 3.5-3.3 4.8-4.4l-3.1 0.8c-0.4 0.1-0.9 0.4-1.3 0.3c1.6-1.7 5-4.5 7.1-5.8c0 0 3-2.1 6-1.8c1.4 0.4 2.6 0.9 4 1.2 c1.2-0.3 2.8-0.7 4 0.1c0.8 0.7 1.5 1.7 1.1 2.8c2.1 2.3 6.7 2.6 8 4.3c0.2 0.3 0.1 2.2 0.5 3.4L240.2 61.2z"/><g><path fill="#FFFFFF" d="M352.3 52.8l-2 4h-1l-2-4v4.6h-1.6V50h2.2l1.9 4.1l1.9-4.1h2.2v7.4h-1.6L352.3 52.8L352.3 52.8z"/><path fill="#FFFFFF" d="M361.7 56.4c-0.7 0.7-1.7 1.1-2.8 1.1s-2-0.4-2.8-1.1c-0.7-0.7-1.1-1.6-1.1-2.7c0-1.1 0.4-2 1.1-2.7 c0.7-0.7 1.7-1.1 2.8-1.1s2 0.4 2.8 1.1c0.7 0.7 1.1 1.6 1.1 2.7C362.9 54.8 362.5 55.7 361.7 56.4z M361.2 53.7 c0-0.7-0.2-1.2-0.6-1.7c-0.4-0.5-0.9-0.7-1.6-0.7s-1.1 0.2-1.6 0.7c-0.5 0.5-0.6 1-0.6 1.7c0 0.7 0.2 1.2 0.6 1.7 c0.4 0.5 0.9 0.7 1.6 0.7s1.1-0.2 1.6-0.7C361 54.9 361.2 54.3 361.2 53.7z"/><path fill="#FFFFFF" d="M363.3 57.4v-1.1l3.9-4.8h-3.8v-1.4h6v1.1l-3.9 4.8h3.9v1.4H363.3z"/><path fill="#FFFFFF" d="M370.6 50h1.6v7.4h-1.6V50z"/><path fill="#FFFFFF" d="M373.8 57.4V50h1.6v5.9h3.1v1.5H373.8z"/><path fill="#FFFFFF" d="M379.4 57.4V50h1.6v5.9h3.1v1.5H379.4z"/><path fill="#FFFFFF" d="M390.8 57.4l-0.7-1.6H387l-0.7 1.6h-1.8l3.2-7.4h1.6l3.2 7.4H390.8z M388.6 52.2l-0.9 2.1h1.8L388.6 52.2z "/><path fill="#FFFFFF" d="M351.4 60.1c0.7 0.6 1.1 1.5 1.1 2.7c0 1.2-0.3 2.1-1 2.7c-0.7 0.7-1.7 1-3.1 1h-2.5v-7.4h2.6 C349.7 59.1 350.7 59.4 351.4 60.1z M350.2 64.6c0.4-0.4 0.6-0.9 0.6-1.7c0-0.7-0.2-1.3-0.6-1.7c-0.4-0.4-1-0.6-1.9-0.6h-0.9v4.5 h1C349.2 65.1 349.8 65 350.2 64.6z"/><path fill="#FFFFFF" d="M358.9 59.1v1.5h-3.7v1.5h3.3v1.4h-3.3v1.5h3.8v1.5h-5.4v-7.4C353.6 59.1 358.9 59.1 358.9 59.1z"/><path fill="#FFFFFF" d="M363.1 63.9l1.9-4.7h1.8l-3 7.4h-1.4l-3-7.4h1.8L363.1 63.9z"/><path fill="#FFFFFF" d="M372.7 59.1v1.5H369v1.5h3.3v1.4H369v1.5h3.8v1.5h-5.4v-7.4C367.4 59.1 372.7 59.1 372.7 59.1z"/><path fill="#FFFFFF" d="M374 66.6v-7.4h1.6v5.9h3.1v1.5H374z"/><path fill="#FFFFFF" d="M385.8 65.6c-0.7 0.7-1.7 1.1-2.8 1.1s-2-0.4-2.8-1.1c-0.7-0.7-1.1-1.6-1.1-2.7c0-1.1 0.4-2 1.1-2.7 c0.7-0.7 1.7-1.1 2.8-1.1s2 0.4 2.8 1.1c0.7 0.7 1.1 1.6 1.1 2.7C386.9 63.9 386.5 64.9 385.8 65.6z M385.1 62.9 c0-0.7-0.2-1.2-0.6-1.7c-0.4-0.5-0.9-0.7-1.6-0.7c-0.6 0-1.1 0.2-1.6 0.7c-0.4 0.5-0.6 1-0.6 1.7c0 0.7 0.2 1.2 0.6 1.7 s0.9 0.7 1.6 0.7c0.6 0 1.1-0.2 1.6-0.7C384.9 64.1 385.1 63.5 385.1 62.9z"/><path fill="#FFFFFF" d="M393.1 59.8c0.5 0.4 0.8 1.1 0.8 2c0 0.9-0.3 1.6-0.8 2c-0.5 0.4-1.3 0.6-2.4 0.6h-1v2.1h-1.6v-7.4h2.6 C391.7 59.1 392.6 59.3 393.1 59.8z M391.9 62.8c0.2-0.2 0.3-0.5 0.3-1c0-0.5-0.1-0.7-0.4-0.9c-0.3-0.2-0.7-0.3-1.2-0.3h-0.9v2.5 h1.1C391.3 63.1 391.7 63 391.9 62.8z"/><path fill="#FFFFFF" d="M400.1 59.1v1.5h-3.6v1.5h3.3v1.4h-3.3v1.5h3.8v1.5h-5.4v-7.4C394.9 59.1 400.1 59.1 400.1 59.1z"/><path fill="#FFFFFF" d="M407.5 61.7c0 1.2-0.5 1.9-1.4 2.3l1.9 2.6h-2l-1.6-2.4h-1.1v2.4h-1.8v-7.4h2.8c1.1 0 2 0.2 2.5 0.6 C407.2 60.1 407.5 60.7 407.5 61.7z M405.5 62.5c0.2-0.2 0.3-0.5 0.3-0.9s-0.1-0.7-0.3-0.8c-0.2-0.1-0.6-0.2-1.1-0.2h-1.2v2.2h1.2 C404.9 62.8 405.3 62.7 405.5 62.5z"/><path fill="#FFFFFF" d="M350.9 68.3h1.6v7.4h-1.6l-3.5-4.6v4.6h-1.6v-7.4h1.5l3.6 4.8V68.3L350.9 68.3z"/><path fill="#FFFFFF" d="M359.4 68.3v1.5h-3.7v1.5h3.3v1.4h-3.3v1.5h3.8v1.5h-5.4v-7.4H359.4z"/><path fill="#FFFFFF" d="M363.8 69.7v6h-1.6v-6h-2.1v-1.4h5.8v1.4H363.8z"/><path fill="#FFFFFF" d="M369.5 72.6l1.3-4.2h1.7l1.3 4.2l1.5-4.2h1.8l-2.6 7.4h-1.2l-1.6-5.1l-1.6 5.1h-1.2l-2.6-7.4h1.8 L369.5 72.6z"/><path fill="#FFFFFF" d="M383.6 74.7c-0.7 0.7-1.7 1.1-2.8 1.1s-2-0.4-2.8-1.1c-0.7-0.7-1.1-1.6-1.1-2.7c0-1.1 0.4-2 1.1-2.7 s1.7-1.1 2.8-1.1s2 0.4 2.8 1.1c0.7 0.7 1.1 1.6 1.1 2.7C384.8 73 384.4 73.9 383.6 74.7z M383.1 72c0-0.7-0.2-1.2-0.6-1.7 c-0.4-0.5-0.9-0.7-1.6-0.7c-0.6 0-1.1 0.2-1.6 0.7c-0.4 0.5-0.6 1-0.6 1.7c0 0.7 0.2 1.2 0.6 1.7s0.9 0.7 1.6 0.7 c0.6 0 1.1-0.2 1.6-0.7C382.9 73.2 383.1 72.6 383.1 72z"/><path fill="#FFFFFF" d="M391.9 70.8c0 1.2-0.5 1.9-1.4 2.3l1.9 2.6h-2l-1.6-2.4h-1.1v2.4h-1.6v-7.4h2.8c1.1 0 2 0.2 2.5 0.6 C391.7 69.3 391.9 69.9 391.9 70.8z M389.9 71.6c0.2-0.2 0.3-0.5 0.3-0.9s-0.1-0.7-0.3-0.8c-0.2-0.1-0.6-0.2-1.1-0.2h-1.2v2.2h1.2 C389.4 71.9 389.7 71.8 389.9 71.6z"/><path fill="#FFFFFF" d="M393.3 68.3h1.6v3l2.8-3h2l-2.9 3.3c0.3 0.4 0.7 1 1.4 2c0.7 1 1.2 1.7 1.5 2.1h-1.9l-2.2-2.9l-0.7 0.8 v2.1h-1.6V68.3L393.3 68.3z"/></g><g><path fill="#FFFFFF" d="M278 59.3l-6.8 13.9h-3.4l-6.8-13.9v16h-5.7V49.9h7.7l6.5 14l6.6-14h7.6v25.5H278V59.3z"/><path fill="#FFFFFF" d="M306.9 53.2c2.4 2.2 3.6 5.3 3.6 9.3s-1.2 7.1-3.5 9.4c-2.4 2.3-6 3.5-10.8 3.5h-8.7V49.9h9 C300.9 49.9 304.4 51 306.9 53.2z M302.6 68.4c1.4-1.3 2.1-3.2 2.1-5.7c0-2.5-0.7-4.4-2.1-5.8c-1.4-1.3-3.5-2-6.4-2H293v15.5h3.6 C299.2 70.4 301.2 69.8 302.6 68.4z"/><path fill="#FFFFFF" d="M331.6 49.9h5.7v25.5h-5.7l-12.1-15.9v15.9h-5.7V49.9h5.3l12.5 16.4V49.9L331.6 49.9z"/></g><linearGradient id="SVGID_16_" gradientUnits="userSpaceOnUse" x1="66.7" y1="802" x2="66.7" y2="773.4" gradientTransform="matrix(1.98 0 0 1.98 103.05 -1304.8201)"><stop offset="0" style="stop-color:#D5DDE4"/><stop offset="1" style="stop-color:#EAEEF0"/></linearGradient><polygon fill="url(#SVGID_16_)" points="251.2,226.6 251.2,226.6 251.1,226.6 251.1,226.6 251.1,226.6 235.1,233 219.1,226.6 219.1,226.6 219.1,226.6 219,226.6 219,226.6 203,233 203,283.1 219.1,277 235.1,283.1 235.1,283.1 235.1,283.1 235.2,283.1 235.2,283.1 251.1,277 267.2,283.1 267.2,233"/><g><linearGradient id="SVGID_17_" gradientUnits="userSpaceOnUse" x1="54.6" y1="802" x2="54.6" y2="773.4" gradientTransform="matrix(1.98 0 0 1.98 103.05 -1304.8201)"><stop offset="0" style="stop-color:#ABBECB"/><stop offset="1" style="stop-color:#DFE8EC"/></linearGradient><polygon fill="url(#SVGID_17_)" points="203,233 203,283.1 219.1,277 219.1,226.6"/><linearGradient id="SVGID_18_" gradientUnits="userSpaceOnUse" x1="62.7" y1="802" x2="62.7" y2="773.4" gradientTransform="matrix(1.98 0 0 1.98 103.05 -1304.8201)"><stop offset="0" style="stop-color:#D5DDE4"/><stop offset="1" style="stop-color:#EAEEF0"/></linearGradient><polygon fill="url(#SVGID_18_)" points="235.2,233 235.2,283.1 219,277 219,226.6"/><linearGradient id="SVGID_19_" gradientUnits="userSpaceOnUse" x1="70.8" y1="802" x2="70.8" y2="773.4" gradientTransform="matrix(1.98 0 0 1.98 103.05 -1304.8201)"><stop offset="0" style="stop-color:#ABBECB"/><stop offset="1" style="stop-color:#DFE8EC"/></linearGradient><polygon fill="url(#SVGID_19_)" points="235.1,233 235.1,283.1 251.2,277 251.2,226.6"/><linearGradient id="SVGID_20_" gradientUnits="userSpaceOnUse" x1="78.8" y1="802" x2="78.8" y2="773.4" gradientTransform="matrix(1.98 0 0 1.98 103.05 -1304.8201)"><stop offset="0" style="stop-color:#D5DDE4"/><stop offset="1" style="stop-color:#EAEEF0"/></linearGradient><polygon fill="url(#SVGID_20_)" points="267.2,233 267.2,283.1 251.1,277 251.1,226.6"/></g><linearGradient id="SVGID_21_" gradientUnits="userSpaceOnUse" x1="66.7" y1="861.4" x2="66.7" y2="832.8" gradientTransform="matrix(1.98 0 0 1.98 103.05 -1304.8201)"><stop offset="0" style="stop-color:#2075BC"/><stop offset="1" style="stop-color:#29AAE1"/></linearGradient><polygon fill="url(#SVGID_21_)" points="251.1,344.2 251.1,344.1 251.1,344.2 251,344.1 251,344.2 235.1,350.6 219.1,344.2 219.1,344.1 219,344.2 219,344.1 219,344.2 203,350.7 203,400.8 219,394.7 235.1,400.8 235.1,400.8 235.1,400.8 235.1,400.8 235.1,400.8 251.1,394.7 267.2,400.8 267.2,350.7"/><g><linearGradient id="SVGID_22_" gradientUnits="userSpaceOnUse" x1="54.6" y1="861.4" x2="54.6" y2="832.8" gradientTransform="matrix(1.98 0 0 1.98 103.05 -1304.8201)"><stop offset="0" style="stop-color:#0A6AA8"/><stop offset="1" style="stop-color:#1699C8"/></linearGradient><polygon fill="url(#SVGID_22_)" points="203,350.7 203,400.8 219.1,394.7 219.1,344.1"/><linearGradient id="SVGID_23_" gradientUnits="userSpaceOnUse" x1="62.6" y1="861.4" x2="62.6" y2="832.8" gradientTransform="matrix(1.98 0 0 1.98 103.05 -1304.8201)"><stop offset="0" style="stop-color:#2075BC"/><stop offset="1" style="stop-color:#29AAE1"/></linearGradient><polygon fill="url(#SVGID_23_)" points="235.1,350.7 235.1,400.8 219,394.7 219,344.1"/><linearGradient id="SVGID_24_" gradientUnits="userSpaceOnUse" x1="70.7" y1="861.4" x2="70.7" y2="832.8" gradientTransform="matrix(1.98 0 0 1.98 103.05 -1304.8201)"><stop offset="0" style="stop-color:#0A6AA8"/><stop offset="1" style="stop-color:#1699C8"/></linearGradient><polygon fill="url(#SVGID_24_)" points="235.1,350.7 235.1,400.8 251.1,394.7 251.1,344.1"/><linearGradient id="SVGID_25_" gradientUnits="userSpaceOnUse" x1="78.8" y1="861.4" x2="78.8" y2="832.8" gradientTransform="matrix(1.98 0 0 1.98 103.05 -1304.8201)"><stop offset="0" style="stop-color:#2075BC"/><stop offset="1" style="stop-color:#29AAE1"/></linearGradient><polygon fill="url(#SVGID_25_)" points="267.2,350.7 267.2,400.8 251,394.7 251,344.1"/></g></g><g id="logo_white"></g><g id="logo_color"><g><path fill="#4E4F54" d="M352.3 10.1l-2 4h-1l-2-4v4.7h-1.6V7.3h2.2l1.9 4.1l1.9-4.1h2.2v7.4h-1.6L352.3 10.1L352.3 10.1z"/><path fill="#4E4F54" d="M361.7 13.7c-0.7 0.7-1.7 1.1-2.8 1.1s-2-0.4-2.8-1.1c-0.7-0.7-1.1-1.6-1.1-2.7s0.4-2 1.1-2.7 s1.7-1.1 2.8-1.1s2 0.4 2.8 1.1c0.7 0.7 1.1 1.6 1.1 2.7C362.8 12 362.5 13 361.7 13.7z M361.1 11c0-0.7-0.2-1.2-0.6-1.7 s-0.9-0.7-1.6-0.7c-0.6 0-1.1 0.2-1.6 0.7c-0.4 0.5-0.6 1-0.6 1.7s0.2 1.2 0.6 1.7c0.4 0.5 0.9 0.7 1.6 0.7s1.1-0.2 1.6-0.7 C360.9 12.2 361.1 11.6 361.1 11z"/><path fill="#4E4F54" d="M363.3 14.7v-1.1l3.9-4.8h-3.8V7.3h6v1.1l-3.9 4.8h3.9v1.4L363.3 14.7L363.3 14.7z"/><path fill="#4E4F54" d="M370.6 7.3h1.6v7.4h-1.6V7.3z"/><path fill="#4E4F54" d="M373.8 14.7V7.3h1.6v5.9h3.1v1.5H373.8z"/><path fill="#4E4F54" d="M379.3 14.7V7.3h1.6v5.9h3.1v1.5H379.3z"/><path fill="#4E4F54" d="M390.8 14.7l-0.7-1.6H387l-0.7 1.6h-1.8l3.2-7.4h1.6l3.2 7.4H390.8z M388.6 9.5l-0.9 2.1h1.8L388.6 9.5z"/><path fill="#4E4F54" d="M351.3 17.4c0.7 0.6 1.1 1.5 1.1 2.7c0 1.1-0.3 2.1-1 2.7c-0.7 0.7-1.7 1-3.1 1h-2.5v-7.4h2.6 C349.6 16.4 350.6 16.7 351.3 17.4z M350.1 21.9c0.4-0.4 0.6-0.9 0.6-1.7c0-0.7-0.2-1.3-0.6-1.7c-0.4-0.4-1-0.6-1.9-0.6h-0.9v4.5 h1C349.1 22.4 349.7 22.3 350.1 21.9z"/><path fill="#4E4F54" d="M358.9 16.4v1.5h-3.7v1.5h3.3v1.4h-3.3v1.5h3.8v1.5h-5.4v-7.4H358.9z"/><path fill="#4E4F54" d="M363.1 21.2l1.9-4.7h1.8l-3 7.4h-1.4l-3-7.4h1.8L363.1 21.2z"/><path fill="#4E4F54" d="M372.7 16.4v1.5H369v1.5h3.3v1.4H369v1.5h3.8v1.5h-5.4v-7.4H372.7z"/><path fill="#4E4F54" d="M374 23.9v-7.4h1.6v5.9h3.1v1.5C378.8 23.9 374 23.9 374 23.9z"/><path fill="#4E4F54" d="M385.8 22.9c-0.7 0.7-1.7 1.1-2.8 1.1s-2-0.4-2.8-1.1c-0.7-0.7-1.1-1.6-1.1-2.7s0.4-2 1.1-2.7 c0.7-0.7 1.7-1.1 2.8-1.1s2 0.4 2.8 1.1c0.7 0.7 1.1 1.6 1.1 2.7C386.9 21.2 386.5 22.2 385.8 22.9z M385.1 20.1 c0-0.7-0.2-1.2-0.6-1.7s-0.9-0.7-1.6-0.7c-0.6 0-1.1 0.2-1.6 0.7c-0.4 0.5-0.6 1-0.6 1.7c0 0.7 0.2 1.2 0.6 1.7s0.9 0.7 1.6 0.7 c0.6 0 1.1-0.2 1.6-0.7C384.9 21.4 385.1 20.8 385.1 20.1z"/><path fill="#4E4F54" d="M393.1 17.1c0.5 0.4 0.8 1.1 0.8 2c0 0.9-0.3 1.6-0.8 2c-0.5 0.4-1.3 0.6-2.4 0.6h-1v2.1h-1.6v-7.4h2.6 C391.7 16.4 392.6 16.6 393.1 17.1z M391.9 20c0.2-0.2 0.3-0.5 0.3-1c0-0.5-0.1-0.7-0.4-0.9c-0.3-0.2-0.7-0.3-1.2-0.3h-0.9v2.5 h1.1C391.3 20.3 391.7 20.2 391.9 20z"/><path fill="#4E4F54" d="M400.1 16.4v1.5h-3.6v1.5h3.3v1.4h-3.3v1.5h3.8v1.5h-5.4v-7.4H400.1z"/><path fill="#4E4F54" d="M407.5 18.9c0 1.2-0.5 1.9-1.4 2.3l1.9 2.6h-2l-1.6-2.4h-1.1v2.4h-1.8v-7.4h2.8c1.1 0 2 0.2 2.5 0.6 S407.5 18 407.5 18.9z M405.5 19.7c0.2-0.2 0.3-0.5 0.3-0.9s-0.1-0.7-0.3-0.8c-0.2-0.1-0.6-0.2-1.1-0.2h-1.2V20h1.2 C404.9 20 405.3 19.9 405.5 19.7z"/><path fill="#4E4F54" d="M350.9 25.6h1.6V33h-1.6l-3.5-4.6V33h-1.6v-7.4h1.5l3.6 4.8V25.6z"/><path fill="#4E4F54" d="M359.4 25.6v1.5h-3.7v1.5h3.3V30h-3.3v1.5h3.8V33h-5.4v-7.4C354 25.6 359.4 25.6 359.4 25.6z"/><path fill="#4E4F54" d="M363.8 27v6h-1.6v-6h-2.1v-1.4h5.8V27C365.9 27 363.8 27 363.8 27z"/><path fill="#4E4F54" d="M369.5 29.9l1.3-4.2h1.7l1.3 4.2l1.5-4.2h1.8l-2.6 7.4h-1.2l-1.6-5.1l-1.6 5.1h-1.2l-2.6-7.4h1.8 L369.5 29.9z"/><path fill="#4E4F54" d="M383.6 32c-0.7 0.7-1.7 1.1-2.8 1.1s-2-0.4-2.8-1.1c-0.7-0.7-1.1-1.6-1.1-2.7s0.4-2 1.1-2.7 c0.7-0.7 1.7-1.1 2.8-1.1s2 0.4 2.8 1.1c0.7 0.7 1.1 1.6 1.1 2.7C384.7 30.3 384.4 31.3 383.6 32z M383.1 29.3 c0-0.7-0.2-1.2-0.6-1.7c-0.4-0.5-0.9-0.7-1.6-0.7c-0.6 0-1.1 0.2-1.6 0.7c-0.4 0.5-0.6 1-0.6 1.7c0 0.7 0.2 1.2 0.6 1.7 s0.9 0.7 1.6 0.7s1.1-0.2 1.6-0.7C382.9 30.5 383.1 29.9 383.1 29.3z"/><path fill="#4E4F54" d="M391.9 28.1c0 1.2-0.5 1.9-1.4 2.3l1.9 2.6h-2l-1.6-2.4h-1.1V33h-1.6v-7.4h2.8c1.1 0 2 0.2 2.5 0.6 C391.7 26.6 391.9 27.2 391.9 28.1z M389.9 28.9c0.2-0.2 0.3-0.5 0.3-0.9c0-0.4-0.1-0.7-0.3-0.8c-0.2-0.1-0.6-0.2-1.1-0.2h-1.2 v2.2h1.2C389.4 29.2 389.7 29.1 389.9 28.9z"/><path fill="#4E4F54" d="M393.3 25.6h1.6v3l2.8-3h2l-2.9 3.3c0.3 0.4 0.7 1 1.4 2c0.7 1 1.2 1.7 1.5 2.2h-1.9l-2.2-2.9l-0.7 0.8 v2.1h-1.6V25.6L393.3 25.6z"/></g><g><linearGradient id="SVGID_26_" gradientUnits="userSpaceOnUse" x1="61.5" y1="677.5" x2="61.5" y2="658" gradientTransform="matrix(1.98 0 0 1.98 103.05 -1302.84)"><stop offset="0" style="stop-color:#2075BC"/><stop offset="1" style="stop-color:#29AAE1"/></linearGradient><polygon fill="url(#SVGID_26_)" points="235.8,0.1 235.8,0 235.8,0.1 235.7,0 235.7,0.1 224.9,4.4 213.9,0.1 213.9,0 213.9,0.1 213.9,0 213.9,0.1 203,4.4 203,38.6 213.9,34.4 224.9,38.6 224.9,38.6 224.9,38.6 224.9,38.6 224.9,38.6 235.8,34.4 246.7,38.6 246.7,4.4"/><g><linearGradient id="SVGID_27_" gradientUnits="userSpaceOnUse" x1="53.2" y1="677.5" x2="53.2" y2="658" gradientTransform="matrix(1.98 0 0 1.98 103.05 -1302.84)"><stop offset="0" style="stop-color:#0A6AA8"/><stop offset="1" style="stop-color:#1699C8"/></linearGradient><polygon fill="url(#SVGID_27_)" points="203,4.4 203,38.6 213.9,34.4 213.9,0"/><linearGradient id="SVGID_28_" gradientUnits="userSpaceOnUse" x1="58.8" y1="677.5" x2="58.8" y2="658" gradientTransform="matrix(1.98 0 0 1.98 103.05 -1302.84)"><stop offset="0" style="stop-color:#2075BC"/><stop offset="1" style="stop-color:#29AAE1"/></linearGradient><polygon fill="url(#SVGID_28_)" points="224.9,4.4 224.9,38.6 213.9,34.4 213.9,0"/><linearGradient id="SVGID_29_" gradientUnits="userSpaceOnUse" x1="64.3" y1="677.5" x2="64.3" y2="658" gradientTransform="matrix(1.98 0 0 1.98 103.05 -1302.84)"><stop offset="0" style="stop-color:#0A6AA8"/><stop offset="1" style="stop-color:#1699C8"/></linearGradient><polygon fill="url(#SVGID_29_)" points="224.9,4.4 224.9,38.6 235.8,34.4 235.8,0"/><linearGradient id="SVGID_30_" gradientUnits="userSpaceOnUse" x1="69.8" y1="677.5" x2="69.8" y2="658" gradientTransform="matrix(1.98 0 0 1.98 103.05 -1302.84)"><stop offset="0" style="stop-color:#2075BC"/><stop offset="1" style="stop-color:#29AAE1"/></linearGradient><polygon fill="url(#SVGID_30_)" points="246.7,4.4 246.7,38.6 235.7,34.4 235.7,0"/></g><g><g><g><defs><path id="SVGID_31_" d="M240.5 20c-0.4-1.1-0.3-3.1-0.5-3.4c-1.3-1.7-5.9-2.1-8-4.4c0.4-1.1-0.4-2.1-1.1-2.8 c-1.1-0.8-2.7-0.5-4-0.1c-1.4-0.3-2.7-0.8-4-1.2c-3-0.3-6 1.8-6 1.8c-2.2 1.4-5.5 4.2-7.2 5.9c0.4 0 0.8-0.3 1.3-0.3l3.1-0.8 c-1.3 1.1-4 2.9-4.8 4.4c1-0.3 3-1.5 4-1.5c-0.9 0.8-2.8 2.2-3.3 3.2c0.1 0 0 0.1 0 0.2c0.8-0.4 2.6-1.5 3.4-1.6 c-0.9 0.9-2.5 2.6-2.8 3.8c0.8-0.5 2.6-1.5 3.5-1.8c-0.2 0.5-0.6 0.8-0.9 1.3c-0.4 0.6-1.3 1.3-1.3 2.1 c0.7-0.6 1.5-1.1 2.3-1.6c-0.4 0.8-1 1.4-1.2 2.3c0.5-0.5 1.6-0.8 2.2-1l-0.1 0c-0.1 0-0.8 0.6-1.4 1.2c0.5 0 0.1-0.1 0.7 0.1 h0.3c-0.2 0.1-0.3 0.2-0.5 0.3l0 0c-0.3 0.2-0.6 0.3-0.9 0.5c1.3 1.6 2.9 3 4.7 3.9c2.4 1.2 5 1.5 7.6 1.3 c0-0.2-0.1-0.3-0.1-0.5l0 0l0 0c0-0.2-0.1-0.4-0.2-0.5l0 0l0 0c0.9-1.7 0.4-4.5 2.7-5.6c1.5-0.8 1.7-1.2 3.5-0.9 c1 0.2 3 0.9 4 0.7c0.9-0.5 1.4-0.7 2.2-1.3c1 0.2 1.3 0.1 1.7-0.4c-0.3 0.5 0.6-1.8 1-2.6L240.5 20z"/></defs><clipPath id="SVGID_32_"><use xlink:href="#SVGID_31_" overflow="visible"/></clipPath><ellipse clip-path="url(#SVGID_32_)" fill="#FFFFFF" cx="224.9" cy="20.1" rx="20.2" ry="13.7"/></g></g><g><g><defs><path id="SVGID_33_" d="M240.5 20c-0.4-1.1-0.3-3.1-0.5-3.4c-1.3-1.7-5.9-2.1-8-4.4c0.4-1.1-0.4-2.1-1.1-2.8 c-1.1-0.8-2.7-0.5-4-0.1c-1.4-0.3-2.7-0.8-4-1.2c-3-0.3-6 1.8-6 1.8c-2.2 1.4-5.5 4.2-7.2 5.9c0.4 0 0.8-0.3 1.3-0.3l3.1-0.8 c-1.3 1.1-4 2.9-4.8 4.4c1-0.3 3-1.5 4-1.5c-0.9 0.8-2.8 2.2-3.3 3.2c0.1 0 0 0.1 0 0.2c0.8-0.4 2.6-1.5 3.4-1.6 c-0.9 0.9-2.5 2.6-2.8 3.8c0.8-0.5 2.6-1.5 3.5-1.8c-0.2 0.5-0.6 0.8-0.9 1.3c-0.4 0.6-1.3 1.3-1.3 2.1 c0.7-0.6 1.5-1.1 2.3-1.6c-0.4 0.8-1 1.4-1.2 2.3c0.5-0.5 1.6-0.8 2.2-1l-0.1 0c-0.1 0-0.8 0.6-1.4 1.2c0.5 0 0.1-0.1 0.7 0.1 h0.3c-0.2 0.1-0.3 0.2-0.5 0.3l0 0c-0.3 0.2-0.6 0.3-0.9 0.5c1.3 1.6 2.9 3 4.7 3.9c2.4 1.2 5 1.5 7.6 1.3 c0-0.2-0.1-0.3-0.1-0.5l0 0l0 0c0-0.2-0.1-0.4-0.2-0.5l0 0l0 0c0.9-1.7 0.4-4.5 2.7-5.6c1.5-0.8 1.7-1.2 3.5-0.9 c1 0.2 3 0.9 4 0.7c0.9-0.5 1.4-0.7 2.2-1.3c1 0.2 1.3 0.1 1.7-0.4c-0.3 0.5 0.6-1.8 1-2.6L240.5 20z"/></defs><clipPath id="SVGID_34_"><use xlink:href="#SVGID_33_" overflow="visible"/></clipPath><polygon clip-path="url(#SVGID_34_)" fill="#F2F2F2" points="203.3,5.1 203.3,39.5 214.1,35.3 214.1,0.7"/></g></g><g><g><defs><path id="SVGID_35_" d="M240.5 20c-0.4-1.1-0.3-3.1-0.5-3.4c-1.3-1.7-5.9-2.1-8-4.4c0.4-1.1-0.4-2.1-1.1-2.8 c-1.1-0.8-2.7-0.5-4-0.1c-1.4-0.3-2.7-0.8-4-1.2c-3-0.3-6 1.8-6 1.8c-2.2 1.4-5.5 4.2-7.2 5.9c0.4 0 0.8-0.3 1.3-0.3l3.1-0.8 c-1.3 1.1-4 2.9-4.8 4.4c1-0.3 3-1.5 4-1.5c-0.9 0.8-2.8 2.2-3.3 3.2c0.1 0 0 0.1 0 0.2c0.8-0.4 2.6-1.5 3.4-1.6 c-0.9 0.9-2.5 2.6-2.8 3.8c0.8-0.5 2.6-1.5 3.5-1.8c-0.2 0.5-0.6 0.8-0.9 1.3c-0.4 0.6-1.3 1.3-1.3 2.1 c0.7-0.6 1.5-1.1 2.3-1.6c-0.4 0.8-1 1.4-1.2 2.3c0.5-0.5 1.6-0.8 2.2-1l-0.1 0c-0.1 0-0.8 0.6-1.4 1.2c0.5 0 0.1-0.1 0.7 0.1 h0.3c-0.2 0.1-0.3 0.2-0.5 0.3l0 0c-0.3 0.2-0.6 0.3-0.9 0.5c1.3 1.6 2.9 3 4.7 3.9c2.4 1.2 5 1.5 7.6 1.3 c0-0.2-0.1-0.3-0.1-0.5l0 0l0 0c0-0.2-0.1-0.4-0.2-0.5l0 0l0 0c0.9-1.7 0.4-4.5 2.7-5.6c1.5-0.8 1.7-1.2 3.5-0.9 c1 0.2 3 0.9 4 0.7c0.9-0.5 1.4-0.7 2.2-1.3c1 0.2 1.3 0.1 1.7-0.4c-0.3 0.5 0.6-1.8 1-2.6L240.5 20z"/></defs><clipPath id="SVGID_36_"><use xlink:href="#SVGID_35_" overflow="visible"/></clipPath><polygon clip-path="url(#SVGID_36_)" fill="#FFFFFF" points="225,5.1 225,39.5 214.1,35.3 214.1,0.7"/></g></g><g><g><defs><path id="SVGID_37_" d="M240.5 20c-0.4-1.1-0.3-3.1-0.5-3.4c-1.3-1.7-5.9-2.1-8-4.4c0.4-1.1-0.4-2.1-1.1-2.8 c-1.1-0.8-2.7-0.5-4-0.1c-1.4-0.3-2.7-0.8-4-1.2c-3-0.3-6 1.8-6 1.8c-2.2 1.4-5.5 4.2-7.2 5.9c0.4 0 0.8-0.3 1.3-0.3l3.1-0.8 c-1.3 1.1-4 2.9-4.8 4.4c1-0.3 3-1.5 4-1.5c-0.9 0.8-2.8 2.2-3.3 3.2c0.1 0 0 0.1 0 0.2c0.8-0.4 2.6-1.5 3.4-1.6 c-0.9 0.9-2.5 2.6-2.8 3.8c0.8-0.5 2.6-1.5 3.5-1.8c-0.2 0.5-0.6 0.8-0.9 1.3c-0.4 0.6-1.3 1.3-1.3 2.1 c0.7-0.6 1.5-1.1 2.3-1.6c-0.4 0.8-1 1.4-1.2 2.3c0.5-0.5 1.6-0.8 2.2-1l-0.1 0c-0.1 0-0.8 0.6-1.4 1.2c0.5 0 0.1-0.1 0.7 0.1 h0.3c-0.2 0.1-0.3 0.2-0.5 0.3l0 0c-0.3 0.2-0.6 0.3-0.9 0.5c1.3 1.6 2.9 3 4.7 3.9c2.4 1.2 5 1.5 7.6 1.3 c0-0.2-0.1-0.3-0.1-0.5l0 0l0 0c0-0.2-0.1-0.4-0.2-0.5l0 0l0 0c0.9-1.7 0.4-4.5 2.7-5.6c1.5-0.8 1.7-1.2 3.5-0.9 c1 0.2 3 0.9 4 0.7c0.9-0.5 1.4-0.7 2.2-1.3c1 0.2 1.3 0.1 1.7-0.4c-0.3 0.5 0.6-1.8 1-2.6L240.5 20z"/></defs><clipPath id="SVGID_38_"><use xlink:href="#SVGID_37_" overflow="visible"/></clipPath><polygon clip-path="url(#SVGID_38_)" fill="#F2F2F2" points="224.9,5.1 224.9,39.5 235.8,35.3 235.8,0.7"/></g></g><g><g><defs><path id="SVGID_39_" d="M240.5 20c-0.4-1.1-0.3-3.1-0.5-3.4c-1.3-1.7-5.9-2.1-8-4.4c0.4-1.1-0.4-2.1-1.1-2.8 c-1.1-0.8-2.7-0.5-4-0.1c-1.4-0.3-2.7-0.8-4-1.2c-3-0.3-6 1.8-6 1.8c-2.2 1.4-5.5 4.2-7.2 5.9c0.4 0 0.8-0.3 1.3-0.3l3.1-0.8 c-1.3 1.1-4 2.9-4.8 4.4c1-0.3 3-1.5 4-1.5c-0.9 0.8-2.8 2.2-3.3 3.2c0.1 0 0 0.1 0 0.2c0.8-0.4 2.6-1.5 3.4-1.6 c-0.9 0.9-2.5 2.6-2.8 3.8c0.8-0.5 2.6-1.5 3.5-1.8c-0.2 0.5-0.6 0.8-0.9 1.3c-0.4 0.6-1.3 1.3-1.3 2.1 c0.7-0.6 1.5-1.1 2.3-1.6c-0.4 0.8-1 1.4-1.2 2.3c0.5-0.5 1.6-0.8 2.2-1l-0.1 0c-0.1 0-0.8 0.6-1.4 1.2c0.5 0 0.1-0.1 0.7 0.1 h0.3c-0.2 0.1-0.3 0.2-0.5 0.3l0 0c-0.3 0.2-0.6 0.3-0.9 0.5c1.3 1.6 2.9 3 4.7 3.9c2.4 1.2 5 1.5 7.6 1.3 c0-0.2-0.1-0.3-0.1-0.5l0 0l0 0c0-0.2-0.1-0.4-0.2-0.5l0 0l0 0c0.9-1.7 0.4-4.5 2.7-5.6c1.5-0.8 1.7-1.2 3.5-0.9 c1 0.2 3 0.9 4 0.7c0.9-0.5 1.4-0.7 2.2-1.3c1 0.2 1.3 0.1 1.7-0.4c-0.3 0.5 0.6-1.8 1-2.6L240.5 20z"/></defs><clipPath id="SVGID_40_"><use xlink:href="#SVGID_39_" overflow="visible"/></clipPath><polygon clip-path="url(#SVGID_40_)" fill="#FFFFFF" points="246.5,5.1 246.5,39.5 235.7,35.3 235.7,0.7"/></g></g></g></g><g><path fill="#4E4F54" d="M277.9 16.8L271 30.8h-3.4l-6.8-13.9v16H255V7.4h7.7l6.6 14l6.6-14h7.6v25.5h-5.7V16.8L277.9 16.8z"/><path fill="#4E4F54" d="M306.8 10.7c2.4 2.2 3.6 5.3 3.6 9.3s-1.2 7.1-3.5 9.4c-2.4 2.3-6 3.5-10.8 3.5h-8.7V7.4h9 C300.8 7.4 304.4 8.5 306.8 10.7z M302.5 26c1.4-1.3 2.1-3.2 2.1-5.7c0-2.5-0.7-4.4-2.1-5.8c-1.4-1.3-3.5-2-6.4-2h-3.2v15.4h3.6 C299.1 27.9 301.1 27.3 302.5 26z"/><path fill="#4E4F54" d="M331.5 7.4h5.7v25.5h-5.7l-12.1-15.9v15.9h-5.7V7.4h5.3l12.5 16.4V7.4z"/></g></g></svg>
