<?xml version="1.0" encoding="utf-8"?>
<svg id="MDN_Web_Docs" data-name="MDN Web Docs" viewBox="0 0 219 106" preserveAspectRatio="xMaxYMid" width="219px" height="106px" xmlns="http://www.w3.org/2000/svg">
  <defs>
    <style>.cls-1{fill:#fff;}</style>
  </defs>
  <title>MDN Web Docs</title>
  <path d="M49.752 30.824h59.917v17.132H49.75zm57.23 12.3c-.103.03-.21.048-.316.05-.338 0-.514-.15-.514-.582v-3.256c0-1.71-1.352-2.543-2.976-2.543-1.107-.025-2.205.207-3.21.676l-.29 1.724 1.71.182.245-.842c.358-.168.753-.242 1.147-.216 1.214 0 1.23.913 1.23 1.69v.234c-.407-.048-.818-.07-1.23-.068-1.71 0-3.49.433-3.49 2.276 0 1.563 1.23 2.144 2.31 2.144 1.022-.003 1.954-.58 2.41-1.494.018.88.77 1.563 1.648 1.494.472 0 .936-.117 1.353-.338zm-4.604-.05c-.504.063-.936-.362-.88-.867 0-.815.677-1.015 1.432-1.015.36.008.722.04 1.078.098-.05 1.235-.852 1.783-1.63 1.783zM97.388 33l-3.24 11.433h2.11L99.5 33.002zm-4.353 0l-3.24 11.433h2.11l3.24-11.433zm-6.89 6.645h2.243v-2.705h-2.242zm0 4.802h2.243v-2.706h-2.242zm-3.617-1.64H80.1l4.156-4.736-.166-1.13h-6.58l-.268 2.63 1.546.164.338-1.163h2.343l-4.123 4.734.216 1.13h6.544l.467-2.63-1.69-.164zm-10.385-6.017c-2.706 0-4.02 1.812-4.02 4.004 0 2.394 1.595 3.804 3.905 3.804 2.394 0 4.122-1.51 4.122-3.905-.003-2.093-1.32-3.906-4.01-3.906zm-.054 6.154c-1.165 0-1.763-.997-1.763-2.292 0-1.414.676-2.23 1.778-2.23 1.015 0 1.83.677 1.83 2.196 0 1.438-.73 2.327-1.846 2.327zm-5.906-3.564c0-1.78-1.224-2.594-2.577-2.594-1.075-.04-2.057.607-2.44 1.612-.367-1.1-1.364-1.613-2.443-1.613-.94-.04-1.82.455-2.276 1.278v-1.13h-3.14v1.63h.996v4.24h-.997v1.63h4.572v-1.63h-1.432V40.2c0-1.048.433-1.78 1.448-1.78.845 0 1.278.502 1.278 1.797v4.224h3.14v-1.63h-.996v-2.612c0-1.048.433-1.78 1.447-1.78.846 0 1.278.502 1.278 1.797v4.214h3.142V42.8h-.998zM144.974 16.99h-6.29c.23-1.935 1.16-3.558 3.274-3.558 2.245 0 3.2 1.857 3.016 3.558zM218.952 0v29.137h-169.2V0zM71.706 6.885h-3.85L61.51 20.01h-.104L54.882 6.884h-3.84v1.65h2.19V21.98H51.12v1.65h5.927v-1.65h-2.012V11.24h.1l5.75 11.553H61.9l5.62-11.474h.105v10.66h-1.962v1.65h5.942v-1.65h-2.09V8.536h2.19zm9.993 16.76c5.285 0 8.484-3.48 8.484-8.42 0-4.847-3.094-8.353-8.56-8.353h-7.503v1.623h2.114v13.527H74.12v1.623zm27.05-16.76h-6.426v1.65h2.526v11.268h-.1L95.21 6.885H91.6v1.65h2.22V21.98h-1.935v1.65h6.385v-1.65h-2.655V10.444h.1l9.724 13.202h1.21V8.535h2.09zm26.71 5.29h-5.156v1.467h1.83l-1.857 7.247h-.128l-3.586-8.716h-1.21l-3.423 8.718h-.127l-2.14-7.247h1.933v-1.47h-5.41v1.467h1.522l3.25 10.003h1.352l3.432-8.766h.13l3.496 8.765h1.393l3.122-10.003h1.573zm6.704 11.727c2.837 0 4.514-1.583 4.83-3.568l-1.523-.338c-.36 1.42-1.365 2.347-3.17 2.347-2.283 0-3.53-1.468-3.636-4.02h8.058c.1-.445.153-.898.156-1.354-.024-2.71-1.728-5.03-4.873-5.03-3.246 0-5.26 2.58-5.26 6.14 0 3.712 2.162 5.825 5.412 5.825zm13.408 0c3.663 0 5.134-3.25 5.134-6.294 0-3.642-2.063-5.67-4.924-5.67-2.19 0-3.402 1.186-4.1 2.603V5.905h-3.53v1.47h1.692v12.923c-.03 1.124-.143 2.244-.338 3.35h1.805c.028-.127.235-1.778.235-1.906.747 1.39 2.242 2.165 4.02 2.165zm26.198-1.728h-1.985V5.904h-4.6v1.47h2.798v6.653c-.748-1.342-2.15-2.09-3.842-2.09-3.74 0-5.183 3.2-5.183 6.267 0 3.584 1.958 5.698 4.924 5.698 2.087 0 3.352-1.224 4.1-2.577v2.323h3.784zm6.963 1.728c3.53 0 5.75-2.526 5.742-6.006 0-3.25-1.934-5.982-5.647-5.982s-5.67 2.735-5.67 6.087c0 3.457 2.09 5.905 5.568 5.905zm12.942 0c3.172 0 4.538-2.114 4.866-4.112l-1.548-.34c-.334 1.885-1.315 2.917-3.094 2.917-2.27 0-3.507-1.637-3.507-4.397 0-2.475.982-4.487 3.43-4.487.862-.03 1.713.195 2.45.646l.42 1.936 1.496-.18-.44-2.758c-1.16-.876-2.397-1.187-3.92-1.187-3.556 0-5.362 2.966-5.362 6.14 0 3.685 2.036 5.825 5.208 5.825zm11.166 0c2.76 0 4.874-1.34 4.847-3.595 0-4.565-7.1-2.195-7.1-5.184 0-1.177 1.03-1.69 2.474-1.69.826-.015 1.64.18 2.368.567l.267 1.864 1.495-.18-.284-2.68c-1.22-.692-2.596-1.057-3.997-1.06-2.088 0-4.255.903-4.255 3.328 0 4.46 7.193 2.063 7.193 5.208 0 1.315-1.495 1.934-3.095 1.934-.883.007-1.756-.187-2.553-.568l.078-1.522-1.444-.156-.362 2.604c.977.643 2.736 1.133 4.36 1.133zm-54.042-6.11c0 2.373-1.058 4.564-3.584 4.564-1.94.044-3.534-1.516-3.534-3.456v-1.728c.05-1.7 1.444-3.686 3.635-3.686 1.948 0 3.48 1.444 3.483 4.305zm19.18-1.06v1.833c-.076 1.73-1.57 3.79-3.634 3.79-1.985 0-3.48-1.47-3.48-4.28 0-2.425 1.133-4.59 3.686-4.59 1.84-.04 3.37 1.41 3.43 3.248zm14.597 1.133c0 2.58-1.34 4.488-3.79 4.488-2.453 0-3.74-1.958-3.74-4.46 0-2.55 1.34-4.434 3.74-4.434 2.397 0 3.79 1.778 3.79 4.405zm-104.39-2.593c0 4.16-2.32 6.763-6.574 6.763h-3.478V8.508h3.466c4.254 0 6.574 2.71 6.587 6.764zM.116 0h47.956v47.956H.116zM42.01 22.02c-.036-.723-.12-1.448-.17-2.166-.027-.36-.165-.702-.395-.98-.272-.332-.626-.587-1.026-.74-.808-.314-1.622-.664-2.435-.975-1.152-.395-2.27-.886-3.342-1.472-.72-.415-1.2-1.147-1.296-1.972-.106-.933-.654-1.762-1.47-2.228-.906-.487-1.963-.612-2.958-.35-.734.176-1.5.165-2.23-.033l-1.112-.34-.302-.09-.873-.26c-1.57-.468-2.228-.713-4.773-.278-2.682.608-5.137 1.96-7.09 3.897l-6.37 6.76h5.72l-3.504 3.71h6.026l-3.503 3.71h4.844l-1.548 4.06c5.93 6.07 12.25 7.295 12.25 7.295 0-1.673.38-8.24.826-9.34.167-.552.425-1.07.762-1.54.827-1.014 2.082-1.588 3.393-1.547 1.303 0 2.597.238 3.815.702.74.31 1.577.264 2.277-.122.507-.3 1.007-.618 1.498-.94.157-.125.355-.188.556-.18.54.06 1.054-.237 1.27-.734.16-.33.35-.64.524-.97.472-.884.69-1.88.633-2.88z"/>
  <path d="M49.752 88.868h59.917V106H49.75zm57.23 12.3c-.103.03-.21.048-.316.05-.338 0-.514-.15-.514-.582V97.38c0-1.71-1.352-2.543-2.976-2.543-1.107-.025-2.205.207-3.21.676l-.29 1.725 1.71.182.245-.842c.358-.168.753-.242 1.147-.216 1.214 0 1.23.913 1.23 1.69v.234c-.407-.048-.818-.07-1.23-.068-1.71 0-3.49.433-3.49 2.276 0 1.563 1.23 2.144 2.31 2.144 1.022-.003 1.954-.58 2.41-1.494.018.88.77 1.563 1.648 1.494.472 0 .936-.117 1.353-.338zm-4.604-.05c-.504.063-.936-.362-.88-.867 0-.814.677-1.014 1.432-1.014.36.008.722.04 1.078.098-.05 1.235-.852 1.783-1.63 1.783zm-4.99-10.072l-3.24 11.433h2.11L99.5 91.045zm-4.353 0l-3.24 11.433h2.11l3.24-11.434zm-6.89 6.645h2.243v-2.704h-2.242zm0 4.803h2.243v-2.705h-2.242zm-3.617-1.64H80.1l4.156-4.735-.166-1.13h-6.58l-.268 2.63 1.546.164.338-1.163h2.343l-4.123 4.733.216 1.13h6.544l.467-2.628-1.69-.165zm-10.385-6.016c-2.706 0-4.02 1.812-4.02 4.004 0 2.395 1.595 3.805 3.905 3.805 2.394 0 4.122-1.51 4.122-3.906-.003-2.094-1.32-3.907-4.01-3.907zm-.054 6.154c-1.165 0-1.763-.996-1.763-2.29 0-1.415.676-2.23 1.778-2.23 1.015 0 1.83.676 1.83 2.195 0 1.437-.73 2.326-1.846 2.326zm-5.906-3.563c0-1.78-1.224-2.594-2.577-2.594-1.075-.04-2.057.608-2.44 1.613-.367-1.1-1.364-1.613-2.443-1.613-.94-.04-1.82.456-2.276 1.28v-1.13h-3.14v1.63h.996v4.24h-.997v1.63h4.572v-1.63h-1.432v-2.61c0-1.05.433-1.78 1.448-1.78.845 0 1.278.5 1.278 1.796v4.223h3.14v-1.63h-.996v-2.61c0-1.05.433-1.78 1.447-1.78.846 0 1.278.5 1.278 1.796v4.213h3.142v-1.63h-.998zM144.974 75.034h-6.29c.23-1.935 1.16-3.558 3.274-3.558 2.245 0 3.2 1.857 3.016 3.558zm73.978-16.99V87.18h-169.2V58.045zM71.706 64.93h-3.85L61.51 78.052h-.104L54.882 64.93h-3.84v1.65h2.19v13.445H51.12v1.65h5.927v-1.65h-2.012v-10.74h.1l5.75 11.552H61.9l5.62-11.474h.105v10.662h-1.962v1.65h5.942v-1.65h-2.09V66.58h2.19zM81.7 81.69c5.285 0 8.484-3.48 8.484-8.422 0-4.846-3.094-8.352-8.56-8.352h-7.503v1.623h2.114v13.526H74.12v1.623zm27.05-16.76h-6.426v1.65h2.526v11.267h-.1L95.21 64.93H91.6v1.65h2.22v13.445h-1.935v1.65h6.385v-1.65h-2.655V68.487h.1l9.724 13.202h1.21V66.58h2.09zm26.71 5.288h-5.156v1.468h1.83l-1.857 7.247h-.128l-3.586-8.715h-1.21l-3.423 8.718h-.127l-2.14-7.247h1.933v-1.472h-5.41v1.468h1.522l3.25 10.003h1.352l3.432-8.767h.13l3.496 8.766h1.393l3.122-10.004h1.573zm6.704 11.728c2.837 0 4.514-1.583 4.83-3.568l-1.523-.338c-.36 1.42-1.365 2.347-3.17 2.347-2.283 0-3.53-1.468-3.636-4.02h8.058c.1-.445.153-.898.156-1.354-.024-2.708-1.728-5.028-4.873-5.028-3.246 0-5.26 2.58-5.26 6.138 0 3.713 2.162 5.826 5.412 5.826zm13.408 0c3.663 0 5.134-3.25 5.134-6.294 0-3.642-2.063-5.67-4.924-5.67-2.19 0-3.402 1.186-4.1 2.603v-8.637h-3.53v1.47h1.692v12.923c-.03 1.125-.143 2.245-.338 3.352h1.805c.028-.128.235-1.78.235-1.907.747 1.39 2.242 2.164 4.02 2.164zm26.198-1.728h-1.985v-16.27h-4.6v1.47h2.798v6.653c-.748-1.34-2.15-2.09-3.842-2.09-3.74 0-5.183 3.2-5.183 6.268 0 3.584 1.958 5.698 4.924 5.698 2.087 0 3.352-1.224 4.1-2.577v2.322h3.784zm6.963 1.728c3.53 0 5.75-2.526 5.742-6.006 0-3.25-1.934-5.982-5.647-5.982s-5.67 2.735-5.67 6.087c0 3.456 2.09 5.904 5.568 5.904zm12.942 0c3.172 0 4.538-2.114 4.866-4.112l-1.548-.34c-.334 1.885-1.315 2.917-3.094 2.917-2.27 0-3.507-1.636-3.507-4.396 0-2.475.982-4.487 3.43-4.487.862-.03 1.713.195 2.45.646l.42 1.937 1.496-.18-.44-2.758c-1.16-.876-2.397-1.187-3.92-1.187-3.556 0-5.362 2.965-5.362 6.138 0 3.686 2.036 5.826 5.208 5.826zm11.166 0c2.76 0 4.874-1.34 4.847-3.595 0-4.564-7.1-2.194-7.1-5.183 0-1.177 1.03-1.69 2.474-1.69.826-.015 1.64.18 2.368.567l.267 1.864 1.495-.18-.284-2.68c-1.22-.692-2.596-1.057-3.997-1.06-2.088 0-4.255.903-4.255 3.328 0 4.46 7.193 2.063 7.193 5.208 0 1.315-1.495 1.934-3.095 1.934-.883.007-1.756-.187-2.553-.568l.078-1.522-1.444-.156-.362 2.604c.977.643 2.736 1.133 4.36 1.133zm-54.042-6.11c0 2.373-1.058 4.564-3.584 4.564-1.94.044-3.534-1.516-3.534-3.456v-1.728c.05-1.7 1.444-3.686 3.635-3.686 1.948 0 3.48 1.444 3.483 4.305zm19.18-1.06v1.833c-.076 1.728-1.57 3.79-3.634 3.79-1.985 0-3.48-1.47-3.48-4.28 0-2.426 1.133-4.59 3.686-4.59 1.84-.04 3.37 1.408 3.43 3.247zm14.597 1.133c0 2.58-1.34 4.487-3.79 4.487-2.453 0-3.74-1.958-3.74-4.46 0-2.55 1.34-4.434 3.74-4.434 2.397 0 3.79 1.78 3.79 4.406zm-104.39-2.594c0 4.16-2.32 6.763-6.574 6.763h-3.478V66.55h3.466c4.254 0 6.574 2.71 6.587 6.764zM.116 58.044h47.956V106H.116zm41.896 22.02c-.038-.723-.122-1.448-.172-2.166-.028-.36-.164-.703-.395-.98-.272-.332-.626-.587-1.026-.74-.808-.314-1.62-.664-2.435-.976-1.153-.393-2.27-.884-3.34-1.47-.72-.415-1.202-1.146-1.297-1.97-.107-.935-.654-1.764-1.47-2.23-.907-.487-1.964-.612-2.96-.35-.732.176-1.5.164-2.227-.033l-1.112-.34-.302-.09-.872-.26c-1.57-.47-2.23-.714-4.775-.28-2.682.61-5.137 1.96-7.09 3.898l-6.37 6.76h5.72l-3.504 3.71h6.026l-3.503 3.71h4.844l-1.548 4.06c5.93 6.07 12.25 7.295 12.25 7.295 0-1.672.38-8.238.826-9.34.167-.55.425-1.07.763-1.538.826-1.016 2.08-1.59 3.392-1.548 1.303 0 2.597.237 3.814.702.74.308 1.58.262 2.28-.123.506-.3 1.007-.618 1.498-.94.158-.126.355-.188.556-.18.54.06 1.054-.237 1.27-.734.16-.33.35-.64.524-.97.472-.883.69-1.88.634-2.88z" fill="#FFF"/>
</svg>
