<?xml version="1.0" encoding="utf-8"?>
<svg id="MDN_Web_Docs" data-name="MDN Web Docs" viewBox="0 0 219 106" preserveAspectRatio="xMaxYMid" xmlns="http://www.w3.org/2000/svg">
  <defs>
    <style>.cls-1{fill:#fff;}</style>
  </defs>
  <title>MDN Web Docs</title>
  <path d="M 49.752 30.824 L 109.669 30.824 L 109.669 47.956 L 49.752 47.956 Z M 106.981 43.123 C 106.879 43.155 106.773 43.172 106.666 43.174 C 106.328 43.174 106.152 43.025 106.152 42.592 L 106.152 39.336 C 106.152 37.625 104.8 36.793 103.176 36.793 C 102.069 36.768 100.971 37 99.967 37.469 L 99.676 39.194 L 101.387 39.376 L 101.631 38.534 C 101.988 38.366 102.383 38.292 102.777 38.318 C 103.991 38.318 104.008 39.231 104.008 40.009 L 104.008 40.242 C 103.6 40.194 103.189 40.171 102.777 40.174 C 101.066 40.174 99.287 40.607 99.287 42.45 C 99.287 44.013 100.518 44.594 101.597 44.594 C 102.619 44.591 103.551 44.013 104.008 43.1 C 104.025 43.979 104.778 44.663 105.655 44.594 C 106.127 44.594 106.591 44.477 107.008 44.256 Z M 102.378 43.073 C 101.874 43.137 101.442 42.712 101.499 42.207 C 101.499 41.392 102.175 41.192 102.93 41.192 C 103.291 41.2 103.652 41.233 104.008 41.29 C 103.958 42.525 103.156 43.073 102.378 43.073 Z M 97.387 33.002 L 94.147 44.435 L 96.257 44.435 L 99.501 33.002 Z M 93.035 33.002 L 89.795 44.435 L 91.905 44.435 L 95.145 33.002 Z M 86.146 39.647 L 88.388 39.647 L 88.388 36.942 L 86.146 36.942 Z M 86.146 44.449 L 88.388 44.449 L 88.388 41.744 L 86.146 41.744 Z M 82.528 42.809 L 80.1 42.809 L 84.256 38.074 L 84.09 36.945 L 77.509 36.945 L 77.242 39.573 L 78.788 39.738 L 79.126 38.575 L 81.469 38.575 L 77.347 43.309 L 77.563 44.439 L 84.107 44.439 L 84.574 41.811 L 82.883 41.646 Z M 72.143 36.793 C 69.437 36.793 68.122 38.605 68.122 40.797 C 68.122 43.191 69.718 44.601 72.028 44.601 C 74.422 44.601 76.15 43.09 76.15 40.695 C 76.147 38.602 74.831 36.789 72.139 36.789 Z M 72.089 42.947 C 70.925 42.947 70.327 41.95 70.327 40.655 C 70.327 39.241 71.003 38.426 72.105 38.426 C 73.12 38.426 73.935 39.102 73.935 40.621 C 73.935 42.058 73.204 42.947 72.089 42.947 Z M 66.184 39.383 C 66.184 37.604 64.96 36.789 63.607 36.789 C 62.532 36.749 61.55 37.397 61.166 38.402 C 60.8 37.303 59.803 36.789 58.724 36.789 C 57.785 36.75 56.903 37.245 56.448 38.068 L 56.448 36.938 L 53.307 36.938 L 53.307 38.568 L 54.304 38.568 L 54.304 42.809 L 53.307 42.809 L 53.307 44.439 L 57.879 44.439 L 57.879 42.809 L 56.448 42.809 L 56.448 40.198 C 56.448 39.15 56.881 38.419 57.896 38.419 C 58.741 38.419 59.174 38.92 59.174 40.215 L 59.174 44.439 L 62.315 44.439 L 62.315 42.809 L 61.318 42.809 L 61.318 40.198 C 61.318 39.15 61.751 38.419 62.765 38.419 C 63.611 38.419 64.043 38.92 64.043 40.215 L 64.043 44.429 L 67.185 44.429 L 67.185 42.799 L 66.187 42.799 Z"/>
  <path d="M 144.974 16.99 L 138.684 16.99 C 138.914 15.055 139.844 13.432 141.958 13.432 C 144.203 13.432 145.157 15.289 144.974 16.99 Z M 218.952 0 L 218.952 29.137 L 49.752 29.137 L 49.752 0 Z M 71.706 6.885 L 67.855 6.885 L 61.511 20.009 L 61.406 20.009 L 54.882 6.885 L 51.041 6.885 L 51.041 8.535 L 53.232 8.535 L 53.232 21.981 L 51.119 21.981 L 51.119 23.631 L 57.047 23.631 L 57.047 21.981 L 55.035 21.981 L 55.035 11.241 L 55.136 11.241 L 60.885 22.793 L 61.899 22.793 L 67.52 11.319 L 67.625 11.319 L 67.625 21.981 L 65.663 21.981 L 65.663 23.631 L 71.605 23.631 L 71.605 21.981 L 69.515 21.981 L 69.515 8.535 L 71.706 8.535 Z M 81.699 23.645 C 86.985 23.645 90.184 20.165 90.184 15.224 C 90.184 10.378 87.09 6.872 81.625 6.872 L 74.121 6.872 L 74.121 8.495 L 76.234 8.495 L 76.234 22.022 L 74.121 22.022 L 74.121 23.645 Z M 108.749 6.885 L 102.324 6.885 L 102.324 8.535 L 104.85 8.535 L 104.85 19.803 L 104.749 19.803 L 95.209 6.885 L 91.601 6.885 L 91.601 8.535 L 93.819 8.535 L 93.819 21.981 L 91.885 21.981 L 91.885 23.631 L 98.27 23.631 L 98.27 21.981 L 95.615 21.981 L 95.615 10.443 L 95.716 10.443 L 105.439 23.645 L 106.649 23.645 L 106.649 8.535 L 108.739 8.535 Z M 135.461 12.174 L 130.304 12.174 L 130.304 13.642 L 132.134 13.642 L 130.277 20.889 L 130.149 20.889 L 126.564 12.174 L 125.354 12.174 L 121.931 20.892 L 121.803 20.892 L 119.662 13.645 L 121.596 13.645 L 121.596 12.174 L 116.186 12.174 L 116.186 13.642 L 117.708 13.642 L 120.957 23.645 L 122.31 23.645 L 125.742 14.879 L 125.871 14.879 L 129.368 23.645 L 130.761 23.645 L 133.882 13.642 L 135.455 13.642 Z M 142.164 23.902 C 145.001 23.902 146.678 22.319 146.993 20.334 L 145.471 19.996 C 145.109 21.416 144.105 22.343 142.299 22.343 C 140.017 22.343 138.769 20.875 138.664 18.322 L 146.722 18.322 C 146.823 17.878 146.875 17.425 146.878 16.969 C 146.854 14.261 145.15 11.941 142.005 11.941 C 138.759 11.941 136.746 14.521 136.746 18.079 C 136.746 21.792 138.907 23.905 142.157 23.905 Z M 155.572 23.902 C 159.235 23.902 160.706 20.652 160.706 17.608 C 160.706 13.966 158.643 11.937 155.782 11.937 C 153.591 11.937 152.38 13.124 151.683 14.541 L 151.683 5.904 L 148.153 5.904 L 148.153 7.375 L 149.844 7.375 L 149.844 20.297 C 149.814 21.421 149.701 22.541 149.506 23.648 L 151.311 23.648 C 151.338 23.52 151.545 21.869 151.545 21.741 C 152.292 23.131 153.787 23.905 155.566 23.905 Z M 181.77 22.174 L 179.785 22.174 L 179.785 5.904 L 175.186 5.904 L 175.186 7.375 L 177.983 7.375 L 177.983 14.027 C 177.235 12.685 175.832 11.937 174.141 11.937 C 170.401 11.937 168.957 15.136 168.957 18.204 C 168.957 21.788 170.915 23.902 173.881 23.902 C 175.967 23.902 177.232 22.678 177.979 21.325 L 177.979 23.648 L 181.764 23.648 Z M 188.733 23.902 C 192.264 23.902 194.482 21.376 194.475 17.896 C 194.475 14.646 192.541 11.914 188.828 11.914 C 185.115 11.914 183.157 14.649 183.157 18.001 C 183.157 21.457 185.247 23.905 188.726 23.905 Z M 201.675 23.902 C 204.847 23.902 206.213 21.788 206.541 19.79 L 204.992 19.451 C 204.658 21.335 203.677 22.367 201.898 22.367 C 199.629 22.367 198.391 20.73 198.391 17.97 C 198.391 15.495 199.372 13.483 201.82 13.483 C 202.682 13.453 203.533 13.678 204.269 14.129 L 204.691 16.066 L 206.186 15.887 L 205.746 13.128 C 204.587 12.252 203.349 11.941 201.827 11.941 C 198.27 11.941 196.464 14.906 196.464 18.079 C 196.464 21.765 198.5 23.905 201.672 23.905 Z M 212.841 23.902 C 215.601 23.902 217.714 22.563 217.687 20.307 C 217.687 15.742 210.586 18.112 210.586 15.123 C 210.586 13.946 211.617 13.432 213.061 13.432 C 213.886 13.418 214.7 13.613 215.428 14 L 215.695 15.864 L 217.19 15.684 L 216.906 13.003 C 215.687 12.312 214.31 11.947 212.909 11.944 C 210.822 11.944 208.655 12.847 208.655 15.272 C 208.655 19.732 215.848 17.335 215.848 20.48 C 215.848 21.795 214.353 22.414 212.753 22.414 C 211.87 22.421 210.997 22.227 210.2 21.846 L 210.278 20.324 L 208.834 20.168 L 208.472 22.772 C 209.449 23.415 211.208 23.905 212.831 23.905 Z M 158.798 17.791 C 158.798 20.165 157.74 22.356 155.214 22.356 C 153.275 22.4 151.68 20.84 151.68 18.9 L 151.68 17.172 C 151.731 15.471 153.124 13.486 155.315 13.486 C 157.263 13.486 158.795 14.93 158.798 17.791 Z M 177.979 16.733 L 177.979 18.565 C 177.902 20.294 176.407 22.356 174.344 22.356 C 172.359 22.356 170.864 20.885 170.864 18.075 C 170.864 15.65 171.997 13.486 174.55 13.486 C 176.39 13.446 177.919 14.894 177.979 16.733 Z M 192.575 17.865 C 192.575 20.446 191.236 22.353 188.784 22.353 C 186.332 22.353 185.044 20.395 185.044 17.893 C 185.044 15.343 186.386 13.459 188.784 13.459 C 191.182 13.459 192.575 15.238 192.575 17.865 Z M 88.185 15.272 C 88.185 19.431 85.866 22.035 81.611 22.035 L 78.132 22.035 L 78.132 8.508 L 81.598 8.508 C 85.852 8.508 88.172 11.217 88.185 15.272 Z"/>
  <path d="M 0.116 0 L 48.072 0 L 48.072 47.956 L 0.116 47.956 Z M 42.011 22.02 C 41.974 21.297 41.89 20.572 41.841 19.854 C 41.813 19.494 41.675 19.152 41.445 18.875 C 41.173 18.542 40.819 18.287 40.419 18.133 C 39.612 17.82 38.798 17.47 37.985 17.159 C 36.833 16.765 35.714 16.274 34.643 15.688 C 33.923 15.273 33.443 14.541 33.347 13.716 C 33.241 12.783 32.693 11.954 31.876 11.488 C 30.971 11.001 29.914 10.876 28.919 11.137 C 28.186 11.314 27.419 11.303 26.691 11.105 L 25.578 10.765 L 25.276 10.676 L 24.403 10.414 C 22.832 9.947 22.175 9.702 19.63 10.137 C 16.948 10.745 14.493 12.097 12.541 14.034 L 6.17 20.795 L 11.889 20.795 L 8.386 24.504 L 14.412 24.504 L 10.909 28.214 L 15.754 28.214 L 14.206 32.274 C 20.137 38.344 26.457 39.569 26.457 39.569 C 26.457 37.897 26.836 31.331 27.282 30.23 C 27.449 29.678 27.707 29.159 28.044 28.691 C 28.871 27.676 30.126 27.102 31.437 27.143 C 32.74 27.143 34.034 27.381 35.252 27.845 C 35.991 28.155 36.829 28.109 37.529 27.723 C 38.037 27.422 38.537 27.105 39.028 26.782 C 39.185 26.658 39.383 26.595 39.584 26.603 C 40.123 26.664 40.638 26.366 40.853 25.869 C 41.015 25.539 41.204 25.229 41.378 24.901 C 41.85 24.016 42.069 23.02 42.011 22.02 Z"/>
  <path d="M 49.752 88.868 L 109.669 88.868 L 109.669 106 L 49.752 106 Z M 106.981 101.167 C 106.879 101.199 106.773 101.216 106.666 101.218 C 106.328 101.218 106.152 101.069 106.152 100.636 L 106.152 97.38 C 106.152 95.669 104.8 94.837 103.176 94.837 C 102.069 94.812 100.971 95.044 99.967 95.513 L 99.676 97.238 L 101.387 97.42 L 101.631 96.578 C 101.988 96.41 102.383 96.336 102.777 96.362 C 103.991 96.362 104.008 97.275 104.008 98.053 L 104.008 98.286 C 103.6 98.238 103.189 98.215 102.777 98.218 C 101.066 98.218 99.287 98.651 99.287 100.494 C 99.287 102.057 100.518 102.638 101.597 102.638 C 102.619 102.635 103.551 102.057 104.008 101.144 C 104.025 102.023 104.778 102.707 105.655 102.638 C 106.127 102.638 106.591 102.521 107.008 102.3 Z M 102.378 101.117 C 101.874 101.181 101.442 100.756 101.499 100.251 C 101.499 99.436 102.175 99.236 102.93 99.236 C 103.291 99.244 103.652 99.277 104.008 99.334 C 103.958 100.569 103.156 101.117 102.378 101.117 Z M 97.387 91.046 L 94.147 102.479 L 96.257 102.479 L 99.501 91.046 Z M 93.035 91.046 L 89.795 102.479 L 91.905 102.479 L 95.145 91.046 Z M 86.146 97.691 L 88.388 97.691 L 88.388 94.986 L 86.146 94.986 Z M 86.146 102.493 L 88.388 102.493 L 88.388 99.788 L 86.146 99.788 Z M 82.528 100.853 L 80.1 100.853 L 84.256 96.118 L 84.09 94.989 L 77.509 94.989 L 77.242 97.617 L 78.788 97.782 L 79.126 96.619 L 81.469 96.619 L 77.347 101.353 L 77.563 102.483 L 84.107 102.483 L 84.574 99.855 L 82.883 99.69 Z M 72.143 94.837 C 69.437 94.837 68.122 96.649 68.122 98.841 C 68.122 101.235 69.718 102.645 72.028 102.645 C 74.422 102.645 76.15 101.134 76.15 98.739 C 76.147 96.646 74.831 94.833 72.139 94.833 Z M 72.089 100.991 C 70.925 100.991 70.327 99.994 70.327 98.699 C 70.327 97.285 71.003 96.47 72.105 96.47 C 73.12 96.47 73.935 97.146 73.935 98.665 C 73.935 100.102 73.204 100.991 72.089 100.991 Z M 66.184 97.427 C 66.184 95.648 64.96 94.833 63.607 94.833 C 62.532 94.793 61.55 95.441 61.166 96.446 C 60.8 95.347 59.803 94.833 58.724 94.833 C 57.785 94.794 56.903 95.289 56.448 96.112 L 56.448 94.982 L 53.307 94.982 L 53.307 96.612 L 54.304 96.612 L 54.304 100.853 L 53.307 100.853 L 53.307 102.483 L 57.879 102.483 L 57.879 100.853 L 56.448 100.853 L 56.448 98.242 C 56.448 97.194 56.881 96.463 57.896 96.463 C 58.741 96.463 59.174 96.964 59.174 98.259 L 59.174 102.483 L 62.315 102.483 L 62.315 100.853 L 61.318 100.853 L 61.318 98.242 C 61.318 97.194 61.751 96.463 62.765 96.463 C 63.611 96.463 64.043 96.964 64.043 98.259 L 64.043 102.473 L 67.185 102.473 L 67.185 100.843 L 66.187 100.843 Z" style="fill: rgb(255, 255, 255);"/>
  <path d="M 144.974 75.034 L 138.684 75.034 C 138.914 73.099 139.844 71.476 141.958 71.476 C 144.203 71.476 145.157 73.333 144.974 75.034 Z M 218.952 58.044 L 218.952 87.181 L 49.752 87.181 L 49.752 58.044 Z M 71.706 64.929 L 67.855 64.929 L 61.511 78.053 L 61.406 78.053 L 54.882 64.929 L 51.041 64.929 L 51.041 66.579 L 53.232 66.579 L 53.232 80.025 L 51.119 80.025 L 51.119 81.675 L 57.047 81.675 L 57.047 80.025 L 55.035 80.025 L 55.035 69.285 L 55.136 69.285 L 60.885 80.837 L 61.899 80.837 L 67.52 69.363 L 67.625 69.363 L 67.625 80.025 L 65.663 80.025 L 65.663 81.675 L 71.605 81.675 L 71.605 80.025 L 69.515 80.025 L 69.515 66.579 L 71.706 66.579 Z M 81.699 81.689 C 86.985 81.689 90.184 78.209 90.184 73.268 C 90.184 68.422 87.09 64.916 81.625 64.916 L 74.121 64.916 L 74.121 66.539 L 76.234 66.539 L 76.234 80.066 L 74.121 80.066 L 74.121 81.689 Z M 108.749 64.929 L 102.324 64.929 L 102.324 66.579 L 104.85 66.579 L 104.85 77.847 L 104.749 77.847 L 95.209 64.929 L 91.601 64.929 L 91.601 66.579 L 93.819 66.579 L 93.819 80.025 L 91.885 80.025 L 91.885 81.675 L 98.27 81.675 L 98.27 80.025 L 95.615 80.025 L 95.615 68.487 L 95.716 68.487 L 105.439 81.689 L 106.649 81.689 L 106.649 66.579 L 108.739 66.579 Z M 135.461 70.218 L 130.304 70.218 L 130.304 71.686 L 132.134 71.686 L 130.277 78.933 L 130.149 78.933 L 126.564 70.218 L 125.354 70.218 L 121.931 78.936 L 121.803 78.936 L 119.662 71.689 L 121.596 71.689 L 121.596 70.218 L 116.186 70.218 L 116.186 71.686 L 117.708 71.686 L 120.957 81.689 L 122.31 81.689 L 125.742 72.923 L 125.871 72.923 L 129.368 81.689 L 130.761 81.689 L 133.882 71.686 L 135.455 71.686 Z M 142.164 81.946 C 145.001 81.946 146.678 80.363 146.993 78.378 L 145.471 78.04 C 145.109 79.46 144.105 80.387 142.299 80.387 C 140.017 80.387 138.769 78.919 138.664 76.366 L 146.722 76.366 C 146.823 75.922 146.875 75.469 146.878 75.013 C 146.854 72.305 145.15 69.985 142.005 69.985 C 138.759 69.985 136.746 72.565 136.746 76.123 C 136.746 79.836 138.907 81.949 142.157 81.949 Z M 155.572 81.946 C 159.235 81.946 160.706 78.696 160.706 75.652 C 160.706 72.01 158.643 69.981 155.782 69.981 C 153.591 69.981 152.38 71.168 151.683 72.585 L 151.683 63.948 L 148.153 63.948 L 148.153 65.419 L 149.844 65.419 L 149.844 78.341 C 149.814 79.465 149.701 80.585 149.506 81.692 L 151.311 81.692 C 151.338 81.564 151.545 79.913 151.545 79.785 C 152.292 81.175 153.787 81.949 155.566 81.949 Z M 181.77 80.218 L 179.785 80.218 L 179.785 63.948 L 175.186 63.948 L 175.186 65.419 L 177.983 65.419 L 177.983 72.071 C 177.235 70.729 175.832 69.981 174.141 69.981 C 170.401 69.981 168.957 73.18 168.957 76.248 C 168.957 79.832 170.915 81.946 173.881 81.946 C 175.967 81.946 177.232 80.722 177.979 79.369 L 177.979 81.692 L 181.764 81.692 Z M 188.733 81.946 C 192.264 81.946 194.482 79.42 194.475 75.94 C 194.475 72.69 192.541 69.958 188.828 69.958 C 185.115 69.958 183.157 72.693 183.157 76.045 C 183.157 79.501 185.247 81.949 188.726 81.949 Z M 201.675 81.946 C 204.847 81.946 206.213 79.832 206.541 77.834 L 204.992 77.495 C 204.658 79.379 203.677 80.411 201.898 80.411 C 199.629 80.411 198.391 78.774 198.391 76.014 C 198.391 73.539 199.372 71.527 201.82 71.527 C 202.682 71.497 203.533 71.722 204.269 72.173 L 204.691 74.11 L 206.186 73.931 L 205.746 71.172 C 204.587 70.296 203.349 69.985 201.827 69.985 C 198.27 69.985 196.464 72.95 196.464 76.123 C 196.464 79.809 198.5 81.949 201.672 81.949 Z M 212.841 81.946 C 215.601 81.946 217.714 80.607 217.687 78.351 C 217.687 73.786 210.586 76.156 210.586 73.167 C 210.586 71.99 211.617 71.476 213.061 71.476 C 213.886 71.462 214.7 71.657 215.428 72.044 L 215.695 73.908 L 217.19 73.728 L 216.906 71.047 C 215.687 70.356 214.31 69.991 212.909 69.988 C 210.822 69.988 208.655 70.891 208.655 73.316 C 208.655 77.776 215.848 75.379 215.848 78.524 C 215.848 79.839 214.353 80.458 212.753 80.458 C 211.87 80.465 210.997 80.271 210.2 79.89 L 210.278 78.368 L 208.834 78.212 L 208.472 80.816 C 209.449 81.459 211.208 81.949 212.831 81.949 Z M 158.798 75.835 C 158.798 78.209 157.74 80.4 155.214 80.4 C 153.275 80.444 151.68 78.884 151.68 76.944 L 151.68 75.216 C 151.731 73.515 153.124 71.53 155.315 71.53 C 157.263 71.53 158.795 72.974 158.798 75.835 Z M 177.979 74.777 L 177.979 76.609 C 177.902 78.338 176.407 80.4 174.344 80.4 C 172.359 80.4 170.864 78.929 170.864 76.119 C 170.864 73.694 171.997 71.53 174.55 71.53 C 176.39 71.49 177.919 72.938 177.979 74.777 Z M 192.575 75.909 C 192.575 78.49 191.236 80.397 188.784 80.397 C 186.332 80.397 185.044 78.439 185.044 75.937 C 185.044 73.387 186.386 71.503 188.784 71.503 C 191.182 71.503 192.575 73.282 192.575 75.909 Z M 88.185 73.316 C 88.185 77.475 85.866 80.079 81.611 80.079 L 78.132 80.079 L 78.132 66.552 L 81.598 66.552 C 85.852 66.552 88.172 69.261 88.185 73.316 Z" style="fill: rgb(255, 255, 255);"/>
  <path d="M 0.116 58.044 L 48.072 58.044 L 48.072 106 L 0.116 106 Z M 42.012 80.064 C 41.974 79.341 41.89 78.616 41.84 77.898 C 41.812 77.538 41.676 77.195 41.445 76.918 C 41.173 76.586 40.819 76.331 40.419 76.177 C 39.612 75.864 38.799 75.514 37.985 75.202 C 36.832 74.809 35.714 74.318 34.644 73.732 C 33.924 73.317 33.443 72.586 33.348 71.761 C 33.241 70.827 32.694 69.998 31.877 69.532 C 30.971 69.045 29.914 68.92 28.919 69.182 C 28.186 69.358 27.419 69.346 26.691 69.149 L 25.578 68.809 L 25.276 68.72 L 24.404 68.459 C 22.833 67.991 22.175 67.746 19.629 68.18 C 16.948 68.79 14.493 70.14 12.541 72.078 L 6.17 78.839 L 11.889 78.839 L 8.386 82.547 L 14.412 82.547 L 10.909 86.258 L 15.754 86.258 L 14.206 90.317 C 20.137 96.387 26.457 97.613 26.457 97.613 C 26.457 95.941 26.836 89.375 27.282 88.273 C 27.449 87.722 27.707 87.203 28.045 86.735 C 28.871 85.719 30.126 85.146 31.437 85.187 C 32.74 85.187 34.034 85.424 35.251 85.889 C 35.991 86.198 36.829 86.152 37.529 85.767 C 38.036 85.466 38.537 85.149 39.028 84.827 C 39.186 84.701 39.383 84.639 39.584 84.647 C 40.123 84.708 40.638 84.41 40.854 83.913 C 41.015 83.583 41.205 83.272 41.378 82.944 C 41.85 82.06 42.069 81.064 42.012 80.064 Z" style="fill: rgb(255, 255, 255);"/>
</svg>