<svg class="dino-auth-icon" xmlns="http://www.w3.org/2000/svg" viewBox="0 0 500 500" role="img"><defs><linearGradient id="a" x1="62.9" y1="241.81" x2="429.21" y2="241.81" gradientTransform="matrix(1 0 0 -1 0 502)" gradientUnits="userSpaceOnUse"><stop offset="0" stop-color="#3f8fbe"/><stop offset="1" stop-color="#6b62ab"/></linearGradient></defs><title>mdn-auth</title><circle cx="250.06" cy="250.31" r="219.23" fill="none" stroke="#333" stroke-miterlimit="10" stroke-width="22"/><path d="M85.4 258.3h61.87l-35.79 37.84H161l-15.86 41.25c60.51 61.87 125.11 74.91 125.11 74.91 0-17.21 4.09-83.86 8.27-95.53 2.05-5.54 4.09-11 7.59-15.86 8.94-11 20.62-15.08 34.34-15.85s26.17 2.73 39.21 6.91c7.58 2.72 15.85 3.4 23.35-1.37 5.54-2.73 10.31-6.22 15.08-9.63a7.83 7.83 0 0 1 5.54-2c6.22 0 10.31-2.05 13-7.59a41.06 41.06 0 0 1 5.54-9.63c4.77-8.95 7.59-19.26 6.9-29.57-.68-7.59-1.36-15.09-2-22 0-4.09-1.37-6.9-4.09-10.31a22.77 22.77 0 0 0-10.31-7.59c-8.27-3.41-16.54-6.9-24.72-9.63a219.48 219.48 0 0 1-34.35-15.08 28 28 0 0 1-13-19.95c-1.36-10.31-6.22-17.89-15.08-22.67-9.63-5.54-19.94-5.54-30.25-4.09-7.59 1.37-15.09 2-22.67-.68-4.78-1.36-8.95-2.73-13.73-4.09h-.68l-8.95-2.73c-15.85-4.77-22.67-7.58-48.83-2.72 0 0-42.61 8.26-72.19 39.88L62.9 219.27h58.47z" fill="url(#a)"/></svg>
