<svg xmlns="http://www.w3.org/2000/svg" viewBox="0 0 18 12" aria-hidden="true" role="img"><g fill="none" fill-rule="evenodd"><path d="M-3-6h24v24H-3z"/><path d="M1 12h11c.55 0 1-.45 1-1s-.45-1-1-1H1c-.55 0-1 .45-1 1s.45 1 1 1zm0-5h8c.55 0 1-.45 1-1s-.45-1-1-1H1c-.55 0-1 .45-1 1s.45 1 1 1zM0 1c0 .55.45 1 1 1h11c.55 0 1-.45 1-1s-.45-1-1-1H1C.45 0 0 .45 0 1zm17.3 7.88L14.42 6l2.88-2.88a.996.996 0 10-1.41-1.41L12.3 5.3a.996.996 0 000 1.41l3.59 3.59c.39.39 1.02.39 1.41 0 .38-.39.39-1.03 0-1.42z" fill="#212121" fill-rule="nonzero"/></g></svg>
