<svg class="icon icon-exclamation-circle" xmlns="http://www.w3.org/2000/svg" width="24" height="28" aria-hidden="true"><path d="M12 2c6.625 0 12 5.375 12 12s-5.375 12-12 12S0 20.625 0 14 5.375 2 12 2zm2 19.484v-2.969c0-.281-.219-.516-.484-.516h-3a.52.52 0 0 0-.516.516v2.969a.52.52 0 0 0 .516.516h3c.266 0 .484-.234.484-.516zm-.031-5.375l.281-9.703a.313.313 0 0 0-.156-.281.602.602 0 0 0-.375-.125h-3.437a.602.602 0 0 0-.375.125.315.315 0 0 0-.156.281l.266 9.703c0 .219.234.391.531.391h2.891c.281 0 .516-.172.531-.391z"/></svg>
