<svg xmlns="http://www.w3.org/2000/svg" width="78" height="78" role="img"><path fill="#222" d="M39 78C17.46 78 0 60.54 0 39S17.46 0 39 0s39 17.46 39 39-17.46 39-39 39zm0-2c20.435 0 37-16.565 37-37S59.435 2 39 2 2 18.565 2 39s16.565 37 37 37zm19.267-23.866a.733.733 0 0 1-.734-.734V17.45c0-.593-.482-1.076-1.076-1.076h-9.552c-.054.72.181 1.49-.404 2.35h7.951c.406 0 .734.328.734.733v39.066a.733.733 0 0 1-.734.734H23.548a.733.733 0 0 1-.734-.734V28.24a.733.733 0 1 1 1.467 0v29.55H53.72v-37.6h-11.02a3.729 3.729 0 0 1-2.856 3.13 3.735 3.735 0 0 1-4.541-3.13h-11.02v5.311a.733.733 0 1 1-1.468 0v-6.044c0-.405.328-.733.734-.733h7.95c-.586-.862-.348-1.621-.403-2.35h-9.552c-.594 0-1.076.483-1.076 1.076v43.08c0 .594.482 1.076 1.076 1.076h34.914c.594 0 1.076-.482 1.076-1.075v-6.392a.733.733 0 1 1 1.467 0v6.392a2.546 2.546 0 0 1-2.543 2.542H21.543A2.546 2.546 0 0 1 19 60.531V17.45a2.546 2.546 0 0 1 2.543-2.543h9.591a2.343 2.343 0 0 1 2.3-1.907h11.133c1.142 0 2.095.823 2.299 1.907h9.591A2.546 2.546 0 0 1 59 17.45V51.4a.733.733 0 0 1-.733.734zM36.734 19.683A2.269 2.269 0 0 0 39 21.949a2.269 2.269 0 0 0 2.266-2.266v-.667c0-.405.328-.734.733-.734h2.568c.48 0 .871-.39.871-.871v-2.072a.873.873 0 0 0-.871-.872H33.433a.873.873 0 0 0-.871.872v2.072c0 .48.39.871.871.871h2.568c.405 0 .733.329.733.734v.667zm.52 32.284c-.372 0-.673-.329-.673-.734 0-.404.3-.733.672-.733H48.91c.37 0 .672.329.672.733 0 .405-.301.734-.672.734H37.253zm0-9c-.372 0-.673-.329-.673-.734 0-.404.3-.733.672-.733H48.91c.37 0 .672.329.672.733 0 .405-.301.734-.672.734H37.253zm0-9c-.372 0-.673-.329-.673-.734 0-.404.3-.733.672-.733H48.91c.37 0 .672.329.672.733 0 .405-.301.734-.672.734H37.253zM29 48h5a1 1 0 0 1 1 1v5a1 1 0 0 1-1 1h-5a1 1 0 0 1-1-1v-5a1 1 0 0 1 1-1zm.5 1.5v4h4v-4h-4zM29 39h5a1 1 0 0 1 1 1v5a1 1 0 0 1-1 1h-5a1 1 0 0 1-1-1v-5a1 1 0 0 1 1-1zm.5 1.5v4h4v-4h-4zM29 30h5a1 1 0 0 1 1 1v5a1 1 0 0 1-1 1h-5a1 1 0 0 1-1-1v-5a1 1 0 0 1 1-1zm.5 1.5v4h4v-4h-4zm-.988-3.956c-.514 0-.931-.328-.931-.733 0-.405.417-.734.931-.734H44.65c.514 0 .931.329.931.734 0 .405-.417.733-.931.733H28.512z"/></svg>
