<svg class="icon icon-question-mark" xmlns="http://www.w3.org/2000/svg" width="24" height="28" viewBox="0 0 24 28" aria-hidden="true">
    <path d="M14 21.5v-3c0-.281-.219-.5-.5-.5h-3c-.281 0-.5.219-.5.5v3c0 .281.219.5.5.5h3c.281 0 .5-.219.5-.5zM18 11c0-2.859-3-5-5.688-5-2.547 0-4.453 1.094-5.797 3.328a.49.49 0 0 0 .125.656l2.063 1.563a.477.477 0 0 0 .297.094.498.498 0 0 0 .391-.187c.734-.938 1.047-1.219 1.344-1.437.266-.187.781-.375 1.344-.375 1 0 1.922.641 1.922 1.328 0 .812-.422 1.219-1.375 1.656-1.109.5-2.625 1.797-2.625 3.313v.562c0 .281.219.5.5.5h3c.281 0 .5-.219.5-.5 0-.359.453-1.125 1.188-1.547 1.188-.672 2.812-1.578 2.812-3.953zm6 3c0 6.625-5.375 12-12 12S0 20.625 0 14 5.375 2 12 2s12 5.375 12 12z"/>
</svg>
