<svg class="icon icon-gear" xmlns="http://www.w3.org/2000/svg" width="24" height="28" viewBox="0 0 24 28" aria-hidden="true">
    <path d="M16 14c0-2.203-1.797-4-4-4s-4 1.797-4 4 1.797 4 4 4 4-1.797 4-4zm8-1.703v3.469c0 .234-.187.516-.438.562l-2.891.438a8.86 8.86 0 0 1-.609 1.422c.531.766 1.094 1.453 1.672 2.156.094.109.156.25.156.391s-.047.25-.141.359c-.375.5-2.484 2.797-3.016 2.797a.795.795 0 0 1-.406-.141l-2.156-1.687a9.449 9.449 0 0 1-1.422.594c-.109.953-.203 1.969-.453 2.906a.573.573 0 0 1-.562.438h-3.469c-.281 0-.531-.203-.562-.469l-.438-2.875a9.194 9.194 0 0 1-1.406-.578l-2.203 1.672c-.109.094-.25.141-.391.141s-.281-.063-.391-.172c-.828-.75-1.922-1.719-2.578-2.625a.607.607 0 0 1 .016-.718c.531-.719 1.109-1.406 1.641-2.141a8.324 8.324 0 0 1-.641-1.547l-2.859-.422A.57.57 0 0 1 0 15.705v-3.469c0-.234.187-.516.422-.562l2.906-.438c.156-.5.359-.969.609-1.437a37.64 37.64 0 0 0-1.672-2.156c-.094-.109-.156-.234-.156-.375s.063-.25.141-.359c.375-.516 2.484-2.797 3.016-2.797.141 0 .281.063.406.156L7.828 5.94a9.449 9.449 0 0 1 1.422-.594c.109-.953.203-1.969.453-2.906a.573.573 0 0 1 .562-.438h3.469c.281 0 .531.203.562.469l.438 2.875c.484.156.953.344 1.406.578l2.219-1.672c.094-.094.234-.141.375-.141s.281.063.391.156c.828.766 1.922 1.734 2.578 2.656a.534.534 0 0 1 .109.344c0 .141-.047.25-.125.359-.531.719-1.109 1.406-1.641 2.141.266.5.484 1.016.641 1.531l2.859.438a.57.57 0 0 1 .453.562z"/>
</svg>
