<svg class="icon icon-undo" xmlns="http://www.w3.org/2000/svg" width="24" height="28" viewBox="0 0 24 28" aria-hidden="true">
    <path d="M24 14c0 6.609-5.391 12-12 12a11.972 11.972 0 0 1-9.234-4.328.52.52 0 0 1 .031-.672l2.141-2.156a.599.599 0 0 1 .391-.141.51.51 0 0 1 .359.187A7.91 7.91 0 0 0 12 21.999c4.406 0 8-3.594 8-8s-3.594-8-8-8A7.952 7.952 0 0 0 6.563 8.14l2.141 2.156a.964.964 0 0 1 .219 1.078 1.002 1.002 0 0 1-.922.625h-7c-.547 0-1-.453-1-1v-7c0-.406.25-.766.625-.922a.964.964 0 0 1 1.078.219l2.031 2.016c2.203-2.078 5.187-3.313 8.266-3.313 6.609 0 12 5.391 12 12z"/>
</svg>
