<svg class="github-auth-icon" xmlns="http://www.w3.org/2000/svg" viewBox="0 0 500 500" role="img"><title>github-auth</title><path d="M300.86 449c0-6.84.23-29.21.23-57 0-19.38-6.64-32-14.09-38.47 46.27-5.15 94.87-22.72 94.87-102.51 0-22.68-8.06-41.22-21.38-55.77 2.15-5.23 9.27-26.36-2-55 0 0-17.42-5.58-57.08 21.3a197.06 197.06 0 0 0-104 0c-39.7-26.88-57.15-21.3-57.15-21.3-11.28 28.62-4.17 49.75-2 55-13.29 14.55-21.41 33.09-21.41 55.77 0 79.6 48.51 97.42 94.66 102.67-5.95 5.19-11.33 14.36-13.19 27.78-11.86 5.31-41.93 14.49-60.46-17.27 0 0-11-19.94-31.85-21.41 0 0-20.27-.26-1.42 12.63 0 0 13.62 6.39 23.07 30.4 0 0 12.19 37.08 70 24.51.09 17.36.28 33.73.28 38.68 0 5.46-3.78 11.84-14 10a213.2 213.2 0 0 0 130.28.11c-9.86 1.39-13.36-4.82-13.36-10.12zm-180.6-96.61c-.46 1-2.08 1.35-3.56.64s-2.35-2.09-1.87-3.12 2.08-1.36 3.58-.65 2.37 2.06 1.85 3.09zm8.42 9.39c-1 .92-2.93.49-4.25-1s-1.61-3.39-.61-4.32 2.9-.48 4.26 1 1.63 3.35.6 4.28zm8.19 12c-1.28.89-3.36.06-4.65-1.79s-1.27-4.06 0-5 3.34-.09 4.65 1.75 1.3 4.06 0 4.96zm11.22 11.57c-1.14 1.25-3.57.91-5.34-.8s-2.32-4.05-1.18-5.31 3.59-.9 5.38.8 2.35 3.96 1.14 5.23zm15.48 6.65c-.5 1.62-2.84 2.36-5.19 1.67s-3.89-2.62-3.41-4.26 2.83-2.41 5.2-1.67 3.89 2.58 3.4 4.26zm12.6 4.41c-2.49.05-4.5-1.33-4.53-3s2-3.14 4.44-3.18 4.49 1.33 4.49 3-1.93 3.13-4.4 3.16zm16.35-2c-2.41.45-4.64-.59-5-2.24s1.45-3.43 3.86-3.88 4.65.58 5 2.28-1.38 3.35-3.86 3.8z" fill="#333"/><circle cx="250" cy="250" r="219.23" fill="none" stroke="#333" stroke-miterlimit="10" stroke-width="22"/></svg>
