<svg class="icon icon-frown" xmlns="http://www.w3.org/2000/svg" width="24" height="28" aria-hidden="true"><path d="M17.719 19.203a.993.993 0 0 1-.641 1.25 1.007 1.007 0 0 1-1.266-.656C15.296 18.125 13.749 17 11.999 17s-3.297 1.125-3.813 2.797c-.172.531-.734.828-1.25.656-.531-.172-.828-.719-.656-1.25C7.061 16.687 9.358 15 11.999 15s4.937 1.687 5.719 4.203zM10 10c0 1.109-.891 2-2 2s-2-.891-2-2 .891-2 2-2 2 .891 2 2zm8 0c0 1.109-.891 2-2 2s-2-.891-2-2 .891-2 2-2 2 .891 2 2zm4 4c0-5.516-4.484-10-10-10S2 8.484 2 14s4.484 10 10 10 10-4.484 10-10zm2 0c0 6.625-5.375 12-12 12S0 20.625 0 14 5.375 2 12 2s12 5.375 12 12z"/></svg>
