<svg class="icon icon-smile" xmlns="http://www.w3.org/2000/svg" width="24" height="28" aria-hidden="true"><path d="M17.719 16.797C16.938 19.313 14.641 21 12 21s-4.937-1.687-5.719-4.203c-.172-.531.125-1.078.656-1.25.516-.172 1.078.125 1.25.656C8.703 17.875 10.25 19 12 19s3.297-1.125 3.813-2.797a1.006 1.006 0 0 1 1.266-.656.994.994 0 0 1 .641 1.25zM10 10c0 1.109-.891 2-2 2s-2-.891-2-2 .891-2 2-2 2 .891 2 2zm8 0c0 1.109-.891 2-2 2s-2-.891-2-2 .891-2 2-2 2 .891 2 2zm4 4c0-5.516-4.484-10-10-10S2 8.484 2 14s4.484 10 10 10 10-4.484 10-10zm2 0c0 6.625-5.375 12-12 12S0 20.625 0 14 5.375 2 12 2s12 5.375 12 12z"/></svg>
