<svg class="icon" viewBox="0 0 100 100" xmlns="http://www.w3.org/2000/svg" aria-hidden="true" role="img"><g fill="#212121"><path d="M92.18 15H7.82A3.79 3.79 0 004 18.74v62.52A3.79 3.79 0 007.82 85h84.36A3.79 3.79 0 0096 81.26V18.74A3.79 3.79 0 0092.18 15zm-3.85 59.47a3.07 3.07 0 01-3.09 3H14.76a3.07 3.07 0 01-3.09-3V25.53a3.07 3.07 0 013.09-3h70.48a3.07 3.07 0 013.09 3z"/><path d="M9.11 32h81.78v20H9.11z"/><rect height="10" rx="2.33" width="15.33" x="19.33" y="61"/><rect height="10" rx="3.01" width="25.56" x="39.27" y="61"/></g></svg>
