<svg xmlns="http://www.w3.org/2000/svg" viewBox="0 0 1200 1200" aria-hidden="true" role="img"><defs><style>.cls-5{stroke-miterlimit:10;fill:none;stroke:#333;stroke-width:24.47px}</style></defs><g id="Layer_1" data-name="Layer 1" stroke-miterlimit="10" fill="#fff" stroke="#231f20"><path stroke-width="19.06" d="M147.62 292.66l64.35 17.33-64.35 17.32-17.32 64.35-17.33-64.35-64.34-17.32 64.34-17.33 17.33-64.34 17.32 64.34z"/><path stroke-width="16.33" d="M1044.13 806.69l107.24 28.88-107.24 28.87-28.88 107.24-28.87-107.24-107.24-28.87 107.24-28.88 28.87-107.24 28.88 107.24z"/></g><g id="Layer_5" data-name="Layer 5"><rect x="210.25" y="469.86" width="578.3" height="361.44" rx="19.22" stroke-width="24" fill="none" stroke="#333" stroke-miterlimit="10"/><path d="M229 472.73a7.68 7.68 0 01-3.1 4.64l135 123.68 120.76 110.64a28.68 28.68 0 0038.58 0L641 601.05l135-123.74" stroke-width="25" fill="none" stroke="#333" stroke-miterlimit="10"/><path class="cls-5" d="M211.97 820.02l183.18-183.19M788.55 831.3L605.36 648.11"/></g></svg>
