<svg class="icon icon-money-bill" xmlns="http://www.w3.org/2000/svg" viewBox="0 0 23 16" aria-hidden="true" role="img">
  <path d="M11.5 3.33c-2.24 0-4.05 2.1-4.05 4.67 0 2.58 1.81 4.67 4.05 4.67 2.24 0 4.05-2.1 4.05-4.67 0-2.58-1.81-4.67-4.05-4.67zm1.69 7c0 .19-.15.34-.34.34h-2.7a.34.34 0 01-.34-.34v-.66c0-.19.15-.34.34-.34h.67v-2.3h-.01a.34.34 0 01-.47-.09l-.38-.55a.33.33 0 01.1-.46l.64-.43c.17-.1.36-.17.56-.17h.58c.18 0 .34.15.34.34v3.66h.67c.19 0 .34.15.34.34v.66zM21.85 0H1.15C.51 0 0 .6 0 1.33v13.34C0 15.4.51 16 1.15 16h20.7c.64 0 1.15-.6 1.15-1.33V1.33C23 .6 22.49 0 21.85 0zm-.88 11.33c-1.23 0-2.22 1.2-2.22 2.67H4.25c0-1.47-1-2.67-2.23-2.67V4.67c1.24 0 2.23-1.2 2.23-2.67h14.5c0 1.47 1 2.67 2.23 2.67v6.66z"/>
</svg>
