<svg xmlns="http://www.w3.org/2000/svg" viewBox="0 0 1200 1200" aria-hidden="true" role="img"><g data-name="Layer 3" stroke-miterlimit="10"><path stroke-width="19.06" fill="#fff" stroke="#231f20" d="M147.62 292.66l64.35 17.33-64.35 17.32-17.32 64.35-17.33-64.35-64.34-17.32 64.34-17.33 17.33-64.34 17.32 64.34z"/><path stroke-width="16.33" fill="#fff" stroke="#231f20" d="M1044.13 806.69l107.24 28.88-107.24 28.87-28.88 107.24-28.87-107.24-107.24-28.87 107.24-28.88 28.87-107.24 28.88 107.24z"/><path d="M954.54 422.56L785.75 343.8H683.32a94.11 94.11 0 01-186.15 0H372.24L226 425.38l50.63 135 106.9-56.26L380.67 912h405.08l-2.81-413.51 112.52 61.91z" fill="none" stroke="#333" stroke-width="22.68"/></g></svg>
