<svg xmlns="http://www.w3.org/2000/svg" viewBox="0 0 100 100" aria-hidden="true" role="img"><defs><style>.cls-1{fill:#212121;}</style></defs><g><g id="text"><path id="b" class="cls-1" d="M67.67,95a1.62,1.62,0,0,0,1.62-1.63V29.13a1.61,1.61,0,0,0-1.18-1.54v-.05l-45-12,9.58-7.17L78.92,20.69V83.75c6.58,13.94,1.88-66.6,3.21-64.29a1.61,1.61,0,0,0-1.19-1.54L32.73,5v0a1.34,1.34,0,0,0-1.36.26v0L18.49,15h.05c-1.94.77,0,64.28-.67,65.56a1.61,1.61,0,0,0,1.19,1.54L67.27,95v0A1.11,1.11,0,0,0,67.67,95Zm6.46-4.83a1.59,1.59,0,0,0,1.58-1.59V24.78a1.5,1.5,0,0,0-1.14-1.45v0L33.61,12l0,0c-2.05-.68-2.91,2.63-.79,3v0L72.5,26.05V88.58A1.59,1.59,0,0,0,74.13,90.17Zm-8,1.14-45-12V18.36l45,12Z"/></g></g></svg>
