<svg class="icon icon-close" xmlns="http://www.w3.org/2000/svg" width="22" height="28" viewBox="0 0 22 28" aria-hidden="true" role="img"><title></title><path d="M20.281 20.656c0 .391-.156.781-.438 1.062l-2.125 2.125c-.281.281-.672.438-1.062.438s-.781-.156-1.062-.438L11 19.249l-4.594 4.594c-.281.281-.672.438-1.062.438s-.781-.156-1.062-.438l-2.125-2.125c-.281-.281-.438-.672-.438-1.062s.156-.781.438-1.062L6.751 15l-4.594-4.594c-.281-.281-.438-.672-.438-1.062s.156-.781.438-1.062l2.125-2.125c.281-.281.672-.438 1.062-.438s.781.156 1.062.438L11 10.751l4.594-4.594c.281-.281.672-.438 1.062-.438s.781.156 1.062.438l2.125 2.125c.281.281.438.672.438 1.062s-.156.781-.438 1.062L15.249 15l4.594 4.594c.281.281.438.672.438 1.062z"/></svg>
