<svg xmlns="http://www.w3.org/2000/svg" viewBox="0 0 500 500" role="img"><style>.st1{fill:#fff}</style><circle cx="249.9" cy="250" r="194" fill="#333" id="Layer_2"/><g id="close"><title>close</title><path class="st1" d="M250 13.3c-130.8 0-236.7 106-236.7 236.7s106 236.7 236.7 236.7 236.7-106 236.7-236.7S380.8 13.3 250 13.3zm0 426.1c-104.6 0-189.4-84.8-189.4-189.4S145.4 60.6 250 60.6 439.4 145.4 439.4 250 354.6 439.4 250 439.4z"/><path class="st1" d="M164.2 156.1h47.3c5.4 0 10.4 2.9 13.1 7.6l13.4 23.5c4.1 7.2 13.2 9.8 20.4 5.7 2.1-1.2 3.8-2.8 5.1-4.8l16.8-25.3c2.8-4.2 7.5-6.7 12.5-6.7h42.1c8.3 0 15 6.7 15.1 14.9 0 3.2-1 6.3-2.8 8.8l-40.9 57.1c-3.7 5.2-3.8 12.1-.1 17.4l46.1 66c4.8 6.8 3.2 16.1-3.6 20.9-2.5 1.8-5.6 2.7-8.6 2.7h-46.5c-5.4 0-10.3-2.9-13-7.5l-18.4-32c-4.1-7.2-13.3-9.7-20.5-5.6-2 1.2-3.7 2.8-5 4.7l-22.9 33.8c-2.8 4.1-7.5 6.6-12.5 6.6H160c-8.3 0-15-6.7-15.1-14.9 0-3.1.9-6.1 2.7-8.7l45.8-66c3.6-5.2 3.6-12.2-.2-17.4L152 180c-4.9-6.7-3.5-16.1 3.2-21 2.6-1.9 5.7-3 9-2.9z"/></g></svg>
