<svg class="icon icon-cogs" xmlns="http://www.w3.org/2000/svg" width="30" height="28" aria-hidden="true"><path d="M14 14c0-2.203-1.797-4-4-4s-4 1.797-4 4 1.797 4 4 4 4-1.797 4-4zm12 8c0-1.094-.906-2-2-2s-2 .906-2 2c0 1.109.906 2 2 2 1.109 0 2-.906 2-2zm0-16c0-1.094-.906-2-2-2s-2 .906-2 2c0 1.109.906 2 2 2 1.109 0 2-.906 2-2zm-6 6.578v2.891c0 .203-.156.438-.359.469l-2.422.375a7.14 7.14 0 0 1-.5 1.188c.438.625.906 1.203 1.406 1.797a.536.536 0 0 1 .109.313.413.413 0 0 1-.109.297c-.313.422-2.063 2.328-2.516 2.328a.593.593 0 0 1-.328-.109l-1.797-1.406a6.693 6.693 0 0 1-1.203.484c-.078.797-.156 1.656-.359 2.422a.498.498 0 0 1-.469.375H8.547c-.219 0-.438-.172-.469-.391l-.359-2.391a7.765 7.765 0 0 1-1.172-.484l-1.844 1.391a.45.45 0 0 1-.313.109.505.505 0 0 1-.328-.125c-.406-.375-2.25-2.047-2.25-2.5 0-.109.047-.203.109-.297.453-.594.922-1.172 1.375-1.781a8.345 8.345 0 0 1-.547-1.281l-2.375-.375a.454.454 0 0 1-.375-.453v-2.891c0-.203.156-.438.359-.469l2.422-.375a7.14 7.14 0 0 1 .5-1.188 25.557 25.557 0 0 0-1.406-1.797c-.063-.094-.109-.203-.109-.313s.031-.219.109-.313c.313-.422 2.063-2.312 2.516-2.312.125 0 .234.047.328.109l1.797 1.406a8.194 8.194 0 0 1 1.203-.5c.078-.781.156-1.641.359-2.406A.498.498 0 0 1 8.546 4h2.906c.219 0 .438.172.469.391l.359 2.391c.406.125.797.297 1.172.484l1.844-1.391a.479.479 0 0 1 .313-.109c.125 0 .234.047.328.125.406.375 2.25 2.063 2.25 2.5a.538.538 0 0 1-.109.297c-.453.609-.922 1.172-1.359 1.781.203.422.391.844.531 1.281l2.375.359c.219.047.375.25.375.469zm10 8.328v2.188c0 .234-2.016.453-2.328.484a3.77 3.77 0 0 1-.469.812c.141.313.797 1.875.797 2.156 0 .047-.016.078-.063.109-.187.109-1.859 1.109-1.937 1.109-.203 0-1.375-1.563-1.531-1.797-.156.016-.313.031-.469.031s-.313-.016-.469-.031c-.156.234-1.328 1.797-1.531 1.797-.078 0-1.75-1-1.937-1.109a.135.135 0 0 1-.063-.109c0-.266.656-1.844.797-2.156a3.836 3.836 0 0 1-.469-.812c-.313-.031-2.328-.25-2.328-.484v-2.188c0-.234 2.016-.453 2.328-.484.125-.281.281-.562.469-.812-.141-.313-.797-1.891-.797-2.156 0-.031.016-.078.063-.109.187-.094 1.859-1.094 1.937-1.094.203 0 1.375 1.547 1.531 1.781.156-.016.313-.031.469-.031s.313.016.469.031c.438-.609.906-1.219 1.437-1.75l.094-.031c.078 0 1.75.984 1.937 1.094a.135.135 0 0 1 .063.109c0 .281-.656 1.844-.797 2.156.187.25.344.531.469.812.313.031 2.328.25 2.328.484zm0-16v2.187c0 .234-2.016.453-2.328.484a3.77 3.77 0 0 1-.469.812c.141.313.797 1.875.797 2.156 0 .047-.016.078-.063.109-.187.109-1.859 1.109-1.937 1.109-.203 0-1.375-1.563-1.531-1.797-.156.016-.313.031-.469.031s-.313-.016-.469-.031c-.156.234-1.328 1.797-1.531 1.797-.078 0-1.75-1-1.937-1.109a.135.135 0 0 1-.063-.109c0-.266.656-1.844.797-2.156a3.836 3.836 0 0 1-.469-.812C20.015 7.546 18 7.327 18 7.093V4.905c0-.234 2.016-.453 2.328-.484.125-.281.281-.562.469-.812C20.656 3.296 20 1.718 20 1.453c0-.031.016-.078.063-.109C20.25 1.25 21.922.25 22 .25c.203 0 1.375 1.547 1.531 1.781.156-.016.313-.031.469-.031s.313.016.469.031c.438-.609.906-1.219 1.437-1.75L26 .25c.078 0 1.75.984 1.937 1.094a.135.135 0 0 1 .063.109c0 .281-.656 1.844-.797 2.156.187.25.344.531.469.812.313.031 2.328.25 2.328.484z"/></svg>
