<svg class="icon icon-credit-card" xmlns="http://www.w3.org/2000/svg" width="21px" height="16px" viewBox="0 0 21 16" aria-hidden="true" role="img">
    <path d="M18.8535714,0 L1.71785714,0 C0.767857143,0 0,0.767857143 0,1.71428571 L0,14.2857143 C0,15.2321429 0.767857143,16 1.71785714,16 L18.8535714,16 C19.8035714,16 20.5714286,15.2321429 20.5714286,14.2857143 L20.5714286,1.71428571 C20.5714286,0.767857143 19.8035714,0 18.8535714,0 Z M1.93214286,1.71428571 L18.6392857,1.71428571 C18.7571429,1.71428571 18.8535714,1.81071429 18.8535714,1.92857143 L18.8535714,3.42857143 L1.71785714,3.42857143 L1.71785714,1.92857143 C1.71785714,1.81071429 1.81428571,1.71428571 1.93214286,1.71428571 Z M18.6392857,14.2857143 L1.93214286,14.2857143 C1.81428571,14.2857143 1.71785714,14.1892857 1.71785714,14.0714286 L1.71785714,8 L18.8535714,8 L18.8535714,14.0714286 C18.8535714,14.1892857 18.7571429,14.2857143 18.6392857,14.2857143 Z M6.85714286,10.7142857 L6.85714286,12.1428571 C6.85714286,12.3785714 6.66428571,12.5714286 6.42857143,12.5714286 L3.85714286,12.5714286 C3.62142857,12.5714286 3.42857143,12.3785714 3.42857143,12.1428571 L3.42857143,10.7142857 C3.42857143,10.4785714 3.62142857,10.2857143 3.85714286,10.2857143 L6.42857143,10.2857143 C6.66428571,10.2857143 6.85714286,10.4785714 6.85714286,10.7142857 Z M13.7142857,10.7142857 L13.7142857,12.1428571 C13.7142857,12.3785714 13.5214286,12.5714286 13.2857143,12.5714286 L8.42857143,12.5714286 C8.19285714,12.5714286 8,12.3785714 8,12.1428571 L8,10.7142857 C8,10.4785714 8.19285714,10.2857143 8.42857143,10.2857143 L13.2857143,10.2857143 C13.5214286,10.2857143 13.7142857,10.4785714 13.7142857,10.7142857 Z" id="Shape"></path>
</svg>
