<svg class="icon icon-envelope" xmlns="http://www.w3.org/2000/svg" width="19px" height="14px" viewBox="0 0 19 14" aria-hidden="true" role="img">
    <path d="M17.21875,0 L1.78125,0 C0.797480469,0 0,0.783489583 0,1.75 L0,12.25 C0,13.2165104 0.797480469,14 1.78125,14 L17.21875,14 C18.2025195,14 19,13.2165104 19,12.25 L19,1.75 C19,0.783489583 18.2025195,0 17.21875,0 Z M17.21875,1.75 L17.21875,3.23768229 C16.3866836,3.903375 15.0601719,4.9385 12.2243105,7.12013021 C11.5993516,7.60309375 10.3613828,8.76338021 9.5,8.74985417 C8.63876563,8.76352604 7.40038867,7.60291146 6.77568945,7.12013021 C3.94027344,4.93882813 2.61342773,3.90348438 1.78125,3.23768229 L1.78125,1.75 L17.21875,1.75 Z M1.78125,12.25 L1.78125,5.48326042 C2.63157422,6.14866146 3.83744336,7.08239583 5.67543359,8.49639583 C6.4865332,9.12366146 7.90696875,10.5083854 9.5,10.4999635 C11.0852012,10.5083854 12.4876387,9.14375 13.3242324,8.4966875 C15.1621855,7.08272396 16.3683887,6.14873437 17.21875,5.48326042 L17.21875,12.25 L1.78125,12.25 Z" id="Shape"></path>
</svg>
