<svg xmlns="http://www.w3.org/2000/svg" width="29" height="28" aria-hidden="true" role="img"><path d="M5 4c0 .719-.391 1.359-1 1.719V25.5c0 .266-.234.5-.5.5h-1a.514.514 0 0 1-.5-.5V5.719c-.609-.359-1-1-1-1.719 0-1.109.891-2 2-2s2 .891 2 2zm23 1v11.922c0 .578-.359.797-.812 1.031-1.766.953-3.719 1.813-5.766 1.813-2.875 0-4.25-2.188-7.656-2.188-2.484 0-5.094 1.125-7.25 2.281A1.023 1.023 0 0 1 6 20c-.547 0-1-.453-1-1V7.406c0-.375.187-.641.484-.859.375-.25.828-.469 1.234-.672C8.687 4.875 11.077 4 13.296 4c2.453 0 4.375.812 6.547 1.828.438.219.891.297 1.375.297C23.671 6.125 26.312 4 26.999 4c.547 0 1 .453 1 1z"/></svg>
