<svg class="icon icon-gift" xmlns="http://www.w3.org/2000/svg" viewBox="0 0 500 500" aria-hidden="true" role="img"><defs><style>.cls-1{fill:#333}</style></defs><path class="cls-1" d="M384.82 29.72c-28.33-28.33-89.58-13-136.8 34.2s-62.52 108.46-34.19 136.79 89.57 13 136.79-34.2 62.53-108.46 34.2-136.79zm-56.44 114.05c-31.39 31.39-69.61 44-85.36 28.29s-3.1-54 28.29-85.36 69.6-44.05 85.36-28.29 3.09 53.97-28.29 85.36z"/><path class="cls-1" d="M251.17 63.92C204 16.7 142.71 1.39 114.38 29.72s-13 89.58 34.19 136.79S257 229 285.37 200.71s13.02-89.57-34.2-136.79zm5 108.14c-15.76 15.76-54 3.1-85.37-28.29s-44-69.6-28.29-85.36 54-3.09 85.36 28.29 44.06 69.61 28.31 85.36z"/><rect class="cls-1" x="44" y="186.15" width="412" height="71.04" rx="35.52"/><path class="cls-1" d="M72.41 285.6h156.28v198.9H96a23.63 23.63 0 01-23.63-23.63V285.6h.04z"/><path class="cls-1" d="M294.94 285.6h132.65v198.9H271.31V309.23a23.63 23.63 0 0123.63-23.63z" transform="rotate(-180 349.45 385.05)"/></svg>
