<svg class="icon icon-globe" xmlns="http://www.w3.org/2000/svg" width="24" height="28" aria-hidden="true"><path d="M12 2c6.625 0 12 5.375 12 12s-5.375 12-12 12S0 20.625 0 14 5.375 2 12 2zm4.281 8.141c-.125.094-.203.266-.359.297.078-.016.156-.297.203-.359.094-.109.219-.172.344-.234.266-.109.531-.141.812-.187.266-.063.594-.063.797.172-.047-.047.328-.375.375-.391.141-.078.375-.047.469-.187.031-.047.031-.344.031-.344-.266.031-.359-.219-.375-.438 0 .016-.031.063-.094.125.016-.234-.281-.063-.391-.094-.359-.094-.313-.344-.422-.609-.063-.141-.234-.187-.297-.328-.063-.094-.094-.297-.234-.313-.094-.016-.266.328-.297.313-.141-.078-.203.031-.313.094-.094.063-.172.031-.266.078.281-.094-.125-.25-.266-.219.219-.063.109-.297-.016-.406h.078c-.031-.141-.469-.266-.609-.359s-.891-.25-1.047-.156c-.187.109.047.422.047.578.016.187-.187.234-.187.391 0 .266.5.219.375.578-.078.219-.375.266-.5.438-.125.156.016.438.141.547.125.094-.219.25-.266.281-.266.125-.469-.266-.531-.5-.047-.172-.063-.375-.25-.469-.094-.031-.391-.078-.453.016-.094-.234-.422-.328-.641-.406-.313-.109-.578-.109-.906-.063.109-.016-.031-.5-.297-.422.078-.156.047-.328.078-.484a.887.887 0 0 1 .187-.359c.031-.063.375-.422.266-.438.266.031.562.047.781-.172.141-.141.203-.375.344-.531.203-.234.453.063.672.078.313.016.297-.328.125-.484.203.016.031-.359-.078-.406-.141-.047-.672.094-.391.203-.063-.031-.438.75-.656.359-.063-.078-.094-.406-.234-.422-.125 0-.203.141-.25.234.078-.203-.438-.344-.547-.359.234-.156.047-.328-.125-.422-.125-.078-.516-.141-.625-.016-.297.359.313.406.469.5.047.031.234.141.125.219-.094.047-.375.125-.406.187-.094.141.109.297-.031.438-.141-.141-.141-.375-.25-.531.141.172-.562.078-.547.078-.234 0-.609.156-.781-.078-.031-.063-.031-.422.063-.344-.141-.109-.234-.219-.328-.281a9.5 9.5 0 0 0-1.469.641.26.26 0 0 0 .187-.016c.125-.047.234-.125.359-.187.156-.063.484-.25.656-.109.016-.031.063-.063.078-.078.109.125.219.25.313.391-.125-.063-.328-.031-.469-.016-.109.031-.297.063-.344.187.047.078.109.203.078.281-.203-.141-.359-.375-.641-.406-.125 0-.25 0-.344.016a10.15 10.15 0 0 0-3.672 3.469.442.442 0 0 0 .187.125c.156.047 0 .5.297.266.094.078.109.187.047.297.016-.016.641.391.688.422.109.094.281.203.328.328.031.109-.063.234-.156.281-.016-.031-.25-.266-.281-.203-.047.078 0 .5.172.484-.25.016-.141.984-.203 1.172 0 .016.031.016.031.016-.047.187.109.922.422.844-.203.047.359.766.438.812.203.141.438.234.578.438.156.219.156.547.375.719-.063.187.328.406.313.672-.031.016-.047.016-.078.031.078.219.375.219.484.422.063.125 0 .422.203.359.031-.344-.203-.688-.375-.969-.094-.156-.187-.297-.266-.453-.078-.141-.094-.313-.156-.469.063.016.406.141.375.187-.125.313.5.859.672 1.062.047.047.406.516.219.516.203 0 .484.313.578.469.141.234.109.531.203.781.094.313.531.453.781.594.219.109.406.266.625.344.328.125.406.016.688-.031.406-.063.453.391.781.562.203.109.641.266.859.172-.094.031.328.672.359.719.141.187.406.281.562.469a.244.244 0 0 0 .109-.141c-.063.172.234.5.391.469.172-.031.219-.375.219-.5-.313.156-.594.031-.766-.281-.031-.078-.281-.516-.063-.516.297 0 .094-.234.063-.453s-.25-.359-.359-.547c-.094.187-.406.141-.5-.016 0 .047-.047.125-.047.187-.078 0-.156.016-.234-.016.031-.187.047-.422.094-.625.078-.281.594-.828-.078-.797-.234.016-.328.109-.406.313-.078.187-.047.359-.266.453-.141.063-.609.031-.75-.047-.297-.172-.5-.719-.5-1.031-.016-.422.203-.797 0-1.188.094-.078.187-.234.297-.313.094-.063.203.047.25-.141-.047-.031-.109-.094-.125-.094.234.109.672-.156.875 0 .125.094.266.125.344-.031.016-.047-.109-.234-.047-.359.047.266.219.313.453.141.094.094.344.063.516.156.172.109.203.281.406.047.125.187.141.187.187.375.047.172.141.609.297.688.328.203.25-.344.219-.531-.016-.016-.016-.531-.031-.531-.5-.109-.313-.5-.031-.766.047-.031.406-.156.562-.281.141-.125.313-.344.234-.547.078 0 .141-.063.172-.141-.047-.016-.234-.172-.266-.156.109-.063.094-.156.031-.25.156-.094.078-.266.234-.328.172.234.516-.031.344-.219.156-.219.516-.109.609-.313.234.063.063-.234.187-.406.109-.141.297-.141.438-.219 0 .016.391-.219.266-.234.266.031.797-.25.391-.484.063-.141-.141-.203-.281-.234.109-.031.25.031.344-.031.203-.141.063-.203-.109-.25-.219-.063-.5.078-.672.187zm-2.547 13.703a9.912 9.912 0 0 0 5.484-2.953c-.094-.094-.266-.063-.391-.125-.125-.047-.219-.094-.375-.125.031-.313-.313-.422-.531-.578-.203-.156-.328-.328-.625-.266-.031.016-.344.125-.281.187-.203-.172-.297-.266-.562-.344-.25-.078-.422-.391-.672-.109-.125.125-.063.313-.125.438-.203-.172.187-.375.031-.562-.187-.219-.516.141-.672.234-.094.078-.203.109-.266.203-.078.109-.109.25-.172.359-.047-.125-.313-.094-.328-.187.063.375.063.766.141 1.141.047.219 0 .578-.187.75s-.422.359-.453.625c-.031.187.016.359.187.406.016.234-.25.406-.234.656 0 .016.016.172.031.25z"/></svg>
