<svg class="icon icon-language" xmlns="http://www.w3.org/2000/svg" width="24" height="28" viewBox="0 0 24 28" aria-hidden="true">
    <path d="M10.219 16.844c-.031.109-.797-.25-1-.328-.203-.094-1.125-.609-1.359-.766s-1.125-.891-1.234-.938a28.275 28.275 0 0 1-2.094 2.828c-.281.328-1.125 1.391-1.641 1.719-.078.047-.531.094-.594.063.25-.187.969-1.078 1.281-1.437.391-.453 2.25-3.047 2.562-3.641.328-.594 1.312-2.562 1.359-2.75-.156-.016-1.391.406-1.719.516-.313.094-1.172.297-1.234.344-.063.063-.016.25-.047.313s-.313.203-.484.234a1.647 1.647 0 0 1-.734 0c-.203-.047-.391-.25-.438-.328 0 0-.063-.094-.078-.359.187-.063.5-.078.844-.172s1.188-.344 1.641-.5 1.328-.484 1.594-.547c.281-.047.984-.516 1.359-.641s.641-.281.656-.203 0 .422-.016.516c-.016.078-.766 1.547-.875 1.781-.063.125-.5.953-1.203 2.047.25.109.781.328 1 .438.266.125 2.125.906 2.219.938s.266.75.234.875zM7.016 9.25c.047.266-.031.375-.063.438-.156.297-.547.5-.781.594s-.625.187-.938.187c-.141-.016-.422-.063-.766-.406-.187-.203-.328-.75-.266-.688s.516.125.719.078.688-.187.906-.25c.234-.078.703-.203.859-.219.156 0 .281.063.328.266zm10.906 2.016l.984 3.547-2.172-.656zM.609 23.766l10.844-3.625V4.016L.609 7.657v16.109zM20 18.813l1.594.484-2.828-10.266-1.563-.484-3.375 8.375 1.594.484.703-1.719 3.297 1.016zM12.141 3.781l8.953 2.875V.718zM17 24.453l2.469.203-.844 2.5L18 26.125c-1.266.812-2.828 1.437-4.312 1.687-.453.094-.969.187-1.422.187h-1.313c-1.656 0-4.672-.984-5.984-1.937-.094-.078-.125-.141-.125-.25 0-.172.125-.297.281-.297.141 0 .875.453 1.078.547 1.406.703 3.375 1.344 4.953 1.344 1.953 0 3.281-.25 5.063-1.016.516-.234.969-.531 1.453-.797zm7-16.859v16.859c-12.078-3.844-12.094-3.844-12.094-3.844C11.656 20.718.453 24.5.297 24.5a.3.3 0 0 1-.281-.203c0-.016-.016-.031-.016-.047V7.406c.016-.047.031-.125.063-.156.094-.109.219-.141.313-.172.047-.016 1-.328 2.328-.781v-6l8.719 3.094C11.532 3.36 21.251 0 21.392 0c.172 0 .313.125.313.328v6.531z"/>
</svg>
