<svg class="icon icon-money-bill" xmlns="http://www.w3.org/2000/svg" width="23px" height="16px" viewBox="0 0 23 16" aria-hidden="true" role="img">
    <path d="M11.5,3.33333333 C9.26321875,3.33333333 7.45,5.4225 7.45,8 C7.45,10.5770833 9.26321875,12.6666667 11.5,12.6666667 C13.7359375,12.6666667 15.55,10.5779167 15.55,8 C15.55,5.4225 13.7367812,3.33333333 11.5,3.33333333 Z M13.1875,10.3333333 C13.1875,10.5175 13.0364688,10.6666667 12.85,10.6666667 L10.15,10.6666667 C9.96353125,10.6666667 9.8125,10.5175 9.8125,10.3333333 L9.8125,9.66666667 C9.8125,9.4825 9.96353125,9.33333333 10.15,9.33333333 L10.825,9.33333333 L10.825,7.02333333 L10.8051719,7.03625 C10.7307284,7.08531956 10.6395856,7.10314262 10.5518268,7.08579192 C10.464068,7.06844121 10.3868949,7.0173406 10.3373125,6.94375 L9.9626875,6.38916667 C9.91300457,6.31564221 9.89495872,6.22562471 9.91252631,6.13894934 C9.9300939,6.05227397 9.98183327,5.97605363 10.0563438,5.92708333 L10.7030781,5.50125 C10.8693583,5.39174931 11.064741,5.33332171 11.2645938,5.33333333 L11.8375,5.33333333 C12.0239688,5.33333333 12.175,5.4825 12.175,5.66666667 L12.175,9.33333333 L12.85,9.33333333 C13.0364688,9.33333333 13.1875,9.4825 13.1875,9.66666667 L13.1875,10.3333333 Z M21.85,0 L1.15,0 C0.514984375,0 0,0.597083333 0,1.33333333 L0,14.6666667 C0,15.4029167 0.514984375,16 1.15,16 L21.85,16 C22.4850156,16 23,15.4029167 23,14.6666667 L23,1.33333333 C23,0.597083333 22.4850156,0 21.85,0 Z M20.975,11.3333333 C19.7435983,11.3333333 18.7455882,12.5270833 18.7455882,14 L4.25441176,14 C4.25441176,12.5270833 3.25640165,11.3333333 2.025,11.3333333 L2.025,4.66666667 C3.25640165,4.66666667 4.25441176,3.47291667 4.25441176,2 L18.7455882,2 C18.7455882,3.47291667 19.7435983,4.66666667 20.975,4.66666667 L20.975,11.3333333 Z" id="Shape"></path>
</svg>
