<svg class="icon icon-paperclip" xmlns="http://www.w3.org/2000/svg" width="22" height="28" viewBox="0 0 22 28" aria-hidden="true">
    <path d="M21.938 21.641c0 2.438-1.859 4.297-4.297 4.297-1.375 0-2.703-.594-3.672-1.563L1.828 12.25C.719 11.125.062 9.594.062 8.016c0-3.313 2.609-5.953 5.922-5.953 1.594 0 3.125.641 4.266 1.766l9.453 9.469a.502.502 0 0 1 .156.344c0 .328-.875 1.203-1.203 1.203a.509.509 0 0 1-.359-.156L8.828 5.205C8.078 4.471 7.062 4.002 6 4.002c-2.219 0-3.938 1.797-3.938 4 0 1.062.438 2.078 1.188 2.828l12.125 12.141c.594.594 1.422.984 2.266.984 1.328 0 2.312-.984 2.312-2.312 0-.859-.391-1.672-.984-2.266l-9.078-9.078a1.396 1.396 0 0 0-.938-.375c-.594 0-1.047.438-1.047 1.047 0 .344.156.672.391.922l6.406 6.406a.502.502 0 0 1 .156.344c0 .328-.891 1.219-1.219 1.219a.506.506 0 0 1-.344-.156L6.89 13.3a3.29 3.29 0 0 1-.984-2.328A3.028 3.028 0 0 1 8.969 7.91c.875 0 1.719.359 2.328.984l9.078 9.078c.984.969 1.563 2.297 1.563 3.672z"/>
</svg>
