<svg class="icon icon-tags" xmlns="http://www.w3.org/2000/svg" width="30" height="28" viewBox="0 0 30 28" aria-hidden="true">
    <path d="M7 7c0-1.109-.891-2-2-2s-2 .891-2 2 .891 2 2 2 2-.891 2-2zm16.672 9c0 .531-.219 1.047-.578 1.406l-7.672 7.688c-.375.359-.891.578-1.422.578s-1.047-.219-1.406-.578L1.422 13.906C.625 13.125 0 11.609 0 10.5V4c0-1.094.906-2 2-2h6.5c1.109 0 2.625.625 3.422 1.422l11.172 11.156c.359.375.578.891.578 1.422zm6 0c0 .531-.219 1.047-.578 1.406l-7.672 7.688a2.08 2.08 0 0 1-1.422.578c-.812 0-1.219-.375-1.75-.922l7.344-7.344c.359-.359.578-.875.578-1.406s-.219-1.047-.578-1.422L14.422 3.422C13.625 2.625 12.11 2 11 2h3.5c1.109 0 2.625.625 3.422 1.422l11.172 11.156c.359.375.578.891.578 1.422z"/>
</svg>
