<svg xmlns="http://www.w3.org/2000/svg" width="22" height="28" aria-hidden="true" role="img"><path d="M7.703 7.547a.61.61 0 0 0 0-1.218c-.328 0-.594.281-.594.609s.266.609.594.609zm6.594 0c.328 0 .594-.281.594-.609s-.266-.609-.594-.609a.61.61 0 0 0 0 1.218zM1.609 10.422a1.6 1.6 0 0 1 1.594 1.594v6.719c0 .891-.703 1.609-1.594 1.609S0 19.625 0 18.735v-6.719c0-.875.719-1.594 1.609-1.594zm16.563.297v10.406c0 .953-.766 1.719-1.703 1.719h-1.172v3.547c0 .891-.719 1.609-1.609 1.609s-1.609-.719-1.609-1.609v-3.547H9.923v3.547c0 .891-.719 1.609-1.609 1.609a1.604 1.604 0 0 1-1.594-1.609l-.016-3.547H5.548a1.714 1.714 0 0 1-1.719-1.719V10.719h14.344zm-3.625-6.328c2.188 1.125 3.672 3.281 3.672 5.766H3.766c0-2.484 1.484-4.641 3.687-5.766L6.344 2.344a.228.228 0 0 1 .078-.313c.109-.047.25-.016.313.094L7.86 4.188c.953-.422 2.016-.656 3.141-.656s2.188.234 3.141.656l1.125-2.063c.063-.109.203-.141.313-.094a.228.228 0 0 1 .078.313zM22 12.016v6.719c0 .891-.719 1.609-1.609 1.609a1.604 1.604 0 0 1-1.594-1.609v-6.719a1.59 1.59 0 0 1 1.594-1.594c.891 0 1.609.703 1.609 1.594z"/></svg>
