<svg class="icon icon-arrow-right" xmlns="http://www.w3.org/2000/svg" width="26" height="32" aria-hidden="true"><path d="M26.286 17.143c0 .607-.232 1.196-.661 1.625L14 30.393c-.429.411-1.018.661-1.625.661s-1.179-.25-1.607-.661l-1.339-1.339c-.429-.429-.679-1.018-.679-1.625s.25-1.196.679-1.625l5.232-5.232H2.09c-1.286 0-2.089-1.071-2.089-2.286V16c0-1.214.804-2.286 2.089-2.286h12.571l-5.232-5.25a2.24 2.24 0 0 1 0-3.214l1.339-1.339c.429-.429 1-.679 1.607-.679s1.196.25 1.625.679l11.625 11.625c.429.411.661 1 .661 1.607z"/></svg>
