<svg class="icon icon-arrow" xmlns="http://www.w3.org/2000/svg" width="23" height="28" viewBox="0 0 23 28" aria-hidden="true">
    <path d="M23 15a2.01 2.01 0 0 1-.578 1.422L12.25 26.594c-.375.359-.891.578-1.422.578s-1.031-.219-1.406-.578L8.25 25.422c-.375-.375-.594-.891-.594-1.422s.219-1.047.594-1.422L12.828 18h-11C.703 18 0 17.062 0 16v-2c0-1.062.703-2 1.828-2h11L8.25 7.406a1.96 1.96 0 0 1 0-2.812l1.172-1.172c.375-.375.875-.594 1.406-.594s1.047.219 1.422.594l10.172 10.172c.375.359.578.875.578 1.406z"/>
</svg>
