<svg class="icon icon-arrow-up" xmlns="http://www.w3.org/2000/svg" width="26" height="28" aria-hidden="true"><path d="M25.172 15.172c0 .531-.219 1.031-.578 1.406l-1.172 1.172c-.375.375-.891.594-1.422.594s-1.047-.219-1.406-.594L16 13.172v11C16 25.297 15.062 26 14 26h-2c-1.062 0-2-.703-2-1.828v-11L5.406 17.75a1.96 1.96 0 0 1-2.812 0l-1.172-1.172c-.375-.375-.594-.875-.594-1.406s.219-1.047.594-1.422L11.594 3.578C11.953 3.203 12.469 3 13 3s1.047.203 1.422.578L24.594 13.75c.359.375.578.891.578 1.422z"/></svg>
