<svg class="icon icon-arrow-left" xmlns="http://www.w3.org/2000/svg" width="29" height="32" aria-hidden="true" viewBox="0 0 23 28" role="img">
  <path d="M27.429 16v2.286c0 1.214-.804 2.286-2.089 2.286H12.769l5.232 5.25a2.24 2.24 0 0 1 0 3.214l-1.339 1.357c-.411.411-1 .661-1.607.661s-1.196-.25-1.625-.661L1.805 18.75c-.411-.411-.661-1-.661-1.607s.25-1.196.661-1.625L13.43 3.911c.429-.429 1.018-.679 1.625-.679s1.179.25 1.607.679l1.339 1.321c.429.429.679 1.018.679 1.625s-.25 1.196-.679 1.625l-5.232 5.232H25.34c1.286 0 2.089 1.071 2.089 2.286z"/>
</svg>
