<svg xmlns="http://www.w3.org/2000/svg" width="16" height="28" aria-hidden="true" rol="img"><path d="M4.5 23a1.5 1.5 0 1 0-3.001.001A1.5 1.5 0 0 0 4.5 23zm0-18a1.5 1.5 0 1 0-3.001.001A1.5 1.5 0 0 0 4.5 5zm10 2a1.5 1.5 0 1 0-3.001.001A1.5 1.5 0 0 0 14.5 7zM16 7a3.002 3.002 0 0 1-1.5 2.594c-.047 5.641-4.047 6.891-6.703 7.734C5.313 18.109 4.5 18.484 4.5 20v.406A3 3 0 0 1 6 23a3.001 3.001 0 0 1-6 0c0-1.109.609-2.078 1.5-2.594V7.594A3 3 0 0 1 0 5a3.001 3.001 0 0 1 6 0 3.002 3.002 0 0 1-1.5 2.594v7.766c.797-.391 1.641-.656 2.406-.891 2.906-.922 4.562-1.609 4.594-4.875A3 3 0 0 1 10 7a3.001 3.001 0 0 1 6 0z"/></svg>
