<svg xmlns="http://www.w3.org/2000/svg" viewBox="0 0 500 500"><g id="Layer_4" data-name="Layer 4"><path d="M309.48,482.39C251,485.49,196,443.59,181.16,385q-15.07-59.53,17.89-111.31c1.29-2,2.16-5.56,5.53-4.75,2.34.57,1.84,3.45,2.09,5.41,5.86,44.54,31.27,75.55,69.85,95.75,54.82,28.7,110.54,27.28,166,.69,5.38-2.58,11.27-8.07,16.93-2,5.95,6.35.17,12.26-3.23,17.48-29.6,45.37-67.63,79.88-122.13,92.74-5.19,1.23-10.47,2.13-15.74,2.92A87.47,87.47,0,0,1,309.48,482.39Z"/><path d="M261.61,207.85c12.17,2.58-59.38-56.82-147.47-43.44-30.63,4.65-101.13,31.22-95.21,126,10.6,170.06,148.57,194.9,194.55,198.45a5.33,5.33,0,0,0,4.12-9.16c-24.49-23.46-91.38-64.86-76.36-150.31C154.81,252.25,210.17,197,261.61,207.85Z"/><path d="M316.4,314.19c20,6.9,52,10.91,99.88-1.3a1.4,1.4,0,0,0,.29-.09c41.36-16.06,62.62-51.48,67.13-82.28C497.26,138.08,419.32,13.93,282.91,9.88,93.76,4.25,41.85,127.57,31.93,158a2.08,2.08,0,0,0,3.27,2.27c22-17.6,111.06-78.24,221.59-8.76.08,0,.15.1.23.15,62.41,49.49,54.56,99.68,43.3,126.55A26.83,26.83,0,0,0,316.4,314.19Z"/></g></svg>
