<svg xmlns="http://www.w3.org/2000/svg" width="150" height="150" aria-hidden="true" role="img"><path d="M104.3 144.1H44.7c-22.1 0-40.2-18.1-40.2-40.2V44.4c0-22.1 18.1-40.2 40.2-40.2h59.6c22.1 0 40.2 18.1 40.2 40.2V104c-.1 22.1-18.1 40.1-40.2 40.1z" fill="#333"/><path d="M96.8 108.1c-6.5 4.3-14.1 6.6-21.8 6.6-15.5 0-29-8.9-35.5-22-3.3-1.7-6.3-3.5-9-5.4 5.4 19.5 23.2 33.8 44.5 33.8 12.6 0 24-5.1 32.3-13.3-3.2.3-6.8.3-10.5.3zM36.2 83.2c-2.7-1.6-5.1-3.3-7.2-5-8-6.3-12-12.9-10.5-18.5s8.4-9.2 18.3-10.6C45.1 36.9 59.1 28.9 75 28.9c24.4 0 44.5 19 46 43.1 7.9 6.3 12 12.9 10.5 18.5s-8.4 9.2-18.5 10.6c-2.7.4-5.6.6-8.8.7C94 102 81.8 100.4 69 97c-12.7-3.5-24.1-8.4-32.8-13.8zm73.1 11.6c3.4-5.9 5.3-12.7 5.3-19.5V75c0-21.9-17.7-39.6-39.6-39.6-14.5 0-27.3 7.8-34.2 19.5-3.6 6.1-5.5 13-5.5 20.1 8.2 5.5 20.7 11 35.2 14.9 14.9 4 28.8 5.6 38.8 4.9zm7.9-1.3c4-1.2 6.5-3 7.2-5.5.7-2.6-.6-5.5-3.6-8.6l-.1.6c-.4 4.7-1.6 9.3-3.5 13.5zM33.1 55.7l.3-.7c-4.7 1.1-7.7 3.1-8.4 5.8-.7 2.7.8 5.9 4.1 9.2.6-5 1.9-9.8 4-14.3z" fill="#fff"/></svg>
